<svg width="850" height="852" viewBox="0 0 850 852" fill="none" xmlns="http://www.w3.org/2000/svg">
<path d="M424.96 665.502C354.45 665.502 291.04 635.142 247.07 586.782C229.57 567.532 200.94 563.242 178.41 576.252L177.52 576.762L77.7305 634.372C68.0105 639.982 65.0305 652.652 71.2605 661.992C106.37 714.652 153.8 760.251 212.32 794.042C277.23 831.522 347.91 849.911 417.89 851.011H432.07C567.69 848.621 698.99 781.382 778.6 662.012C784.84 652.652 781.92 639.962 772.17 634.332L732.58 611.482L672.73 576.932L671.51 576.232C648.98 563.222 620.35 567.522 602.84 586.772C558.87 635.142 495.45 665.512 424.93 665.512L424.96 665.502Z" fill="#282259"/>
<path d="M665.35 425.112C665.35 450.572 661.39 475.102 654.05 498.132C646.11 523.062 656.48 550.152 679.14 563.232L778.93 620.842C788.65 626.452 801.11 622.702 806.08 612.632C834.13 555.892 849.91 492.012 849.91 424.442C849.91 349.492 830.5 279.082 796.46 217.922L789.37 205.642C719.49 89.382 595.61 9.29199 452.43 0.0419944C441.2 -0.688006 431.67 8.19198 431.67 19.452V135.772C431.67 161.862 449.8 184.572 475.32 190.012C583.91 213.162 665.35 309.622 665.35 425.112Z" fill="#282259"/>
<path d="M374.59 190.012C400.11 184.572 418.24 161.862 418.24 135.772V134.312V65.2019V19.4919C418.24 8.24191 408.71 -0.638095 397.48 0.0819052C254.3 9.33191 130.42 89.4219 60.54 205.682L53.45 217.962C19.42 279.112 0 349.522 0 424.482C0 492.052 15.78 555.932 43.83 612.672C48.8 622.732 61.26 626.492 70.98 620.882L170.77 563.272C193.43 550.192 203.8 523.092 195.86 498.172C188.52 475.142 184.55 450.592 184.55 425.132C184.55 309.642 265.99 213.182 374.58 190.032L374.59 190.012Z" fill="#282259"/>
<path d="M64.38 429.114L70.2382 428.917L66.098 432.186L66.3487 439.624L76.0904 439.296L75.8531 432.253L72.5128 429.927L80.6748 429.652L77.4657 432.199L77.7031 439.242L85.8322 438.968L87.6409 434.953L87.9714 444.761L85.9409 442.193L66.7865 442.839L64.9334 445.537L64.38 429.114Z" fill="white"/>
<path d="M86.0967 411.806L81.9191 408.584L87.7792 408.714L87.3858 426.459L85.5018 423.783L66.3413 423.358L64.3405 425.948L64.712 409.191L70.5721 409.321L66.2558 412.355L66.0836 420.124L74.8408 420.318L74.9729 414.359L72.0589 412.088L79.598 412.255L76.5861 414.395L76.454 420.354L85.9026 420.563L86.0967 411.806Z" fill="white"/>
<path d="M87.7502 386.294L89.7625 384.021L89.0074 392.847L87.3262 390.092L87.2934 390.089L80.2631 392.297L79.6146 399.876L86.1649 403.279L88.4348 399.54L87.8537 406.332L64.7753 394.079L64.7922 393.882L87.7502 386.294ZM78.0659 399.05L78.5992 392.816L70.789 395.254L78.0659 399.05Z" fill="white"/>
<path d="M80.5912 369.806C86.2007 367.335 90.7163 365.262 93.2458 361.586L93.4085 361.611C93.0211 368.481 88.7028 369.484 79.0434 374.033C79.5642 368.682 77.538 366.906 75.1944 366.546C72.4277 366.122 70.5984 367.84 70.0991 371.095L69.5849 374.448L88.8867 377.408L91.1689 375.126L89.8859 383.491L88.3649 380.593L69.4211 377.687L67.1013 379.997L68.5541 370.525C69.298 365.675 71.5297 362.419 75.338 363.003C78.4302 363.478 80.2466 366.188 80.5912 369.806Z" fill="white"/>
<path d="M94.879 346.939L91.3936 342.979L97.1211 344.225L93.346 361.569L92.0079 358.581L73.2811 354.505L70.8224 356.666L72.6224 348.396L73.9353 351.345L93.016 355.498L94.879 346.939Z" fill="white"/>
<path d="M99.9715 327.897L96.7264 323.738L102.37 325.321L97.5761 342.41L96.4169 339.349L77.964 334.173L75.3818 336.184L79.909 320.046L85.5527 321.629L80.6176 323.494L78.5186 330.976L86.9524 333.342L88.5623 327.604L86.3046 324.679L93.5653 326.716L90.1159 328.039L88.506 333.778L97.6056 336.331L99.9715 327.897Z" fill="white"/>
<path d="M87.6157 313.26C92.5349 314.955 95.0597 303.077 102.594 305.673C106.548 307.036 107.624 310.889 106.154 315.154C105.511 317.022 104.537 318.533 103.4 319.813L103.742 322.055L96.9547 319.717L102.491 318.002C103.49 317.023 104.167 315.968 104.618 314.66C105.884 310.986 103.963 309.384 102.344 308.826C96.3972 306.777 94.2685 318.618 87.2011 316.183C83.6518 314.96 82.3862 311.354 83.8665 307.058C84.3813 305.563 85.1228 304.321 86.1766 303.082L85.8938 301.173L92.681 303.512L86.5701 305.377C86.0744 306.007 85.7031 306.681 85.4242 307.49C84.1907 311.07 86.2458 312.789 87.6157 313.26Z" fill="white"/>
<path d="M94.379 294.632C99.1952 296.601 102.383 284.883 109.76 287.898C113.631 289.481 114.489 293.388 112.782 297.565C112.034 299.393 110.978 300.847 109.77 302.061L109.986 304.319L103.341 301.603L108.965 300.202C110.017 299.281 110.753 298.265 111.276 296.985C112.746 293.388 110.918 291.68 109.333 291.032C103.511 288.653 100.72 300.355 93.8009 297.526C90.3259 296.106 89.2649 292.435 90.9841 288.229C91.5821 286.766 92.3921 285.567 93.5139 284.389L93.3387 282.468L99.9839 285.184L93.7779 286.703C93.2475 287.304 92.839 287.955 92.5151 288.748C91.0824 292.253 93.0378 294.084 94.379 294.632Z" fill="white"/>
<path d="M121.288 273.95L118.801 269.298L124.091 271.822L116.447 287.841L115.828 284.627L98.5313 276.373L95.6432 277.913L99.288 270.276L99.8914 273.446L117.515 281.856L121.288 273.95Z" fill="white"/>
<path d="M116.228 242.371L122.122 254.375L129.281 258.373L132.217 257.032L128.107 264.393L127.708 261.19L120.52 257.176L106.988 258.445L104.353 259.652L108.72 251.832L109.132 255.079L119.964 254.188L115.12 244.355L111.513 246.829L115.816 239.124L116.228 242.371Z" fill="white"/>
<path d="M135.031 210.644L136.133 207.954L141.45 211.727L136.176 211.82L133.031 216.251L148.956 227.552L152.02 226.535L147.141 233.41L147.089 230.183L131.164 218.883L128 223.341L129.654 228.35L124.337 224.577L126.513 222.649L135.031 210.644Z" fill="white"/>
<path d="M167.798 203.561L170.741 202.815L165.146 209.683L165.309 206.46L165.283 206.439L158.23 204.303L153.426 210.201L156.922 216.702L160.903 214.891L156.598 220.176L144.429 197.052L144.554 196.899L167.798 203.561ZM152.612 208.646L156.563 203.795L148.736 201.411L152.612 208.646Z" fill="white"/>
<path d="M179.933 190.616L178.939 185.434L183.242 189.415L171.189 202.444L171.552 199.191L157.483 186.177L154.268 186.791L160.015 180.579L159.65 183.785L173.985 197.046L179.933 190.616Z" fill="white"/>
<path d="M193.966 176.795L193.276 171.565L197.339 175.79L184.546 188.093L185.098 184.866L171.813 171.052L168.568 171.478L180.649 159.86L184.712 164.084L179.513 163.191L173.911 168.578L179.983 174.891L184.279 170.76L183.815 167.095L189.042 172.53L185.398 171.923L181.101 176.055L187.652 182.867L193.966 176.795Z" fill="white"/>
<path d="M203.081 140.641L202.31 143.822L216.501 160.758L216.35 160.885L191.051 157.251L201.393 169.594L205.669 168.545L199.006 174.129L199.777 170.948L187.468 156.258L184.201 156.46L187.659 153.563L210.575 156.916L200.72 145.154L196.443 146.203L203.081 140.641Z" fill="white"/>
<path d="M219.836 128.475L221.744 126.282L225.566 131.565L220.541 129.956L216.139 133.141L227.584 148.963L230.811 148.986L223.981 153.927L224.969 150.854L213.524 135.032L209.095 138.236L209.05 143.512L205.229 138.229L207.909 137.102L219.836 128.475Z" fill="white"/>
<path d="M248.702 135.301L249.075 130.039L252.208 134.993L237.207 144.48L238.395 141.43L228.151 125.232L224.886 124.998L239.052 116.039L242.185 120.993L237.271 119.075L230.703 123.228L235.385 130.632L240.422 127.446L240.703 123.762L244.733 130.135L241.285 128.81L236.247 131.995L241.299 139.983L248.702 135.301Z" fill="white"/>
<path d="M253.032 108.129C258.214 105.319 264.644 105.503 268.365 112.363C271.928 118.934 269.202 125.582 264.021 128.392L254.149 133.745L255.539 130.781L246.403 113.934L243.161 113.481L253.032 108.129ZM262.962 127.13C267.304 124.776 268.409 119.906 265.395 114.348C262.224 108.501 257.854 107.349 253.512 109.704L249.083 112.106L258.533 129.532L262.962 127.13Z" fill="white"/>
<path d="M537.27 103.66L540.268 101.535L538.416 107.096L523.451 102.112C535.56 96.5998 538.954 93.4957 540.005 90.3402C540.89 87.6845 539.816 85.8 537.255 84.9468C534.849 84.1456 532.256 84.6357 529.789 86.8335L529.684 86.6253C532.11 82.7821 535.65 81.5316 539.43 82.7906C543.211 84.0497 544.555 86.8922 543.452 90.2039C541.995 94.5779 537.018 97.4325 529.522 101.079L537.27 103.66Z" fill="white"/>
<path d="M559.896 109.188L556.899 107.991L555.446 111.631L557.172 114.412L548.364 110.896L552.754 110.556L554.207 106.917L544.787 103.157L543.985 101.702L560.58 90.9522L563.515 91.4149L557.851 105.606L561.337 106.997L559.896 109.188ZM547.422 101.443L555.159 104.531L559.53 93.5824L547.422 101.443Z" fill="white"/>
<path d="M581.759 98.859L559.923 120.71L558.158 119.898L579.994 98.0468L581.759 98.859Z" fill="white"/>
<path d="M584.128 101.437L598.675 109.006C589.793 114.519 584.743 118.944 581.141 125.868L578.132 124.302C582.173 117.607 588.572 113.512 594.329 110.011L585.156 105.239L581.118 107.221L584.128 101.437Z" fill="white"/>
<path d="M636.229 132.424L633.007 132.603L632.989 132.63L615.071 147.325L614.906 147.217L618.665 127.889L603.045 139.482L602.88 139.374L608.327 116.312L607.295 113.555L614.466 118.232L611.244 118.41L611.226 118.438L607.402 134.068L619.195 125.207L619.873 121.757L624.01 124.455L622.397 125.723L619.042 141.659L631.251 131.497L629.002 127.711L636.229 132.424Z" fill="white"/>
<path d="M648.09 141.493C652.721 145.14 654.419 151.926 649.794 157.798C645.169 163.671 638.052 163.767 633.318 160.039C628.661 156.371 626.963 149.585 631.588 143.713C636.212 137.84 643.33 137.744 648.09 141.493ZM634.859 159.199C638.429 162.01 642.884 160.824 646.49 156.245C650.708 150.889 650.3 145.287 646.522 142.312C642.952 139.501 638.497 140.687 634.891 145.266C630.674 150.622 631.082 156.224 634.859 159.199Z" fill="white"/>
<path d="M661.01 168.402C659.967 174.443 659.197 179.351 660.862 183.492L660.751 183.613C655.241 179.492 656.793 175.339 658.344 164.775C662.514 168.168 665.115 167.462 666.711 165.708C668.594 163.638 668.174 161.163 665.738 158.947L663.229 156.665L650.089 171.111L650.728 174.274L644.468 168.579L647.724 168.915L660.62 154.737L659.978 151.527L667.067 157.975C670.697 161.277 672.175 164.937 669.583 167.787C667.478 170.101 664.215 170.116 661.01 168.402Z" fill="white"/>
<path d="M672.177 192.961L677.403 192.244L673.2 196.329L660.83 183.6L664.059 184.136L677.804 170.779L677.361 167.536L683.259 173.605L680.076 173.071L666.072 186.68L672.177 192.961Z" fill="white"/>
<path d="M699.326 191.224C703.147 195.712 704.297 202.041 698.355 207.1C692.663 211.946 685.595 210.655 681.774 206.166L674.495 197.616L677.682 198.363L692.275 185.939L692.046 182.673L699.326 191.224ZM682.789 204.87C685.991 208.631 690.984 208.705 695.799 204.606C700.863 200.294 701.086 195.78 697.884 192.019L694.618 188.183L679.523 201.033L682.789 204.87Z" fill="white"/>
<path d="M698.057 211.179L705.687 219.61L704.238 220.915L696.608 212.483L698.057 211.179Z" fill="white"/>
<path d="M715.16 241.365L715.116 241.594C710.053 242.514 706.886 240.125 705.133 237.534C701.885 232.733 702.412 225.578 708.439 221.5C714.658 217.293 721.707 219.72 725.416 225.202C726.339 226.566 727.145 228.287 727.632 230.065L729.42 231.121L723.065 235.42L725.423 228.856C725.059 227.79 724.596 226.87 724.043 226.052C721.109 221.715 716.149 220.379 710.967 223.885C706.167 227.133 704.658 232.249 707.611 236.612C709.031 238.713 711.52 240.687 715.16 241.365Z" fill="white"/>
<path d="M720.358 258.428L725.606 258.971L720.553 261.943L711.555 246.643L714.566 247.929L731.086 238.214L731.425 234.958L735.715 242.253L732.75 240.979L715.918 250.878L720.358 258.428Z" fill="white"/>
<path d="M732.13 280.578L731.614 283.57L727.615 275.666L730.494 277.125L730.523 277.11L735.341 271.535L731.907 264.747L724.546 265.298L724.582 269.672L721.504 263.59L747.577 261.874L747.666 262.05L732.13 280.578ZM733.659 264.636L736.484 270.219L741.844 264.037L733.659 264.636Z" fill="white"/>
<path d="M749.79 280.965C745.01 283.021 751.135 293.506 743.815 296.656C739.973 298.309 736.584 296.182 734.801 292.038C734.02 290.223 733.724 288.45 733.704 286.738L731.942 285.309L738.537 282.472L735.595 287.466C735.515 288.863 735.724 290.099 736.271 291.37C737.806 294.939 740.305 294.832 741.878 294.155C747.656 291.669 741.264 281.478 748.13 278.524C751.579 277.04 754.941 278.856 756.737 283.03C757.362 284.482 757.649 285.9 757.703 287.526L759.197 288.747L752.602 291.584L755.868 286.093C755.81 285.293 755.632 284.545 755.294 283.759C753.797 280.28 751.121 280.392 749.79 280.965Z" fill="white"/>
<path d="M757.338 299.327C752.451 301.111 757.975 311.925 750.489 314.657C746.56 316.091 743.297 313.776 741.75 309.538C741.073 307.682 740.876 305.896 740.953 304.185L739.275 302.66L746.018 300.199L742.8 305.019C742.641 306.409 742.78 307.655 743.254 308.954C744.587 312.605 747.088 312.638 748.696 312.051C754.605 309.895 748.797 299.36 755.819 296.797C759.345 295.51 762.6 297.512 764.158 301.781C764.7 303.266 764.907 304.698 764.869 306.324L766.292 307.628L759.548 310.089L763.118 304.79C763.106 303.988 762.97 303.231 762.676 302.427C761.378 298.87 758.699 298.831 757.338 299.327Z" fill="white"/>
<path d="M774.729 337.503C776.151 343.223 774.362 349.403 766.788 351.285C759.534 353.089 753.781 348.784 752.359 343.064L749.65 332.166L752.171 334.254L770.77 329.631L772.02 326.606L774.729 337.503ZM753.845 342.355C755.037 347.149 759.475 349.439 765.61 347.914C772.066 346.309 774.275 342.366 773.084 337.573L771.868 332.683L752.63 337.466L753.845 342.355Z" fill="white"/>
<path d="M759.727 370.746L764.457 373.081L758.686 374.108L755.577 356.634L757.951 358.887L776.82 355.529L778.271 352.595L781.208 369.097L775.437 370.124L779.071 366.3L777.71 358.649L769.086 360.183L770.13 366.051L773.434 367.704L766.01 369.026L768.541 366.334L767.497 360.466L758.192 362.122L759.727 370.746Z" fill="white"/>
<path d="M762.341 390.77L766.926 393.379L761.105 394.065L759.028 376.438L761.265 378.827L780.299 376.584L781.92 373.741L782.911 382.146L780.709 379.785L761.316 382.07L762.341 390.77Z" fill="white"/>
<path d="M782.71 400.493L763.529 401.878L761.811 404.61L761.201 396.169L763.329 398.657L782.444 397.277L784.193 394.509L784.802 402.95L782.71 400.493Z" fill="white"/>
<path d="M785.62 429.712L783.657 427.151L783.624 427.151L761.347 418.585L761.343 418.388L783.266 408.187L785.122 405.547L785.305 414.436L783.309 411.842L767.317 418.989L783.581 425.077L785.442 421.086L785.62 429.712Z" fill="white"/>
<path d="M763.429 445.771L767.536 449.083L761.68 448.826L762.458 431.094L764.283 433.811L783.43 434.65L785.487 432.103L784.753 448.849L778.897 448.592L783.278 445.653L783.618 437.889L774.867 437.505L774.606 443.46L777.47 445.794L769.936 445.463L772.994 443.389L773.255 437.434L763.813 437.02L763.429 445.771Z" fill="white"/>
<path d="M771.467 464.41C765.978 467.137 761.562 469.415 759.205 473.204L759.041 473.187C759.112 466.306 763.379 465.105 772.819 460.116C772.545 465.485 774.651 467.166 777.008 467.418C779.792 467.714 781.54 465.913 781.889 462.639L782.248 459.266L762.83 457.198L760.656 459.582L761.552 451.167L763.205 453.992L782.262 456.022L784.473 453.608L783.458 463.137C782.939 468.016 780.859 471.371 777.028 470.963C773.917 470.632 771.978 468.008 771.467 464.41Z" fill="white"/>
<path d="M776.477 496.63L766.96 487.236L758.884 485.818L756.553 488.05L758.011 479.747L759.442 482.639L767.551 484.063L779.911 478.41L782.002 476.403L780.453 485.225L778.995 482.295L769.06 486.702L776.87 494.392L779.462 490.869L777.935 499.561L776.477 496.63Z" fill="white"/>
<path d="M275.787 725.525L272.59 725.964L272.574 725.993L255.904 742.089L255.73 741.994L257.914 722.425L243.283 735.244L243.109 735.15L246.673 711.722L245.421 709.058L252.947 713.139L249.75 713.578L249.734 713.607L247.187 729.495L258.225 719.71L258.621 716.216L262.963 718.571L261.458 719.965L259.403 736.119L270.75 725.004L268.203 721.412L275.787 725.525Z" fill="white"/>
<path d="M281.139 729.664L273.088 747.128L274.651 749.952L266.965 746.409L270.171 745.747L278.195 728.343L276.616 725.475L284.301 729.018L281.139 729.664Z" fill="white"/>
<path d="M291.583 755.304L296.086 752.556L293.868 757.982L277.438 751.267L280.612 750.465L287.862 732.724L286.159 729.929L293.993 733.131L290.862 733.914L283.474 751.99L291.583 755.304Z" fill="white"/>
<path d="M314.637 740.836C320.225 742.711 324.474 747.541 321.991 754.94C319.613 762.027 312.892 764.565 307.303 762.69L296.658 759.117L299.773 758.113L305.87 739.944L303.991 737.264L314.637 740.836ZM307.504 761.055C312.187 762.626 316.504 760.115 318.515 754.121C320.631 747.815 318.494 743.833 313.811 742.261L309.035 740.658L302.728 759.452L307.504 761.055Z" fill="white"/>
<path d="M336.228 769.498L340.341 766.195L338.837 771.86L321.682 767.308L324.726 766.106L329.641 747.582L327.593 745.028L335.773 747.199L332.769 748.378L327.761 767.252L336.228 769.498Z" fill="white"/>
<path d="M365.526 755.821L355.91 765.114L354.302 773.154L356.478 775.537L348.212 773.884L351.138 772.521L352.752 764.449L347.392 751.959L345.435 749.821L354.218 751.578L351.254 752.966L355.426 763.002L363.298 755.375L359.837 752.702L368.49 754.432L365.526 755.821Z" fill="white"/>
<path d="M386.385 768.548C389.077 774.055 391.327 778.485 395.1 780.867L395.082 781.03C388.202 780.915 387.028 776.64 382.101 767.168C387.468 767.477 389.163 765.382 389.429 763.026C389.743 760.245 387.954 758.485 384.682 758.115L381.311 757.734L379.118 777.138L381.488 779.328L373.079 778.377L375.915 776.742L378.068 757.699L375.668 755.472L385.19 756.548C390.066 757.1 393.407 759.201 392.975 763.029C392.623 766.138 389.987 768.06 386.385 768.548Z" fill="white"/>
<path d="M410.885 780.023L414.233 775.946L413.924 781.799L396.199 780.864L398.933 779.063L399.942 759.924L397.414 757.845L414.152 758.728L413.843 764.581L410.943 760.175L403.182 759.765L402.721 768.512L408.673 768.826L411.032 765.983L410.635 773.513L408.588 770.438L402.636 770.124L402.138 779.561L410.885 780.023Z" fill="white"/>
<path d="M421.337 764.086C421.386 769.289 433.424 767.691 433.501 775.66C433.541 779.842 430.27 782.145 425.758 782.189C423.783 782.208 422.033 781.796 420.447 781.153L418.448 782.226L418.379 775.047L421.849 779.69C423.106 780.304 424.327 780.589 425.71 780.575C429.596 780.538 430.462 778.192 430.446 776.479C430.385 770.19 418.516 772.148 418.444 764.673C418.408 760.92 421.382 758.52 425.926 758.476C427.507 758.461 428.925 758.744 430.446 759.322L432.149 758.417L432.218 765.595L428.415 760.461C427.655 760.205 426.896 760.081 426.04 760.089C422.254 760.125 421.323 762.637 421.337 764.086Z" fill="white"/>
<path d="M447.737 757.736C453.619 757.355 459.416 761.269 459.9 768.728C460.384 776.188 455.153 781.015 449.139 781.405C443.224 781.788 437.427 777.874 436.943 770.415C436.459 762.955 441.69 758.128 447.737 757.736ZM449.725 779.75C454.26 779.456 456.782 775.596 456.404 769.78C455.963 762.978 451.916 759.082 447.118 759.393C442.583 759.687 440.062 763.547 440.439 769.363C440.88 776.165 444.927 780.061 449.725 779.75Z" fill="white"/>
<path d="M484.984 753.836L482.641 756.122L484.178 767.245C485.112 773.997 482.053 777.844 476.443 778.62C471.06 779.364 466.139 776.952 465.206 770.2L463.623 758.75L460.748 757.187L469.164 756.023L466.82 758.309L468.358 769.432C469.133 775.043 472.024 777.435 476.395 776.831C480.766 776.227 482.899 773.14 482.123 767.529L480.586 756.406L476.405 755.022L484.984 753.836Z" fill="white"/>
<path d="M500.049 762.693C504.326 767.084 507.847 770.589 512.175 771.673L512.209 771.835C505.637 773.874 503.187 770.18 495.548 762.721C500.742 761.338 501.698 758.818 501.215 756.497C500.645 753.756 498.396 752.643 495.172 753.314L491.851 754.005L495.828 773.123L498.764 774.463L490.478 776.187L492.661 773.748L488.759 754.984L485.784 753.619L495.166 751.667C499.969 750.668 503.8 751.62 504.585 755.392C505.222 758.455 503.317 761.105 500.049 762.693Z" fill="white"/>
<path d="M531.749 760.205L531.952 760.32C531.209 765.412 527.933 767.651 524.918 768.485C519.332 770.031 512.72 767.249 510.779 760.235C508.776 752.999 513.326 747.093 519.705 745.327C521.292 744.888 523.18 744.673 525.02 744.779L526.592 743.421L528.638 750.816L523.169 746.487C522.043 746.491 521.024 746.637 520.072 746.9C515.026 748.297 512.177 752.57 513.845 758.6C515.391 764.186 519.758 767.248 524.836 765.843C527.28 765.167 529.945 763.438 531.749 760.205Z" fill="white"/>
<path d="M549.911 758.463L551.483 753.428L553.395 758.969L536.615 764.756L538.472 762.061L532.223 743.943L529.099 742.965L544.945 737.5L546.856 743.041L542.513 740.045L535.167 742.579L538.023 750.86L543.657 748.916L544.777 745.395L547.236 752.524L544.183 750.442L538.549 752.385L541.63 761.32L549.911 758.463Z" fill="white"/>
<path d="M563.055 730.215L565.268 735.643L560.767 732.891L553.876 735.702L557.558 744.727L564.083 742.065L565.108 738.126L568.192 745.688L564.692 743.559L558.167 746.221L561.239 753.752L565.632 754.059L556.546 757.765L558.251 754.971L551.013 737.225L547.84 736.421L563.055 730.215Z" fill="white"/>
<path d="M586.09 719.262L584.562 722.157L589.444 732.27C592.407 738.408 590.679 743.009 585.579 745.471C580.686 747.834 575.262 747.051 572.298 740.913L567.273 730.504L564.056 729.9L571.707 726.206L570.179 729.101L575.061 739.213C577.524 744.314 581.01 745.703 584.984 743.784C588.957 741.866 590.038 738.272 587.576 733.172L582.694 723.059L578.29 723.028L586.09 719.262Z" fill="white"/>
<path d="M610.096 730.234L610.732 724.997L613.613 730.102L598.156 738.826L599.495 735.839L590.075 719.148L586.826 718.751L594.196 714.592L592.869 717.534L602.467 734.54L610.096 730.234Z" fill="white"/>
<path d="M703.23 632.112C681.53 661.322 655.33 686.992 625.67 708.112" stroke="#C2D300" stroke-width="0.98" stroke-miterlimit="10"/>
<path d="M757.311 523.892C753.481 536.882 748.911 549.542 743.641 561.842" stroke="#C2D300" stroke-width="0.98" stroke-miterlimit="10"/>
<path d="M458.631 80.812C470.881 81.992 482.941 83.812 494.781 86.232" stroke="#C2D300" stroke-width="0.98" stroke-miterlimit="10"/>
<path d="M291.9 105.662C321.79 93.2222 353.8 84.8422 387.24 81.2222" stroke="#C2D300" stroke-width="0.98" stroke-miterlimit="10"/>
<path d="M109.3 568.762C95.7102 538.832 86.2502 506.632 81.6602 472.882" stroke="#C2D300" stroke-width="0.98" stroke-miterlimit="10"/>
<path d="M224.22 708.112C194.56 686.992 168.37 661.322 146.66 632.112" stroke="#C2D300" stroke-width="0.98" stroke-miterlimit="10"/>
</svg>
