<svg width="850" height="852" viewBox="0 0 850 852" fill="none" xmlns="http://www.w3.org/2000/svg">
<path d="M674.871 287.002L636.551 309.132L596.401 332.312L595.581 332.782C580.461 341.512 573.351 359.582 578.671 376.212C588.651 407.442 589.141 441.622 578.871 474.002C577.601 478.062 574.681 481.682 570.661 483.872C567.451 485.622 563.931 486.212 560.561 485.812C557.011 485.262 553.271 485.812 549.871 487.662C541.651 492.142 538.621 502.432 543.101 510.652C543.381 511.172 544.031 512.152 544.031 512.152C544.381 512.672 544.771 513.152 545.171 513.622C545.501 514.102 545.811 514.602 546.091 515.122C549.651 521.662 548.451 529.512 543.661 534.702C520.821 559.512 491.171 576.012 459.351 582.932C442.301 586.642 430.201 601.842 430.201 619.292V619.982V710.862C477.151 710.122 524.571 697.782 568.121 672.642C611.671 647.502 646.061 612.602 670.181 572.312L674.931 564.072C721.151 480.652 724.401 376.102 674.891 287.002H674.871Z" fill="#4F31F1"/>
<path d="M390.671 582.951C374.821 579.491 359.241 573.561 344.441 565.021C329.621 556.461 316.671 545.901 305.731 533.881C301.551 528.711 300.641 521.321 304.021 515.121C304.301 514.601 304.611 514.101 304.941 513.621C305.341 513.151 305.731 512.671 306.081 512.151C306.081 512.151 306.721 511.171 307.011 510.651C311.491 502.431 308.461 492.141 300.241 487.661C296.841 485.811 293.101 485.261 289.551 485.811C286.181 486.211 282.661 485.621 279.451 483.871C275.461 481.701 272.661 478.151 271.381 474.151C261.411 442.701 261.041 408.291 271.601 375.741C277.001 359.091 269.891 340.941 254.731 332.191L253.881 331.701L213.731 308.521L175.411 286.401C125.891 375.501 129.141 480.051 175.371 563.471L180.121 571.711C204.231 612.001 238.631 646.901 282.181 672.041C325.731 697.181 373.151 709.521 420.101 710.261V619.381C420.101 601.821 407.841 586.701 390.691 582.961L390.671 582.951Z" fill="#4F31F1"/>
<path d="M440.851 277.732C442.191 274.612 444.461 271.862 447.581 269.952C451.521 267.542 456.061 266.942 460.221 267.912C475.811 271.402 491.151 277.272 505.711 285.682C520.501 294.222 533.421 304.752 544.341 316.742C556.161 329.722 575.381 332.782 590.581 324.002L669.291 278.562C645.181 238.272 610.781 203.372 567.231 178.232C523.681 153.092 476.261 140.752 429.311 140.012H419.801C324.441 141.692 232.271 191.152 179.871 278.592L218.191 300.712L258.341 323.892L259.211 324.392C274.371 333.142 293.651 330.222 305.361 317.222C328.211 291.872 358.091 275.012 390.211 267.892C397.051 266.422 404.361 269.302 408.221 275.612C408.531 276.122 408.811 276.632 409.061 277.152C409.261 277.732 409.491 278.312 409.761 278.872C409.761 278.872 410.291 279.922 410.601 280.422C415.481 288.412 425.911 290.932 433.891 286.052C437.191 284.032 439.541 281.072 440.841 277.722L440.851 277.732Z" fill="#4F31F1"/>
<g style="mix-blend-mode:multiply">
<path d="M602.982 587.001C560.082 634.201 498.652 664.241 430.182 665.671V710.861C477.132 710.121 524.552 697.781 568.102 672.641C610.732 648.031 644.562 614.051 668.592 574.841C646.582 563.881 619.702 568.611 602.972 587.001H602.982Z" fill="#E6E6E6"/>
<path d="M674.871 287.002L636.551 309.122L635.791 309.562C654.701 343.902 665.471 383.362 665.471 425.342C665.471 450.802 661.511 475.332 654.171 498.362C646.591 522.162 655.711 547.922 676.271 561.592C721.201 478.582 723.901 375.222 674.871 287.002Z" fill="#E6E6E6"/>
<path d="M475.441 190.252C541.161 204.262 596.931 245.132 630.731 300.822L669.301 278.552C645.191 238.262 610.791 203.362 567.241 178.222C524.501 153.552 478.041 141.212 431.951 140.062C433.721 164.422 451.261 185.092 475.441 190.242V190.252Z" fill="#E6E6E6"/>
<path d="M179.881 278.582L218.201 300.702L219.161 301.252C252.931 245.342 308.821 204.292 374.721 190.242C398.911 185.082 416.451 164.412 418.211 140.052C323.421 142.252 231.991 191.632 179.881 278.572V278.582Z" fill="#E6E6E6"/>
<path d="M282.161 672.042C325.711 697.182 373.131 709.522 420.081 710.262V665.682C351.581 664.282 290.121 634.242 247.191 587.032C230.561 568.742 203.891 563.972 181.951 574.692C205.961 613.712 239.701 647.532 282.161 672.042Z" fill="#E6E6E6"/>
<path d="M195.991 498.391C188.651 475.361 184.691 450.811 184.691 425.351C184.691 383.161 195.571 343.521 214.651 309.061L213.721 308.521L175.401 286.401C126.291 374.771 129.091 478.331 174.231 561.411C194.551 547.691 203.541 522.071 195.991 498.401V498.391Z" fill="#E6E6E6"/>
</g>
<path d="M533.889 594.491L537.76 600.292L541.796 599.785L534.231 604.835L535.238 601.975L525.476 587.348L522.448 587.181L529.812 582.267C530.821 581.593 531.799 581.074 532.746 580.709C533.694 580.344 534.591 580.159 535.437 580.153C536.289 580.119 537.077 580.298 537.8 580.69C538.529 581.054 539.174 581.656 539.735 582.497C540.285 583.321 540.622 584.189 540.746 585.103C540.886 586.006 540.822 586.911 540.554 587.819C540.291 588.7 539.837 589.549 539.193 590.368C538.549 591.187 537.722 591.933 536.713 592.606L533.889 594.491ZM533.047 593.231L535.62 591.514C536.998 590.594 537.802 589.522 538.031 588.3C538.261 587.078 537.971 585.861 537.163 584.651C536.355 583.44 535.371 582.749 534.211 582.575C533.05 582.402 531.78 582.776 530.402 583.696L527.829 585.413L533.047 593.231Z" fill="#C2D300"/>
<path d="M552.884 578.496C554.193 578.911 555.453 579.314 556.664 579.706C557.878 580.069 559.049 580.363 560.176 580.588C561.318 580.8 562.418 580.93 563.477 580.976C564.522 581.006 565.551 580.906 566.565 580.675L566.661 580.792C565.53 581.931 564.422 582.684 563.338 583.052C562.254 583.419 561.051 583.531 559.729 583.388C558.408 583.244 556.897 582.902 555.198 582.363C553.499 581.823 551.47 581.201 549.112 580.496C550.042 579.654 550.721 578.873 551.151 578.154C551.596 577.422 551.87 576.752 551.972 576.144C552.077 575.508 552.04 574.938 551.86 574.432C551.679 573.926 551.416 573.462 551.07 573.04C550.261 572.056 549.311 571.568 548.219 571.576C547.142 571.572 546.018 572.05 544.847 573.013L542.457 574.976L553.814 588.797L556.843 588.663L550.752 593.668L551.472 590.722L540.307 577.135L537.278 577.27L544.118 571.649C544.993 570.93 545.861 570.348 546.724 569.901C547.586 569.454 548.418 569.176 549.218 569.068C550.021 568.931 550.777 568.99 551.484 569.246C552.207 569.489 552.851 569.955 553.415 570.642C554.339 571.766 554.733 573.025 554.597 574.419C554.447 575.798 553.876 577.157 552.884 578.496Z" fill="#C2D300"/>
<path d="M560.03 556.608C563.808 552.711 570.183 551.797 575.125 556.588C580.067 561.379 579.482 567.906 575.62 571.89C571.821 575.809 565.446 576.722 560.504 571.932C555.562 567.141 556.147 560.614 560.03 556.608ZM574.996 570.399C577.909 567.394 577.243 563.202 573.39 559.467C568.883 555.098 563.714 554.943 560.632 558.121C557.72 561.125 558.386 565.318 562.239 569.053C566.745 573.422 571.915 573.577 574.996 570.399Z" fill="#C2D300"/>
<path d="M577.858 536.052L582.102 539.387L577.247 539.235L573.013 544.623L580.07 550.168L584.079 545.066L583.105 541.447L589.017 546.093L585.247 545.984L581.238 551.086L587.126 555.713L590.781 553.958L585.198 561.062L585.29 558.05L571.415 547.147L568.51 547.949L577.858 536.052Z" fill="#C2D300"/>
<path d="M597.744 541.17L600.612 540.186L596.181 546.707L596.039 543.678L581.495 533.793L578.627 534.777L583.058 528.257L583.199 531.286L597.744 541.17Z" fill="#C2D300"/>
<path d="M607.241 518.383L607.448 518.326C610.275 522.129 609.595 525.718 608.173 528.223C605.537 532.863 599.417 535.349 593.591 532.039C587.58 528.625 586.705 521.816 589.715 516.517C590.464 515.199 591.555 513.831 592.823 512.703L592.965 510.796L599.108 514.286L592.728 515.02C591.996 515.755 591.427 516.513 590.977 517.304C588.596 521.495 589.518 526.134 594.527 528.979C599.167 531.615 604.005 530.772 606.401 526.554C607.554 524.524 608.167 521.664 607.241 518.383Z" fill="#C2D300"/>
<path d="M597.979 504.645L614.03 512.12L616.636 510.691L613.346 517.755L612.749 514.801L596.752 507.352L594.106 508.795L597.396 501.732L597.979 504.645Z" fill="#C2D300"/>
<path d="M621.4 494.706L618.762 490.628L623.809 492.539L618.022 507.822L617.208 504.92L600.705 498.671L598.173 500.306L603.638 485.873L608.686 487.785L604.008 489.093L601.474 495.785L609.016 498.641L610.96 493.509L609.127 490.643L615.621 493.102L612.349 494.035L610.406 499.167L618.544 502.249L621.4 494.706Z" fill="#C2D300"/>
<path d="M610.194 461.777L611.323 464.572L631.028 469.635L630.983 469.811L610.101 480.661L624.461 484.351L627.099 481.272L625.107 489.025L623.978 486.231L606.887 481.839L604.55 483.743L605.584 479.72L624.533 469.938L610.848 466.422L608.21 469.501L610.194 461.777Z" fill="#C2D300"/>
<path d="M628.502 444.245L628.672 444.115C632.713 446.589 633.421 450.173 633.036 453.027C632.321 458.315 627.57 462.905 620.929 462.007C614.079 461.081 610.728 455.09 611.544 449.05C611.747 447.548 612.249 445.872 613.005 444.353L612.426 442.53L619.427 443.477L613.781 446.538C613.376 447.493 613.13 448.408 613.008 449.31C612.362 454.087 614.948 458.047 620.657 458.819C625.945 459.534 630.119 456.947 630.769 452.139C631.082 449.826 630.584 446.944 628.502 444.245Z" fill="#C2D300"/>
<path d="M615.187 422.267L625.133 429.525L632.68 429.716L634.499 427.366L634.303 435.126L632.605 432.687L625.028 432.495L614.543 439.326L612.912 441.439L613.121 433.194L614.848 435.664L623.294 430.297L615.134 424.359L613.254 427.92L613.46 419.797L615.187 422.267Z" fill="#C2D300"/>
<path d="M222.92 455.3L222.783 455.466C218.283 453.985 216.77 450.66 216.491 447.793C215.973 442.482 219.543 436.925 226.213 436.274C233.093 435.603 237.73 440.665 238.321 446.73C238.468 448.239 238.364 449.986 237.977 451.638L238.96 453.279L231.929 453.965L236.721 449.689C236.895 448.667 236.925 447.72 236.837 446.814C236.369 442.016 232.943 438.756 227.21 439.315C221.899 439.833 218.43 443.309 218.901 448.137C219.127 450.461 220.273 453.152 222.92 455.3Z" fill="#C2D300"/>
<path d="M230.556 468.344C226.511 472.279 223.281 475.518 222.28 479.503L222.131 479.534C220.258 473.482 223.661 471.228 230.533 464.199C231.804 468.983 234.123 469.865 236.261 469.422C238.784 468.899 239.81 466.828 239.195 463.859L238.561 460.801L220.956 464.45L219.72 467.153L218.138 459.523L220.382 461.535L237.661 457.953L238.921 455.215L240.711 463.854C241.628 468.278 240.749 471.805 237.275 472.524C234.455 473.109 232.017 471.354 230.556 468.344Z" fill="#C2D300"/>
<path d="M228.259 493.321L232.855 494.894L227.707 496.515L222.799 480.927L225.233 482.703L242.065 477.403L243.042 474.552L247.678 489.272L242.53 490.893L245.396 486.971L243.246 480.146L235.554 482.569L237.202 487.803L240.415 488.921L233.793 491.007L235.785 488.249L234.137 483.015L225.837 485.629L228.259 493.321Z" fill="#C2D300"/>
<path d="M237.719 516.189L237.077 518.91L233.844 511.421L236.408 512.924L236.436 512.912L241.177 508.058L238.401 501.628L231.605 501.721L231.393 505.743L228.905 499.981L252.964 499.865L253.036 500.032L237.719 516.189ZM240.017 501.623L242.301 506.912L247.573 501.532L240.017 501.623Z" fill="#C2D300"/>
<path d="M264.436 524.222L266.246 526.194L261.02 529.147L263.008 524.716L260.547 520.36L244.893 529.205L244.541 532.156L240.722 525.398L243.432 526.619L259.085 517.773L256.609 513.391L251.787 512.808L257.013 509.854L257.768 512.423L264.436 524.222Z" fill="#C2D300"/>
<path d="M268.195 533.031L253.505 542.917L253.384 545.886L249.033 539.421L251.871 540.435L266.511 530.582L266.641 527.571L270.992 534.036L268.195 533.031Z" fill="#C2D300"/>
<path d="M285.118 552.202L282.248 551.431L282.224 551.45L261.15 557.68L261.036 557.538L271.333 537.798L271.209 534.829L276.325 541.22L273.413 540.444L265.737 554.629L281.03 549.959L280.153 546.001L285.118 552.202Z" fill="#C2D300"/>
<path d="M288.083 557.49L275.219 569.658L275.588 572.607L270.233 566.946L273.2 567.479L286.019 555.352L285.651 552.361L291.006 558.021L288.083 557.49Z" fill="#C2D300"/>
<path d="M303.854 570.013L306.195 571.314L302.166 575.764L302.655 570.932L298.946 567.574L286.88 580.904L287.476 583.816L281.721 578.607L284.677 578.91L296.743 565.58L293.012 562.203L288.251 563.17L292.28 558.719L293.806 560.918L303.854 570.013Z" fill="#C2D300"/>
<path d="M320.418 584.712L308.798 588.786L304.359 594.893L305.263 597.724L298.984 593.161L301.956 593.146L306.412 587.015L306.734 574.505L305.92 571.963L312.591 576.812L309.577 576.833L309.205 586.833L318.725 583.482L316.858 579.914L323.431 584.691L320.418 584.712Z" fill="#C2D300"/>
<path d="M374.859 239.696L377.684 240.617L370.283 243.055L372.028 240.597L367.389 226.515L363.541 240.806L352.105 232.155L356.563 245.69L360.578 246.251L352.976 248.755L354.72 246.298L349.2 229.537L346.336 228.597L350.281 227.297L362.865 236.815L366.812 221.853L371.016 220.468L369.32 222.878L374.859 239.696Z" fill="#C2D300"/>
<path d="M397.122 235.294L399.64 236.508L391.631 238.047L393.651 235.868L393.645 235.839L389.93 230.162L383.052 231.484L381.676 238.139L385.557 239.215L379.393 240.4L384.476 216.884L384.654 216.85L397.122 235.294ZM383.397 229.905L389.054 228.817L384.939 222.507L383.397 229.905Z" fill="#C2D300"/>
<path d="M402.478 219.927C402.907 224.698 413.837 222.347 414.494 229.655C414.838 233.49 412.005 235.845 407.868 236.216C406.056 236.379 404.42 236.13 402.916 235.656L401.161 236.788L400.57 230.205L404.096 234.211C405.295 234.682 406.436 234.853 407.705 234.739C411.268 234.42 411.891 232.202 411.75 230.632C411.232 224.864 400.482 227.534 399.867 220.679C399.558 217.236 402.111 214.815 406.278 214.441C407.728 214.311 409.051 214.466 410.489 214.885L411.986 213.929L412.577 220.512L408.709 216.08C407.992 215.901 407.287 215.842 406.502 215.913C403.029 216.224 402.359 218.598 402.478 219.927Z" fill="#C2D300"/>
<path d="M436.062 213.414L436.006 219.448L433.101 215.509L428.159 215.463L427.994 233.352L430.402 235.193L422.55 235.12L424.962 233.354L425.127 215.435L420.185 215.39L417.208 219.274L417.264 213.24L419.927 213.871L433.388 213.996L436.062 213.414Z" fill="#C2D300"/>
<path d="M450.961 235.325L454.243 231.744L453.666 237.11L437.417 235.362L440.02 233.843L441.908 216.298L439.687 214.26L455.032 215.911L454.454 221.277L452.009 217.08L444.894 216.314L444.032 224.333L449.488 224.92L451.8 222.424L451.057 229.328L449.329 226.397L443.873 225.81L442.942 234.462L450.961 235.325Z" fill="#C2D300"/>
<path d="M468.777 229.538C470.756 234.823 472.426 239.082 475.675 241.598L475.643 241.747C469.348 241.033 468.65 237.011 464.971 227.895C469.863 228.652 471.602 226.882 472.054 224.746C472.588 222.225 471.104 220.454 468.137 219.825L465.082 219.178L461.356 236.768L463.335 238.984L455.712 237.37L458.456 236.122L462.113 218.859L460.11 216.606L468.742 218.435C473.162 219.371 476.038 221.592 475.303 225.062C474.706 227.88 472.12 229.409 468.777 229.538Z" fill="#C2D300"/>
<path d="M499.171 228.968L489.345 236.387L486.977 243.556L488.699 245.977L481.329 243.543L484.155 242.624L486.533 235.427L483.029 223.413L481.48 221.24L489.311 223.827L486.446 224.765L489.138 234.403L497.185 228.312L494.32 225.482L502.036 228.031L499.171 228.968Z" fill="#C2D300"/>
<path d="M519.961 248.781C543.801 261.581 564.761 279.051 581.621 299.981" stroke="#C2D300" stroke-width="0.98" stroke-miterlimit="10"/>
<path d="M267.081 301.792C283.211 281.292 303.241 264.002 326.061 251.062" stroke="#C2D300" stroke-width="0.98" stroke-miterlimit="10"/>
<path d="M224.661 411.592C226.241 389.152 231.501 367.732 239.851 347.932" stroke="#C2D300" stroke-width="0.98" stroke-miterlimit="10"/>
<path d="M395.811 624.702C373.271 621.412 351.941 614.382 332.481 604.262" stroke="#C2D300" stroke-width="0.98" stroke-miterlimit="10"/>
<path d="M527.051 599.051C506.371 611.261 483.321 619.861 458.751 624.011" stroke="#C2D300" stroke-width="0.98" stroke-miterlimit="10"/>
<path d="M611.431 350.711C619.801 371.441 624.821 393.881 625.801 417.371" stroke="#C2D300" stroke-width="0.98" stroke-miterlimit="10"/>
</svg>
