<svg width="76" height="41" viewBox="0 0 76 41" fill="none" xmlns="http://www.w3.org/2000/svg">
<path d="M51.8804 32.475V11.405H41.4004V0.875H75.5404V11.405H65.0604V32.475H51.8704H51.8804Z" fill="white"/>
<path d="M46.14 15.9552H23.41V23.2652H29.61C27.99 25.0252 25.67 26.1352 23.09 26.1352C18.21 26.1352 14.25 22.1752 14.25 17.2952C14.25 14.3652 15.68 11.7652 17.88 10.1552L7.76001 0.0351562C3.00001 4.26516 0 10.4352 0 17.2952C0 30.0352 10.32 40.3652 23.06 40.3852C23.07 40.3852 23.08 40.3852 23.09 40.3852C23.28 40.3852 23.46 40.3852 23.65 40.3852C23.68 40.3852 23.72 40.3852 23.75 40.3852C36.19 40.0352 46.17 29.8352 46.17 17.3052C46.17 16.8552 46.16 16.4052 46.13 15.9652L46.14 15.9552Z" fill="white"/>
</svg>
