<svg width="283" height="72" viewBox="0 0 283 72" fill="none" xmlns="http://www.w3.org/2000/svg">
<g clip-path="url(#clip0_4_4)">
<path d="M25.5404 11.4278C24.2628 6.3776 19.4322 4.53119 15.43 4.53119C9.27198 4.53119 4.53119 9.32188 4.53119 15.9091C4.53119 22.4963 9.27198 27.4267 15.43 27.4267C19.2925 27.4267 23.4245 25.6202 25.2809 21.0491H13.6834V16.5179H30.6005C30.381 19.1528 30.1614 20.9193 29.7222 21.9673V21.9274C27.5664 27.9058 21.1489 31.7782 15.44 31.7782C6.6371 31.7782 0 25.1411 0 15.9091C0 6.67702 6.76685 0 15.43 0C21.4483 0 28.7042 3.07403 30.371 11.4278H25.5404Z" fill="#4F31EF"/>
<path d="M57.7078 15.6496H62.8977C66.6304 15.6496 68.4768 12.9648 68.4768 10.29C68.4768 7.6152 66.6304 4.97034 62.8977 4.97034H56.0909V31.2493H51.6895V0.479065H62.8977C69.5747 0.479065 72.9182 5.3995 72.9182 10.28C72.9182 14.6316 70.2334 18.7635 64.9637 19.6917L74.6748 31.2493H68.916L57.7078 17.7555V15.6496Z" fill="#4F31EF"/>
<path d="M114.009 23.4744H101.533L98.5387 31.2493H93.748L106.094 0.0898438H109.348L121.704 31.2493H116.953L114.009 23.4744ZM103.15 19.2925H112.382L107.761 7.15611L103.15 19.2925Z" fill="#4F31EF"/>
<path d="M146.875 31.2493H142.434V0.489075H160.768V4.79072H146.875V13.9829H159.181V18.1048H146.875V31.2493Z" fill="#4F31EF"/>
<path d="M185.819 31.2493H181.377V0.489075H199.702V4.79072H185.819V13.9829H198.125V18.1048H185.819V31.2493Z" fill="#4F31EF"/>
<path d="M235.482 4.75079H229.764V26.9876H235.482V31.2493H219.613V26.9876H225.322V4.75079H219.613V0.528992H235.482V4.75079Z" fill="#4F31EF"/>
<path d="M12.5258 71.0719V44.5334H3.21387V40.3116H26.2391V44.5334H16.9671V71.0719H12.5258Z" fill="#4F31EF"/>
<path d="M57.9675 55.4722H63.1574C66.8902 55.4722 68.7366 52.7874 68.7366 50.1126C68.7366 47.4378 66.8902 44.793 63.1574 44.793H56.3507V71.0719H51.9492V40.3017H63.1574C69.8345 40.3017 73.178 45.2221 73.178 50.1026C73.178 54.4542 70.4932 58.5862 65.2234 59.5144L74.9346 71.0719H69.1757L57.9675 57.5781V55.4722Z" fill="#4F31EF"/>
<path d="M114.178 63.297H101.702L98.7077 71.0719H93.917L106.263 39.9124H109.517L121.873 71.0719H117.122L114.178 63.297ZM103.319 59.1151H112.551L107.93 46.9787L103.319 59.1151Z" fill="#4F31EF"/>
<path d="M147.144 71.0719H142.703V40.3116H161.028V44.6133H147.144V53.8054H159.451V57.9374H147.144V71.0719Z" fill="#4F31EF"/>
<path d="M186.039 71.0719H181.597V40.3116H199.922V44.6133H186.039V53.8054H198.345V57.9374H186.039V71.0719Z" fill="#4F31EF"/>
<path d="M235.562 44.5734H229.853V66.8101H235.562V71.0719H219.693V66.8101H225.412V44.5734H219.693V40.3516H235.562V44.5734Z" fill="#4F31EF"/>
<path d="M278.419 61.211C276.542 64.844 272.999 66.9 268.927 66.9C265.983 66.9 263.298 65.6324 261.362 63.6064C259.426 61.5803 258.198 58.8656 258.198 55.7816C258.198 52.6976 259.426 49.893 261.362 47.8769C263.298 45.8509 265.973 44.5734 268.927 44.5734C273.019 44.5734 276.493 46.4896 278.329 50.2623H282.89C280.804 44.0444 275.524 40.1819 268.927 40.1819C264.745 40.1819 260.973 41.9884 258.288 44.753C255.653 47.5675 253.896 51.43 253.896 55.7816C253.896 60.1331 255.653 63.9158 258.288 66.7303C260.973 69.5448 264.755 71.3014 268.927 71.3014C275.505 71.3014 280.784 67.2892 282.96 61.221H278.419V61.211Z" fill="#4F31EF"/>
<path d="M278.459 21.3884C276.583 25.0214 273.039 27.0774 268.967 27.0774C266.023 27.0774 263.338 25.8099 261.402 23.7838C259.466 21.7577 258.238 19.043 258.238 15.959C258.238 12.875 259.466 10.0704 261.402 8.05436C263.338 6.0283 266.013 4.75078 268.967 4.75078C273.059 4.75078 276.533 6.66706 278.369 10.4397H282.92C280.844 4.22181 275.564 0.359314 268.967 0.359314C264.785 0.359314 261.013 2.1658 258.328 4.93043C255.693 7.74496 253.937 11.6075 253.937 15.959C253.937 20.3105 255.693 24.0932 258.328 26.9077C261.013 29.7222 264.795 31.4788 268.967 31.4788C275.545 31.4788 280.824 27.4666 283 21.3984H278.459V21.3884Z" fill="#4F31EF"/>
</g>
<defs>
<clipPath id="clip0_4_4">
<rect width="283" height="71.2915" fill="white"/>
</clipPath>
</defs>
</svg>
