<svg width="144" height="102" viewBox="0 0 144 102" fill="none" xmlns="http://www.w3.org/2000/svg">
<path d="M36.2202 30.9C37.2802 32.68 39.3902 29.7 39.2102 29.15C39.0202 28.61 35.1702 29.11 36.2202 30.9Z" fill="#282259"/>
<path d="M95.1701 80.1099C95.1701 79.8199 95.1501 79.3099 96.2301 79.3099C96.8501 79.3099 97.5702 79.3199 97.7802 79.3199C98.1302 79.3199 100.07 79.3599 100.74 79.2799C101.48 79.1999 101.55 78.4399 101.57 77.4399C101.58 75.9799 101.66 59.2299 101.58 57.1699C101.47 54.3099 101.94 41.7599 99.7001 37.7499C97.0302 32.9499 91.6601 33.4299 89.1901 33.6299C85.9001 33.9099 80.1702 34.7299 73.7802 34.7499C64.9702 34.7899 55.7201 31.5599 54.3501 31.1699C51.9701 30.4999 49.2701 29.3999 48.1801 28.8899C46.8801 28.2699 47.5401 27.9999 48.1101 27.7199C50.9501 26.2999 53.3502 24.7899 54.8302 22.3899C55.9602 20.5499 55.5402 19.9699 54.2802 20.9899C54.0202 21.1999 53.5301 21.5799 52.8801 22.0299C50.8101 23.5299 47.0601 25.1799 41.3501 23.6599C35.2601 22.0299 33.2301 16.3399 32.7601 15.0299C32.2801 13.7299 31.6101 13.6199 31.6101 15.5399C31.6101 20.3699 33.7502 23.2999 34.4602 24.1399C35.1802 24.9699 35.5101 25.7999 35.1201 26.2699C34.3001 27.2699 33.1701 28.6199 32.8601 29.4599C32.7701 29.7199 32.8202 30.2599 32.7802 30.5099C32.6302 31.5799 31.5302 32.6699 30.2102 34.3499C29.4502 35.2899 29.9101 36.2999 30.5601 36.9999C31.3201 37.8399 32.1501 38.9399 32.4701 39.1199C33.6101 39.7699 34.4801 39.3199 35.5001 39.6299C36.5201 39.9499 38.0701 40.3999 39.1201 42.2899C40.6501 45.0299 42.3301 49.3199 45.3101 52.8799C46.6401 54.4699 46.6302 57.3299 46.6402 58.2899C46.7202 66.6099 42.3601 74.3199 39.5701 79.3099C38.9101 80.4999 39.0401 81.4699 39.9301 81.4699C40.9401 81.4899 42.1101 81.4699 44.3001 81.4699C46.1301 81.4699 45.3501 80.4299 45.7401 79.7599C46.0201 79.2899 47.0301 79.8899 47.1601 78.1999C47.1801 77.9099 47.2101 77.6599 47.3601 76.5699C48.3001 69.8099 51.6002 59.7399 53.6402 58.4499C56.6702 60.4199 60.2901 63.7099 61.3701 70.3899C61.7001 72.4299 61.8901 74.2399 61.7001 75.9799C61.4902 77.8699 61.3301 78.7499 61.1601 79.2899C60.5901 81.0999 61.0601 81.4899 61.9201 81.4599H66.5601C68.3901 81.4599 67.4801 80.3599 67.9201 79.8099C68.2301 79.3999 68.9701 79.6699 68.8201 78.6099C67.6601 72.7199 64.6802 67.7099 63.3402 61.8799C62.3902 57.7499 64.8701 55.1399 66.9801 54.5199C70.3101 53.5299 74.8601 55.1599 75.4401 55.4899C75.9801 55.7999 76.0302 55.9299 76.4602 55.5699C80.2202 52.4799 81.9601 53.9799 82.0501 54.0699C82.4901 54.4799 82.7801 56.6699 82.8001 57.0999C83.3201 67.3699 72.8801 77.2399 71.0501 79.4799C70.2301 80.4699 70.6901 81.4699 71.5001 81.4599C72.1901 81.4599 75.6302 81.4799 76.3402 81.4499C78.1002 81.3899 77.1801 80.3799 77.6101 79.8299C77.8701 79.4799 78.4501 79.7799 78.7301 79.0099C80.1201 75.2899 82.9902 68.1599 88.9501 63.3399C89.4701 62.9099 89.9602 61.8699 90.4002 59.4899C90.5702 58.5899 90.7801 57.9299 91.0101 57.1299C94.3601 61.4999 94.7702 69.2999 89.0902 79.5599C88.5002 80.6299 88.8701 81.4599 89.5401 81.4599C89.9401 81.4599 93.0401 81.4899 94.0101 81.4599C95.4001 81.4099 95.1701 80.7199 95.1701 80.0999M96.9901 46.9999C97.3201 43.6099 97.2101 41.6799 97.2401 41.3699C97.3101 40.5399 97.8101 40.6099 98.2201 41.7599C99.4501 45.1999 98.9301 59.0599 98.9301 59.3499C98.9301 59.7499 98.4501 60.0499 98.1201 59.6399C97.7301 59.1499 96.8801 53.9699 96.5601 52.3499C96.2401 50.7199 96.7801 49.1099 96.9901 47.0099M87.0501 35.7399C87.9801 35.5499 88.7801 35.8099 89.2401 36.3699C90.2501 37.5899 90.6902 39.8599 90.4501 41.2399C90.2802 42.1599 88.9502 42.5499 88.7802 41.5599C88.6302 40.5599 87.8801 38.2699 86.6101 36.8599C85.9301 36.1099 86.1701 35.8999 87.0501 35.7299M68.7702 36.2499C70.9902 36.3599 72.0801 36.4699 73.4301 36.4599C75.0801 36.4399 77.0001 36.3999 77.7301 36.3399C79.0401 36.2299 79.8901 36.6099 80.3101 37.6499C80.7301 38.6399 82.2201 42.7599 79.7601 43.9099C76.6201 45.3799 72.0601 45.5599 69.8001 44.8999C68.9501 44.6599 67.6001 44.3399 67.6201 42.6499C67.6301 42.0699 67.6801 39.8799 67.4201 37.8999C67.3001 36.8999 67.1202 36.1799 68.7702 36.2499ZM58.8601 36.0199C58.7701 34.9599 58.9802 34.9099 60.3302 35.1199C61.7202 35.3499 61.6801 35.7199 61.7001 36.5399C61.7701 39.8999 60.8901 42.0899 59.7401 42.7199C59.1001 43.0799 58.2902 42.9099 58.2702 42.2499C58.2702 41.7699 59.1401 39.2199 58.8601 36.0199ZM42.1301 43.7099C40.4401 41.0699 39.9801 40.2699 38.6801 39.2499C36.1101 37.2099 33.8101 38.4799 32.7901 37.2599C31.7201 35.9699 30.9801 35.5699 31.9901 34.3499C32.7201 33.4499 33.2402 32.6199 33.5902 32.1799C34.0602 31.5999 33.9801 30.3099 34.1701 29.7799C34.3701 29.2299 35.4101 27.7099 36.8001 26.5999C38.1301 25.5299 39.9101 26.6199 43.4401 28.6699C45.3901 29.8099 47.3601 30.8199 48.3101 31.3999C49.3701 32.0499 48.5802 33.0799 48.0302 33.9399C46.3502 36.4999 44.1401 41.1999 43.5001 42.8699C43.0401 44.0799 42.7001 44.5899 42.1301 43.7099ZM90.5701 53.8099C88.2301 52.3499 85.6102 51.2399 82.0302 50.9199C74.4302 50.2399 70.1502 50.7499 67.8902 51.5099C67.2102 51.7399 61.5201 53.3499 61.4201 59.2099C61.3901 60.9399 60.9102 60.7799 60.0902 60.1599C57.2802 57.9999 54.3901 55.9799 50.5101 53.6799C48.6501 52.5699 47.0502 51.0299 46.4602 49.9999C45.5102 48.3499 44.2301 45.8099 45.6801 41.8999C46.4001 39.9699 47.8701 36.9299 49.0001 35.2699C50.8401 32.5499 50.6602 32.5199 54.2102 33.6699C57.4002 34.6899 57.2402 35.0899 57.2802 36.6499C57.3402 38.6999 57.0802 40.5599 56.6502 42.4499C56.4202 43.4399 57.0601 44.5699 58.2901 44.5999C63.3001 44.7299 63.4101 37.7899 63.4101 37.7699C63.5101 36.1599 62.9001 35.8299 64.5101 35.9799C65.7101 36.0899 65.9301 37.1099 66.1001 38.9499C66.1701 39.6199 66.1201 42.2399 66.1201 42.9599C66.1201 43.6799 66.2001 45.5399 68.6601 46.2099C72.7201 47.3199 78.3801 46.4399 80.7001 45.0599C82.0602 44.2599 82.9301 43.3299 82.7601 41.3799C82.6401 39.9199 82.2201 38.1099 81.9501 37.4199C81.6502 36.6699 81.7002 36.1399 82.3302 36.0499C85.3902 35.6399 86.7601 38.8199 87.8101 42.6999C88.1401 43.9599 89.8902 43.8799 90.7702 43.0099C91.6402 42.1699 92.1301 40.8399 91.5101 38.3499C91.3101 37.5399 91.0202 36.8899 90.7802 36.4899C90.5702 36.1199 90.5002 35.7799 91.3402 35.7799C96.9202 35.7499 95.5201 46.0799 95.4501 46.9599C95.3701 48.0699 94.9101 50.4399 94.6701 51.5399C93.6801 56.0899 91.3302 54.2699 90.5802 53.7999" fill="#282259"/>
<path d="M64.47 86.9902C62.4 86.9902 60.99 87.4002 60.23 87.6502C59.3 87.9402 59 88.2902 59 88.7602V100.88C59 101.34 59.13 101.39 59.52 101.39H60.85C61.23 101.39 61.42 101.34 61.42 100.85V89.7102C61.42 89.0802 62.45 88.4602 64.35 88.4602C67.52 88.4602 67.52 90.5002 67.52 91.7702V100.85C67.52 101.34 67.69 101.39 68.12 101.39H69.61C69.91 101.34 69.93 101.09 69.93 100.85V91.4702C69.93 89.8702 69.9 86.9902 64.45 86.9902" fill="#282259"/>
<path d="M81.7198 88.0002C80.7298 87.3302 79.4298 86.9902 78.1798 86.9902C76.9298 86.9902 75.6298 87.3302 74.6498 88.0002C73.0698 89.0602 72.0498 91.1602 72.0498 94.4102C72.0498 97.6602 73.0698 99.7402 74.6498 100.79C75.6298 101.47 76.9298 101.81 78.1798 101.81C79.4298 101.81 80.7398 101.48 81.7198 100.79C83.2898 99.7402 84.3298 97.6502 84.3298 94.4102C84.3298 91.1702 83.2898 89.0702 81.7198 88.0002ZM80.5398 99.3302C79.8098 100.03 79.1298 100.23 78.1698 100.23C77.2098 100.23 76.5498 100.03 75.8098 99.3302C75.0498 98.6202 74.5298 96.9602 74.5298 94.4102C74.5298 91.8602 75.0498 90.1702 75.8098 89.4602C76.5398 88.7602 77.2198 88.5702 78.1698 88.5702C79.1198 88.5702 79.8098 88.7602 80.5398 89.4602C81.2998 90.1702 81.8198 91.8302 81.8198 94.4102C81.8198 96.9902 81.2998 98.6202 80.5398 99.3302Z" fill="#282259"/>
<path d="M90.4701 86.99C89.0101 86.99 88.0801 87.24 87.3701 87.43C86.4401 87.67 86.1201 88.08 86.1201 88.54V100.93C86.1201 101.37 86.2901 101.39 86.6701 101.39H88.0501C88.3801 101.39 88.5501 101.37 88.5501 100.93V89.57C88.5501 88.84 89.1201 88.34 89.9401 88.34C91.6801 88.34 91.9501 89.62 92.8701 89.62C93.4901 89.62 94.0101 89.18 94.0101 88.4C94.0101 87.42 92.3501 86.98 90.4801 86.98" fill="#282259"/>
<path d="M105.409 82.29H104.069C103.619 82.29 103.559 82.45 103.559 82.89V87.82C102.709 87.38 101.869 87.08 100.589 87.08C96.379 87.08 94.209 91.07 94.209 94.41C94.209 99.36 96.949 101.81 101.079 101.81C103.109 101.81 105.939 100.79 105.939 99.9V82.85C105.939 82.35 105.809 82.3 105.399 82.3M103.559 99.11C103.559 99.82 102.409 100.2 101.159 100.2C98.5289 100.2 96.6589 98 96.6589 94.23C96.6589 90.94 98.449 88.73 100.949 88.73C102.369 88.73 103.039 89.17 103.559 89.61V99.11Z" fill="#282259"/>
<path d="M111.03 87.3301H109.62C109.16 87.3301 109.16 87.4801 109.16 87.8401V100.91C109.16 101.29 109.16 101.39 109.56 101.39H111.03C111.44 101.39 111.57 101.37 111.57 100.91V87.8401C111.57 87.4101 111.46 87.3301 111.03 87.3301Z" fill="#282259"/>
<path d="M110.41 82.0498C109.54 82.0498 108.91 82.6598 108.91 83.4898C108.91 84.2498 109.46 84.8998 110.37 84.8998C111.28 84.8998 111.87 84.1698 111.84 83.4198C111.82 82.6098 111.16 82.0498 110.41 82.0498Z" fill="#282259"/>
<path d="M130.32 93.9298L130.289 93.8998C132.089 92.5698 133.99 90.4498 135.13 88.1698C135.26 87.8998 135.28 87.7898 135.28 87.6298C135.28 87.3798 135.149 87.3398 134.799 87.3398H133.52C133.04 87.3398 132.81 87.3098 132.68 87.7398C131.92 90.0798 129.91 92.5798 127.87 93.7698C127.79 93.8298 127.77 93.9098 127.77 93.9398C127.77 93.9898 127.79 94.0398 127.82 94.0698L132.65 101C132.92 101.4 133.03 101.4 133.46 101.4H135.31C135.4 101.4 135.659 101.38 135.659 101.1C135.659 100.97 135.579 100.89 135.469 100.75L130.31 93.9398L130.32 93.9298Z" fill="#282259"/>
<path d="M126.87 82.2102H125.44C125.15 82.2102 124.979 82.2702 124.979 82.6502V100.95C124.979 101.33 125.06 101.38 125.44 101.38H126.87C127.26 101.38 127.4 101.38 127.4 100.98V82.5902C127.4 82.2002 127.21 82.2002 126.87 82.2002" fill="#282259"/>
<path d="M116.38 90.7198C116.38 89.6898 117.19 88.6298 118.71 88.6298C120.23 88.6298 120.7 89.6599 121.51 89.6599C121.92 89.6599 122.49 89.4198 122.49 88.7098C122.49 87.6798 120.73 87.0898 118.85 87.0898C116.38 87.0898 114.21 88.4198 114.21 90.9398C114.21 93.2799 115.87 94.2798 117.84 95.1298C119.42 95.7798 120.88 96.3798 120.88 97.8798C120.88 98.9898 119.99 100.27 118.09 100.27C116.19 100.27 115.64 98.8598 114.72 98.8598C114.25 98.8598 113.68 99.0498 113.68 99.7598C113.68 100.87 115.85 101.83 118.06 101.83C120.5 101.83 123.06 100.52 123.06 97.6098C123.06 93.0398 116.38 93.7498 116.38 90.7398" fill="#282259"/>
<path d="M6.38971 86.9902C4.31971 86.9902 2.90972 87.4002 2.14972 87.6502C1.22972 87.9402 0.929688 88.2902 0.929688 88.7602V100.88C0.929688 101.34 1.05971 101.39 1.44971 101.39H2.77972C3.15972 101.39 3.34967 101.34 3.34967 100.85V89.7102C3.34967 89.0802 4.37972 88.4602 6.27972 88.4602C9.44972 88.4602 9.44971 90.5002 9.44971 91.7702V100.85C9.44971 101.34 9.60968 101.39 10.0497 101.39H11.5397C11.8397 101.34 11.8697 101.09 11.8697 100.85V91.4702C11.8697 89.8702 11.8397 86.9902 6.3797 86.9902" fill="#282259"/>
<path d="M23.6493 88.0002C22.6693 87.3302 21.3693 86.9902 20.1093 86.9902C18.8493 86.9902 17.5593 87.3302 16.5893 88.0002C15.0093 89.0602 13.9893 91.1602 13.9893 94.4102C13.9893 97.6602 15.0093 99.7402 16.5893 100.79C17.5693 101.47 18.8693 101.81 20.1093 101.81C21.3493 101.81 22.6693 101.48 23.6493 100.79C25.2193 99.7402 26.2493 97.6502 26.2493 94.4102C26.2493 91.1702 25.2093 89.0702 23.6493 88.0002ZM22.4792 99.3302C21.7392 100.03 21.0693 100.23 20.1093 100.23C19.1493 100.23 18.4893 100.03 17.7493 99.3302C16.9893 98.6202 16.4792 96.9602 16.4792 94.4102C16.4792 91.8602 16.9893 90.1702 17.7493 89.4602C18.4893 88.7602 19.1693 88.5702 20.1093 88.5702C21.0493 88.5702 21.7392 88.7602 22.4792 89.4602C23.2392 90.1702 23.7593 91.8302 23.7593 94.4102C23.7593 96.9902 23.2392 98.6202 22.4792 99.3302Z" fill="#282259"/>
<path d="M48.4493 88.0002C47.4693 87.3302 46.1693 86.9902 44.9193 86.9902C43.6693 86.9902 42.3593 87.3302 41.3793 88.0002C39.8093 89.0602 38.7793 91.1602 38.7793 94.4102C38.7793 97.6602 39.8093 99.7402 41.3793 100.79C42.3593 101.47 43.6693 101.81 44.9193 101.81C46.1693 101.81 47.4693 101.48 48.4493 100.79C50.0293 99.7402 51.0593 97.6502 51.0593 94.4102C51.0593 91.1702 50.0293 89.0702 48.4493 88.0002ZM47.2892 99.3302C46.5492 100.03 45.8793 100.23 44.9193 100.23C43.9593 100.23 43.2893 100.03 42.5493 99.3302C41.7893 98.6202 41.2793 96.9602 41.2793 94.4102C41.2793 91.8602 41.7893 90.1702 42.5493 89.4602C43.2893 88.7602 43.9693 88.5702 44.9193 88.5702C45.8693 88.5702 46.5492 88.7602 47.2892 89.4602C48.0492 90.1702 48.5693 91.8302 48.5693 94.4102C48.5693 96.9902 48.0492 98.6202 47.2892 99.3302Z" fill="#282259"/>
<path d="M38.2095 87.3301H36.8494C36.6494 87.3501 36.5995 87.4301 36.5195 87.7001L32.9894 98.0401L29.3195 87.7601C29.1895 87.3701 29.1394 87.3301 28.7194 87.3301H27.0695C26.9595 87.3301 26.6895 87.3301 26.6895 87.6501C26.6895 87.7601 26.7394 87.8901 26.7994 88.0301L31.7095 100.96C31.8495 101.28 31.8994 101.37 32.1094 101.39H33.1794C33.4994 101.39 33.5595 101.37 33.6995 100.99L38.4495 88.0301C38.5595 87.7001 38.5594 87.6501 38.5594 87.6001C38.5594 87.3301 38.3395 87.3301 38.2095 87.3301Z" fill="#282259"/>
<path d="M45.6402 21.97C51.7102 21.97 56.6302 17.06 56.6302 10.99C56.6302 4.92001 51.7102 0.0100098 45.6402 0.0100098C39.5702 0.0100098 34.6602 4.92001 34.6602 10.99C34.6602 17.06 39.5802 21.97 45.6402 21.97ZM46.0702 2.29001C50.1602 2.29001 53.4702 5.60001 53.4702 9.69001C53.4702 13.78 50.1602 17.08 46.0702 17.08C41.9802 17.08 38.6702 13.77 38.6702 9.69001C38.6702 5.61001 41.9902 2.29001 46.0702 2.29001Z" fill="#282259"/>
<path d="M138.84 75.4502C136.46 75.4502 134.479 77.3802 134.479 79.8102C134.479 82.2402 136.43 84.1602 138.84 84.1602C141.25 84.1602 143.2 82.2002 143.2 79.8102C143.2 77.4202 141.24 75.4502 138.84 75.4502ZM138.84 83.4402C136.84 83.4402 135.21 81.8102 135.21 79.8102C135.21 77.8102 136.83 76.1802 138.84 76.1802C140.85 76.1802 142.479 77.7902 142.479 79.8102C142.479 81.8302 140.85 83.4402 138.84 83.4402Z" fill="#282259"/>
<path d="M139.209 80.1198V80.0998C140.179 80.0398 140.539 79.3098 140.539 78.7898C140.539 78.4098 140.369 78.0798 140.099 77.8598C139.709 77.5298 139.099 77.5298 138.559 77.5298H136.939V82.2098H137.699V80.2298H138.149C138.749 80.2298 138.979 80.4698 139.549 81.4798L139.959 82.2198H140.879L140.309 81.3198C139.729 80.3798 139.499 80.2398 139.219 80.1398M138.619 79.5798H137.699V78.1698H138.569C139.019 78.1698 139.759 78.1698 139.759 78.8698C139.759 79.5698 138.989 79.5798 138.629 79.5798" fill="#282259"/>
</svg>
