<svg width="189" height="50" viewBox="0 0 189 50" fill="none" xmlns="http://www.w3.org/2000/svg">
<path d="M66.9002 16.3899C62.4002 14.6899 58.1802 13.8699 53.4702 13.8699C43.1802 13.8699 35.9502 20.7499 35.9502 31.5899C35.9502 42.4299 42.2202 49.3099 53.3302 49.3099C57.8302 49.3099 62.1902 48.5599 66.8902 46.5799C67.9802 46.0999 68.5902 45.3499 68.5902 43.8499V19.1099C68.5902 17.5399 67.9802 16.7899 66.8902 16.3799L66.9002 16.3899ZM59.7402 38.6699C59.7402 39.6899 59.1902 40.1699 58.0402 40.5099C56.5402 40.9199 55.2502 41.1199 53.4102 41.1199C49.0502 41.1199 44.9602 38.5299 44.9602 31.5799C44.9602 24.6299 49.0502 22.0399 53.4102 22.0399C55.2502 22.0399 56.5502 22.2399 58.0402 22.6499C59.2002 22.9899 59.7402 23.4699 59.7402 24.4899V38.6699Z" fill="#282259"/>
<path d="M9.50977 25.2499C9.50977 23.1599 11.6197 21.8399 15.2397 21.8399C18.8597 21.8399 22.0598 22.9999 25.5298 24.9099C25.8698 25.1099 26.2097 25.1799 26.5497 25.1799C27.1597 25.1799 27.7497 24.7899 28.0497 24.2299L30.1597 19.7299C30.3597 19.3099 30.4297 18.9099 30.4297 18.5699C30.4297 18.0199 30.1497 17.5199 29.6097 17.2099C25.3797 14.7599 20.3398 13.5999 15.4998 13.5999C6.36976 13.5999 0.509766 18.5099 0.509766 25.8699C0.509766 40.3199 22.4598 34.7299 22.4598 44.7499C22.4598 45.7699 22.3197 46.3899 22.0497 47.2699C22.0097 47.3999 21.9797 47.5399 21.9797 47.6799C21.9797 48.2299 22.3198 48.6299 22.9998 48.6299H29.1298C30.1498 48.6299 30.5598 48.2899 30.8998 47.2699C31.3098 46.1099 31.4498 44.5399 31.4498 43.3899C31.4498 27.9199 9.49976 31.6399 9.49976 25.2599L9.50977 25.2499Z" fill="#282259"/>
<path d="M92.3199 13.8699C88.2999 13.8699 83.5999 14.5499 78.6199 16.3199C77.6699 16.6599 76.9199 17.4799 76.9199 19.0499V47.2699C76.9199 48.0899 77.47 48.6299 78.28 48.6299H84.4099C85.2299 48.6299 85.77 48.0799 85.77 47.2699V24.3699C85.77 23.3499 86.3199 22.8699 87.4099 22.5999C89.1799 22.1899 90.34 22.0499 92.45 22.0499C96.13 22.0499 99.0599 23.7499 99.0599 27.8399V47.2599C99.0599 48.0799 99.6099 48.6199 100.42 48.6199H106.55C107.37 48.6199 107.91 48.0699 107.91 47.2599V26.6799C107.91 18.3599 102.8 13.8699 92.2999 13.8699H92.3199Z" fill="#282259"/>
<path d="M131.38 13.8699C121.16 13.8699 114.479 21.2999 114.479 31.5899C114.479 41.8799 121.159 49.3099 131.859 49.3099C142.559 49.3099 148.76 41.8799 148.76 31.5899C148.76 21.2999 142.08 13.8699 131.38 13.8699ZM131.849 41.1299C126.809 41.1299 123.469 37.8599 123.469 31.5899C123.469 25.3199 126.81 22.0499 131.38 22.0499C136.42 22.0499 139.76 25.3199 139.76 31.5899C139.76 37.8599 136.419 41.1299 131.849 41.1299Z" fill="#282259"/>
<path d="M186.72 14.5498H180.58C179.829 14.5498 179.22 15.1587 179.22 15.9098V47.2698C179.22 48.0209 179.829 48.6298 180.58 48.6298H186.72C187.471 48.6298 188.08 48.0209 188.08 47.2698V15.9098C188.08 15.1587 187.471 14.5498 186.72 14.5498Z" fill="#282259"/>
<path d="M173.63 1.38991C172.27 1.04991 170.79 0.909912 169.34 0.909912C160.89 0.909912 155.37 5.40991 155.37 15.2199V47.2499C155.37 48.0699 155.92 48.6099 156.73 48.6099H162.8C163.62 48.6099 164.16 48.0599 164.16 47.2499V22.0299H172.82C173.71 22.0299 174.18 21.4799 174.18 20.6699V15.9699C174.18 15.0799 173.7 14.5399 172.82 14.5399H164.16V13.7899C164.16 10.0399 165.8 8.12991 169.54 8.12991C170.9 8.12991 172.37 8.46991 172.88 8.46991C173.7 8.46991 174.04 7.98991 174.17 7.17991L174.85 3.63991C174.91 3.32991 174.99 3.04991 174.99 2.74991C174.99 1.98991 174.58 1.58991 173.63 1.38991Z" fill="#282259"/>
<path d="M4.63977 39.8999C1.84977 39.8999 0.00976562 41.6699 0.00976562 44.5999C0.00976562 47.4599 1.84973 49.2999 4.84973 49.2999C7.63973 49.2999 9.47974 47.4599 9.47974 44.5999C9.47974 41.6699 7.63977 39.8999 4.63977 39.8999Z" fill="#282259"/>
<path d="M183.55 0.929932C180.76 0.929932 178.92 2.69993 178.92 5.62993C178.92 8.55993 180.76 10.3299 183.76 10.3299C186.55 10.3299 188.39 8.48993 188.39 5.62993C188.39 2.69993 186.55 0.929932 183.55 0.929932Z" fill="#282259"/>
</svg>
