<svg width="158" height="61" viewBox="0 0 158 61" fill="none" xmlns="http://www.w3.org/2000/svg">
<path d="M98.7 52.8901H82.07C80.05 52.8901 78.5 51.2701 78.5 49.2601V11.6401C78.5 9.62007 80.05 8.07007 82.07 8.07007H97.62C106.17 8.07007 111.28 13.0401 111.28 19.5001C111.28 25.9601 107.29 28.3601 105.9 28.8601C108.06 29.4001 113.91 31.8801 113.91 40.0501C113.91 47.0501 108.26 52.8901 98.7 52.8901ZM97.31 14.6601H85.71V25.9701H97.31C101.91 25.9701 104.08 23.4101 104.08 20.3101C104.08 17.2101 102.05 14.6601 97.31 14.6601ZM98.96 32.4901H85.71V46.2201H98.96C104.27 46.2201 106.71 42.7901 106.71 39.3501C106.71 35.9101 104.31 32.4801 98.96 32.4801M134.63 52.8901H123.59C121.57 52.8901 119.96 51.3701 119.96 49.2601V11.6401C119.96 9.62007 121.58 8.07007 123.59 8.07007H134.63C149.59 8.07007 157.85 18.1001 157.85 30.4801C157.85 42.8601 149.5 52.8901 134.63 52.8901ZM134.17 14.6601H127.23V46.2901H134.17C144.75 46.2901 150.65 40.0301 150.65 30.4801C150.65 20.9301 144.85 14.6701 134.17 14.6701" fill="#282259"/>
<path d="M18.02 28.79C17.92 28.82 0.999969 34.6 0.999969 34.6C0.809969 33.22 0.709961 31.81 0.709961 30.37C0.709961 25.96 1.64995 21.78 3.35995 18.01C3.35995 18.01 18.01 28.34 18.1 28.41C18.19 28.47 18.23 28.53 18.23 28.6C18.23 28.72 18.14 28.77 18.04 28.8M30.72 0.239981C24.79 0.259981 19.26 1.99998 14.6 4.97998C14.6 4.97998 26.57 17.65 26.97 18.07C27.05 18.16 27.11 18.21 27.19 18.21C27.27 18.21 27.35 18.16 27.37 18.02C27.53 17.19 30.72 0.239981 30.72 0.239981ZM21.23 21.97C21.23 21.97 21.23 21.89 21.2 21.82C21.17 21.74 14.42 5.09998 14.42 5.09998C9.65998 8.19998 5.82997 12.6 3.43997 17.8C3.43997 17.8 20.79 22.09 20.92 22.12C20.97 22.13 21.02 22.14 21.07 22.14C21.16 22.14 21.24 22.07 21.24 21.97M43.64 28.79C43.74 28.82 60.66 34.6 60.66 34.6C60.85 33.22 60.95 31.81 60.95 30.37C60.95 25.96 60 21.78 58.3 18.01C58.3 18.01 43.65 28.34 43.56 28.41C43.47 28.47 43.43 28.53 43.43 28.6C43.43 28.72 43.52 28.77 43.63 28.8M34.28 18.01C34.31 18.15 34.39 18.2 34.46 18.2C34.53 18.2 34.59 18.15 34.68 18.06C35.08 17.64 47.05 4.96998 47.05 4.96998C42.39 1.98998 36.87 0.24998 30.93 0.22998C30.93 0.22998 34.12 17.18 34.27 18.01M40.59 22.14C40.59 22.14 40.69 22.14 40.74 22.12C40.87 22.09 58.21 17.8 58.21 17.8C55.82 12.6 51.99 8.19998 47.23 5.09998C47.23 5.09998 40.48 21.74 40.45 21.82C40.42 21.89 40.41 21.93 40.41 21.97C40.41 22.07 40.49 22.14 40.58 22.14" fill="#282259"/>
<path d="M30.83 60.4998C45.93 60.4998 58.43 49.3898 60.62 34.8998L49.39 36.4698C49.22 36.4898 49.15 36.5898 49.1 36.7098C46.87 43.1998 41.26 48.1298 34.31 49.3998C36.96 48.1098 38.79 45.3898 38.79 42.2398C38.79 37.8498 35.23 34.2798 30.83 34.2798C26.43 34.2798 22.87 37.8398 22.87 42.2398C22.87 45.3898 24.7 48.1098 27.35 49.3998C20.39 48.1398 14.78 43.1998 12.56 36.7098C12.52 36.5898 12.45 36.4998 12.27 36.4698L1.04004 34.8998C3.23004 49.3898 15.73 60.4998 30.83 60.4998Z" fill="#282259"/>
</svg>
