<svg width="182" height="47" viewBox="0 0 182 47" fill="none" xmlns="http://www.w3.org/2000/svg">
<path d="M0.120361 3.5C6.57036 3.57 13.0203 3.5 19.4603 3.76C22.6103 3.88 25.5204 5.03 27.6704 7.56C29.8204 10.09 29.8504 13.43 27.4204 15.73C25.9604 17.11 24.1104 18.09 22.4104 19.26C22.3004 19.07 22.3204 19.16 22.3704 19.18C25.0504 20.33 26.8903 22.29 28.2003 24.86C29.3103 27.04 30.6104 29.13 31.8104 31.27C32.4404 32.39 33.1404 33.4 34.5404 33.59V35.3H33.3804C30.1704 35.3 26.9604 35.26 23.7504 35.33C22.8504 35.35 22.4603 35.02 22.0903 34.25C20.5103 30.91 18.9003 27.58 17.2203 24.29C16.6603 23.19 15.9504 22.14 15.1404 21.22C14.6604 20.68 13.8304 20.44 13.0004 19.97C12.9304 20.58 12.8804 20.81 12.8804 21.05C12.8804 24.15 12.8604 27.24 12.8804 30.34C12.9104 33.11 12.9904 33.19 15.6304 33.73V35.11C15.3404 35.15 15.1004 35.2 14.8604 35.2C10.1204 35.2 5.38037 35.2 0.630371 35.2C0.460371 35.2 0.280352 35.15 0.110352 35.12C0.110352 34.62 0.110352 34.12 0.110352 33.62C2.38035 33.5 2.87037 33.07 2.88037 30.92C2.90037 23.18 2.90037 15.44 2.88037 7.7C2.88037 5.62 2.25035 5.11 0.110352 5.21V3.5H0.120361ZM12.9204 18.47C15.4204 18.45 17.3903 17.52 18.7103 15.53C20.0003 13.58 19.7804 9.25 18.3604 7.49C17.0004 5.81 15.1704 5.01 12.9204 5.07V18.47Z" fill="#282259"/>
<path d="M181.81 0.0800781V11.7201H180.3C179.7 5.71008 176.46 2.26008 170.25 1.61008V0.0800781H181.81Z" fill="#282259"/>
<path d="M89.9504 31.4701C88.0404 34.4501 85.4605 35.7301 82.0605 35.1301C79.6805 34.7101 78.1604 33.2201 77.7204 31.0001C77.2604 28.6901 78.0204 26.5101 80.0804 25.4001C82.8904 23.8801 85.8104 22.5501 88.7404 21.2801C89.7104 20.8601 89.9304 20.3601 89.7404 19.4401C89.3604 17.5701 88.5204 16.0601 86.5304 15.5801C84.3104 15.0501 82.3404 15.5101 80.8404 17.3201C80.2804 18.0001 79.8605 18.7901 79.3105 19.6201C79.0005 19.5101 78.6405 19.3801 78.3005 19.2501C79.0405 15.2801 83.4705 11.4401 87.6805 11.2201C89.2305 11.1401 90.8404 11.1801 92.3504 11.5101C96.4704 12.4201 99.1203 15.8001 99.1903 20.0601C99.2403 23.3301 99.2004 26.6101 99.2104 29.8801C99.2104 30.3801 99.2104 30.8801 99.2504 31.3701C99.4004 33.3201 99.8803 33.6901 101.82 33.4601C102.58 33.3701 103 33.0201 103.07 32.2701C103.13 31.5601 103.2 30.8501 103.2 30.1401C103.2 22.9101 103.2 15.6901 103.2 8.46014C103.2 8.35014 103.2 8.25014 103.2 8.14014C103.17 5.57014 103.05 5.42014 100.53 4.92014V3.39014H112.5C112.52 3.81014 112.57 4.22014 112.57 4.63014C112.57 12.8501 112.57 21.0801 112.57 29.3001C112.57 30.1201 112.61 30.9401 112.68 31.7501C112.81 33.2901 113.05 33.5201 114.57 33.5901C114.81 33.6001 115.05 33.6301 115.34 33.6501V35.0401C114.99 35.0601 114.64 35.0901 114.3 35.0901C108.27 35.0901 102.25 35.1001 96.2204 35.0901C93.5204 35.0901 91.2304 34.2701 89.9604 31.4401L89.9504 31.4701ZM89.6204 22.7401C86.7604 23.5201 85.4404 25.3901 85.7504 28.1001C85.8804 29.2301 86.3204 30.2401 87.3504 30.8501C88.3604 31.4501 89.5904 31.0701 89.6104 30.1701C89.6404 27.7301 89.6204 25.2801 89.6204 22.7401Z" fill="#282259"/>
<path d="M118.181 46.8201C118.001 45.9501 118.061 45.4601 118.851 44.8901C119.631 44.3201 120.151 43.2601 120.541 42.3201C120.841 41.6001 120.811 40.7101 120.811 39.9001C120.831 29.4101 120.811 18.9101 120.811 8.42014C120.811 8.28014 120.811 8.14015 120.811 7.99015C120.761 5.63015 120.491 5.33014 118.101 4.98014V3.40015H133.481V4.92014C133.071 4.98014 132.681 5.02015 132.301 5.08015C131.451 5.23015 130.981 5.75015 130.901 6.59015C130.831 7.37015 130.781 8.15015 130.781 8.93015C130.781 17.4301 130.731 25.9301 130.801 34.4301C130.831 38.3201 129.771 41.6501 126.651 44.1501C124.181 46.1301 121.291 46.7801 118.181 46.8101V46.8201Z" fill="#282259"/>
<path d="M32.3401 23.4C32.3701 16.66 38.09 11.21 45.07 11.28C52.12 11.34 57.7101 16.78 57.6701 23.55C57.6401 30.26 51.9001 35.66 44.8701 35.6C37.8501 35.54 32.3001 30.15 32.3401 23.41V23.4ZM48.5301 23.45C48.4701 23.44 48.4101 23.42 48.3501 23.41C48.2501 21.78 48.3001 20.12 48.0001 18.52C47.6801 16.84 47.2101 15.13 46.4701 13.6C45.8001 12.24 44.2701 12.3 43.4801 13.61C42.9401 14.5 42.52 15.54 42.33 16.56C41.5 21.08 41.48 25.62 42.33 30.13C42.53 31.18 43.0101 32.23 43.6001 33.14C44.3701 34.34 45.6801 34.3 46.5101 33.14C46.9301 32.55 47.3101 31.83 47.4301 31.13C47.8601 28.58 48.1701 26.01 48.5301 23.45Z" fill="#282259"/>
<path d="M158.13 13.4702H155.36C155.05 12.4202 155.18 11.8402 156.26 11.3402C160.09 9.59017 163.35 7.01017 166.34 4.06017C166.61 3.79017 166.95 3.59017 167.52 3.17017V11.5002C169.57 11.3202 171.46 11.1502 173.42 10.9802V13.4702H167.54V15.1802C167.54 19.0602 167.54 22.9402 167.54 26.8202C167.54 27.5302 167.6 28.2502 167.73 28.9402C167.95 30.0702 168.6 30.9202 169.73 31.2202C170.86 31.5202 171.93 31.3402 172.76 30.4102C173.02 30.1202 173.3 29.8402 173.63 29.4902C173.93 29.7302 174.23 29.9502 174.6 30.2402C172.9 33.2702 170.46 35.2002 167.02 35.4802C165.55 35.6002 163.92 35.4002 162.54 34.8702C159.66 33.7602 158.06 31.5002 158.04 28.3702C158.01 23.9202 158.09 19.4802 158.12 15.0302C158.12 14.5702 158.12 14.1102 158.12 13.4702H158.13Z" fill="#282259"/>
<path d="M155.291 20.8H142.231C141.631 24.25 144.451 29.28 147.601 30.49C149.821 31.35 152.451 30.73 154.071 28.97C154.281 28.74 154.491 28.49 154.751 28.2C155.081 28.43 155.391 28.64 155.771 28.89C153.651 32.72 150.581 35.03 146.201 35.41C140.751 35.89 135.411 32.55 133.811 27.69C131.151 19.6 137.441 10.98 145.851 11.19C150.981 11.32 155.321 15.66 155.291 20.79V20.8ZM148.391 19.23C148.601 17.48 148.011 15.07 147.121 13.93C146.011 12.53 144.191 12.49 143.251 13.94C142.211 15.55 142.121 17.37 142.241 19.22H148.391V19.23Z" fill="#282259"/>
<path d="M54.5504 13.3401V11.9001H68.9304V13.2401C66.7504 13.6301 66.8004 13.8801 67.6604 15.7501C68.8804 18.4201 70.1804 21.0601 71.5604 23.9501C72.9004 21.0301 74.2103 18.3501 75.3403 15.6001C75.9103 14.2001 75.4604 13.6801 73.9304 13.4701C73.4104 13.4001 72.8804 13.3401 72.3004 13.2801V11.8801H80.3704V13.3101C78.2604 13.2001 77.6804 14.8601 76.9304 16.3501C73.0104 24.2101 69.1304 32.0901 65.1404 39.9101C64.0804 41.9901 62.6704 43.9001 61.4304 45.8901C60.9904 46.5901 60.4503 46.8401 59.5703 46.7401C57.4903 46.4901 55.3904 46.4001 52.8604 46.2101C53.2704 45.6701 53.4504 45.1601 53.7404 45.0801C58.3004 43.8601 61.5304 40.9101 64.1804 37.1901C64.9404 36.1201 66.0903 35.0301 66.2003 33.8701C66.3103 32.7501 65.3604 31.4901 64.7804 30.3401C62.3304 25.4401 59.8604 20.5601 57.3904 15.6701C56.7904 14.4801 56.2104 13.2501 54.5604 13.3201L54.5504 13.3401Z" fill="#282259"/>
</svg>
