<svg width="96" height="97" viewBox="0 0 96 97" fill="none" xmlns="http://www.w3.org/2000/svg">
<path fill-rule="evenodd" clip-rule="evenodd" d="M95.8895 48.4499C95.8895 22.0899 74.4295 0.639893 48.0795 0.639893C21.7295 0.639893 0.269531 22.0899 0.269531 48.4499C0.269531 74.8099 21.7195 96.2599 48.0795 96.2599C74.4395 96.2599 95.8895 74.9099 95.8895 48.4499ZM93.6095 48.4499C93.6095 73.6099 73.2495 93.9799 48.0795 93.9799C22.9095 93.9799 2.51953 73.6199 2.51953 48.4499C2.51953 23.2799 22.9095 2.87989 48.0795 2.87989C73.2495 2.87989 93.6095 23.4199 93.6095 48.4499ZM90.7095 48.4499C90.7095 33.3299 83.0195 17.6999 66.4695 12.6899C63.0295 11.6299 60.1296 10.9499 56.7896 10.9499C49.1296 10.9499 48.8595 15.3099 45.2795 15.3099C43.2995 15.3099 41.9795 13.8799 41.9795 12.1399C41.9795 9.10989 45.5495 6.71989 51.2395 6.71989C56.5495 6.71989 60.6396 8.04989 61.4196 8.42989L61.5596 8.05989C60.1196 7.50989 55.0895 5.77989 48.0795 5.77989C32.8195 5.77989 17.3295 13.6099 12.3195 30.0299C11.2695 33.4599 10.5895 36.3899 10.5895 39.6999C10.5895 47.3999 14.9495 47.7699 14.9495 51.3499C14.9495 53.2199 13.5296 54.5499 11.7896 54.5499C8.75955 54.5499 6.37952 51.0799 6.37952 45.2599C6.37952 39.9799 7.70945 35.8599 7.93945 35.0699L7.56946 34.9399C7.15946 36.5399 5.42957 41.4399 5.42957 48.4599C5.42957 63.8199 13.2596 79.3099 29.6696 84.3499C33.1096 85.3999 36.0395 86.0499 39.3395 86.0499C47.0295 86.0499 47.2795 81.5599 50.8495 81.5599C52.7195 81.5599 54.1895 83.0199 54.1895 84.8599C54.1895 87.7899 50.7195 90.1699 44.8895 90.1699C39.6195 90.1699 35.3495 88.8399 34.7095 88.5699L34.5795 88.9799C36.0495 89.6199 41.0795 91.0899 48.0995 91.0899C63.3195 91.0899 78.9495 83.3899 83.8595 66.8399C84.9095 63.5399 85.5596 60.5099 85.5596 57.3099C85.5596 49.5099 81.2095 49.2399 81.2095 45.6599C81.2095 43.6799 82.5295 42.3599 84.3695 42.3599C87.4395 42.3599 89.8195 45.9399 89.8195 51.7499C89.8195 56.9299 88.4895 61.0099 88.2195 61.9399L88.6295 62.0699C89.1395 60.5099 90.7295 55.5999 90.7295 48.4499M74.6696 61.1499C74.6696 67.1099 69.5295 73.3399 61.9695 73.3399C52.8595 73.3399 48.2195 65.6399 48.2195 58.7599C48.2195 49.0899 54.8295 44.9999 57.6195 43.5399C57.0795 43.1299 56.6696 42.6199 56.2896 41.9299C53.0896 44.1799 50.1895 46.1899 44.0995 49.6299C43.8295 53.8599 43.4595 58.4899 42.3595 61.6799C40.1195 68.4199 35.4795 73.3299 29.3795 73.3299C24.2395 73.3299 21.7195 69.6199 21.7195 65.6299C21.7195 62.7399 23.4195 59.0199 26.4895 56.2299C30.3495 52.7899 34.5695 50.6799 40.3895 47.6099C40.5295 46.8299 40.6596 46.0399 40.7996 45.0999C39.3396 46.4199 37.2295 46.9699 35.4895 46.9699C32.7295 46.9699 30.4495 44.5899 29.9395 42.0699C26.2295 41.7999 23.4396 39.1399 23.2996 34.9199C23.2996 31.8899 24.4895 29.2299 26.4995 29.2299C27.2895 29.2299 27.5596 29.8799 27.5596 30.4199C27.5596 30.9299 26.8795 32.6699 26.8795 34.3699C26.8795 36.0699 27.6995 38.3599 29.8195 38.3599C29.8195 31.4899 34.8496 22.5999 40.8096 22.5999C44.7596 22.5999 45.3096 25.5299 45.3096 26.8499C45.3096 33.0799 39.0796 39.9599 34.0396 41.6599C34.1696 42.2099 34.7095 43.6699 36.3195 43.6699C38.2895 43.6699 40.6695 41.8099 41.8695 40.3399C42.3795 37.5799 44.3895 33.5999 47.0396 33.5999C48.1096 33.5999 48.6195 34.3699 48.6195 35.3299C48.6195 37.2999 46.5095 39.8199 44.8995 41.5299C44.6695 42.8599 44.5295 44.3199 44.5295 45.5199C49.1595 42.7299 51.5395 41.2999 54.9795 38.7799C54.7095 37.8599 54.7095 36.7699 54.7095 35.7099C54.7095 29.5099 58.8395 22.5999 64.2395 22.5999C67.3095 22.5999 68.8695 24.7399 68.8695 27.1299C68.8695 31.6199 65.0295 35.5699 59.6095 39.6899C60.0195 40.7399 60.6595 41.6599 61.7195 42.2099C61.8595 41.9299 63.5895 41.6599 65.0195 41.6599C66.6195 41.6599 68.8595 42.0699 68.8595 43.6699C68.8595 45.5099 66.3395 45.9199 64.3695 45.9199C63.3195 46.0499 61.5795 45.6399 61.5795 45.6399C58.6795 46.4199 53.0995 49.7599 53.0995 58.2099C53.0995 63.9299 56.6795 69.2099 62.2595 69.2099C66.4795 69.2099 69.9196 66.0399 70.0596 61.1399C70.0596 57.9699 68.7295 54.6299 65.5695 54.6299C63.9595 54.6299 62.5396 55.8299 62.5396 57.5599C62.3895 60.2199 64.3695 60.4899 64.3695 62.1999C64.3695 63.3899 63.4496 63.9299 62.5396 63.9299C59.8796 63.9299 57.8595 61.2699 57.8595 57.9699C57.8595 53.9899 61.3395 50.6899 65.8395 50.6899C71.6595 50.6899 74.6895 55.7299 74.6895 61.1399M64.8995 27.7899C64.8995 27.1399 64.7695 26.3199 63.9395 26.3199C61.9695 26.3199 58.8096 30.5799 58.8096 35.9899C62.7496 32.5499 64.8895 29.6199 64.8895 27.7899M41.4395 27.2299C41.4395 26.5799 41.0695 26.3099 40.5195 26.3099C37.7195 26.3099 33.7695 33.5999 33.7695 37.9499C38.1295 35.5699 41.4296 30.1499 41.4296 27.2199M39.8695 52.0199C33.9095 54.9099 26.3495 60.0899 26.3495 65.7799C26.3495 67.8899 27.4095 69.2199 29.3795 69.2199C35.2095 69.2199 38.7895 59.9599 39.8695 52.0199Z" fill="#282259"/>
</svg>
