<svg width="850" height="852" viewBox="0 0 850 852" fill="none" xmlns="http://www.w3.org/2000/svg">
<path d="M424.91 571.843C505.494 571.843 570.82 506.517 570.82 425.933C570.82 345.35 505.494 280.023 424.91 280.023C344.326 280.023 279 345.35 279 425.933C279 506.517 344.326 571.843 424.91 571.843Z" fill="#C2D300"/>
<path d="M363.995 450.374L336.518 455.12L334.819 445.282C333.843 439.632 335.417 435.917 340.413 435.054L340.567 435.028C343.295 434.557 345.66 435.415 347.158 438.361C347.322 434.494 349.053 432.375 352.704 431.744L352.858 431.718C357.969 430.835 361.128 433.772 362.17 439.805L363.995 450.374ZM359.481 446.008L358.625 441.051C358.034 437.631 356.225 436.32 353.381 436.812L353.228 436.838C350.384 437.329 349.234 439.151 349.884 442.917L350.681 447.528L359.481 446.008ZM347.222 448.126L346.492 443.898C345.908 440.517 344.453 439.422 341.647 439.907L341.494 439.934C338.88 440.385 338.025 442.076 338.589 445.343L339.306 449.493L347.222 448.126Z" fill="#4F31F1"/>
<path d="M359.115 425.566L331.88 419.588L333.886 410.446C335.199 404.465 338.557 400.81 344.118 402.031L344.27 402.065C348.537 403.001 350.123 406.144 350.255 409.727L363.706 404.654L362.502 410.139L349.93 414.846L349.219 418.084L360.227 420.5L359.115 425.566ZM345.6 417.289L346.495 413.213C347.239 409.823 346.184 407.715 343.289 407.08L343.137 407.046C340.013 406.361 338.52 408.069 337.81 411.307L336.915 415.383L345.6 417.289Z" fill="#4F31F1"/>
<path d="M362.329 402.487L345.078 378.68L349.027 373.161L377.059 381.905L373.927 386.281L367.019 384.072L360.823 392.73L365.166 398.523L362.329 402.487ZM350.327 378.648L358.451 389.545L363.24 382.853L350.327 378.648Z" fill="#4F31F1"/>
<path d="M378.486 377.99L364.548 353.839L369.919 350.74L390.164 362.335L380.086 344.872L384.173 342.514L398.111 366.664L393.449 369.354L371.891 357.121L382.573 375.631L378.486 377.99Z" fill="#4F31F1"/>
<path d="M408.174 358.243L411.203 357.964C417.417 357.392 420.078 353.544 419.513 347.408L419.484 347.098C418.934 341.117 415.883 337.756 409.359 338.356L406.368 338.632L408.174 358.243ZM403.384 362.796L400.828 335.03L409.255 334.254C418.925 333.363 424.132 338.445 424.875 346.523L424.907 346.872C425.651 354.95 421.481 361.13 411.734 362.028L403.384 362.796Z" fill="#4F31F1"/>
<path d="M453.318 366.219L469.865 343.775L483.896 354.12L481.466 357.416L471.61 350.149L467.074 356.302L474.984 362.134L472.67 365.273L464.759 359.441L459.923 366.001L470.313 373.661L467.883 376.957L453.318 366.219Z" fill="#4F31F1"/>
<path d="M470.973 377.091L487.864 377.193L495.018 362.957L498.094 367.932L492.786 378.184L504.309 377.983L507.119 382.527L491.347 382.604L483.771 397.789L480.654 392.747L486.462 381.452L473.762 381.602L470.973 377.091Z" fill="#4F31F1"/>
<path d="M486.585 402.071L514.097 397.531L515.557 406.381C516.573 412.538 514.508 417.029 508.736 417.981L508.582 418.007C502.772 418.965 499.502 415.197 498.53 409.31L497.895 405.462L487.429 407.189L486.585 402.071ZM501.589 404.852L502.205 408.585C502.764 411.971 504.717 413.506 507.757 413.005L507.911 412.979C511.181 412.439 512.134 410.306 511.594 407.035L510.978 403.303L501.589 404.852Z" fill="#4F31F1"/>
<path d="M490.58 426.201L517.983 431.359L517.024 436.457L493.683 432.063L491.483 443.753L487.42 442.988L490.58 426.201Z" fill="#4F31F1"/>
<path d="M484.951 458.867C482.005 463.231 483.48 468.226 488.49 471.608L488.749 471.782C493.5 474.99 498.813 474.717 501.867 470.192C504.922 465.667 503.404 460.737 498.426 457.376L498.167 457.202C493.125 453.798 487.787 454.665 484.951 458.867ZM481.536 456.468C486.314 449.389 494.509 448.192 501.168 452.687L501.426 452.862C508.182 457.422 509.919 465.652 505.294 472.505C500.646 479.39 492.558 480.847 485.77 476.265L485.511 476.09C478.756 471.53 476.801 463.482 481.536 456.468Z" fill="#4F31F1"/>
<path d="M462.226 477.935C468.707 473.956 473.411 475.506 476.498 479.789L472.244 482.401C470.476 480.192 468.288 478.789 464.266 481.258C461.641 482.87 460.678 485.475 462.024 487.669C463.371 489.862 464.978 490.02 469.221 488.284C475.373 485.559 479.126 485.634 481.861 490.088C484.248 493.976 482.721 498.941 477.769 501.982C472.651 505.124 468.165 504.675 464.904 500.408L468.958 497.918C470.921 500.146 473.003 500.332 475.728 498.659C478.42 497.006 479.02 494.852 477.898 493.025C476.714 491.097 475.325 490.623 470.837 492.555C464.784 495.219 460.913 495.399 457.995 490.646C455.465 486.525 456.975 481.159 462.226 477.935Z" fill="#4F31F1"/>
<path d="M446.201 486.63L453.262 513.605L448.207 514.929L441.145 487.954L446.201 486.63Z" fill="#4F31F1"/>
<path d="M425.092 493.984C419.845 493.546 416.207 497.272 415.704 503.296L415.678 503.607C415.2 509.32 418.032 513.822 423.473 514.277C428.914 514.732 432.474 510.999 432.975 505.014L433.001 504.703C433.508 498.641 430.144 494.407 425.092 493.984ZM425.517 489.832C434.028 490.544 439.076 497.11 438.406 505.116L438.38 505.427C437.701 513.55 431.368 519.086 423.129 518.397C414.851 517.705 409.629 511.359 410.311 503.197L410.337 502.886C411.016 494.764 417.084 489.127 425.517 489.832Z" fill="#4F31F1"/>
<path d="M406.208 489.392L391.821 513.278L386.509 510.079L386.856 486.751L376.454 504.023L372.411 501.588L386.798 477.702L391.408 480.479L391.139 505.265L402.165 486.957L406.208 489.392Z" fill="#4F31F1"/>
<path d="M361.724 479.976C364.984 479.976 367.628 477.333 367.628 474.073C367.628 470.812 364.984 468.169 361.724 468.169C358.463 468.169 355.82 470.812 355.82 474.073C355.82 477.333 358.463 479.976 361.724 479.976Z" fill="#4F31F1"/>
<path d="M442.41 353.566C445.671 353.566 448.314 350.923 448.314 347.662C448.314 344.402 445.671 341.759 442.41 341.759C439.15 341.759 436.507 344.402 436.507 347.662C436.507 350.923 439.15 353.566 442.41 353.566Z" fill="#4F31F1"/>
</svg>
