<svg width="119" height="64" viewBox="0 0 119 64" fill="none" xmlns="http://www.w3.org/2000/svg">
<path d="M81.6797 51.2405V18.0706H65.1797V1.48047H118.94V18.0706H102.44V51.2405H81.6797Z" fill="white"/>
<path d="M72.6498 25.2201H36.8598V36.7401H46.6198C44.0698 39.5201 40.4198 41.2601 36.3598 41.2601C28.6698 41.2601 22.4398 35.0301 22.4398 27.3401C22.4398 22.7201 24.6898 18.6301 28.1598 16.1001L12.2198 0.160156C4.72976 6.82016 0.00976562 16.5301 0.00976562 27.3401C0.00976562 47.4001 16.2598 63.6702 36.3198 63.7002C36.3398 63.7002 36.3598 63.7002 36.3698 63.7002C36.6598 63.7002 36.9598 63.7002 37.2498 63.6902C37.2998 63.6902 37.3598 63.6902 37.4098 63.6902C56.9998 63.1302 72.7198 47.0801 72.7198 27.3501C72.7198 26.6401 72.6998 25.9401 72.6598 25.2401L72.6498 25.2201Z" fill="white"/>
</svg>
