<svg width="189" height="66" viewBox="0 0 189 66" fill="none" xmlns="http://www.w3.org/2000/svg">
<path d="M62.5402 23.4399C62.3502 23.4399 62.1702 23.5199 62.0402 23.6499C61.9002 23.7899 61.8301 23.9799 61.8301 24.1699C61.8301 24.3599 61.9102 24.5499 62.0402 24.6899C62.1702 24.8299 62.3502 24.9099 62.5402 24.9099C62.7302 24.9099 62.9102 24.8299 63.0502 24.6899C63.1902 24.5499 63.2601 24.3599 63.2601 24.1699C63.2601 23.9799 63.1902 23.7799 63.0502 23.6499C62.9202 23.5099 62.7402 23.4399 62.5402 23.4399Z" fill="#282259"/>
<path d="M49.49 18.45C49.03 17.93 48.47 17.67 47.84 17.57C45.68 17.47 44.68 17.58 44.02 19.38C43.99 19.46 43.95 19.55 43.95 19.55C43.95 19.55 43.95 19.23 43.95 19.08C43.95 17.31 43.95 15.53 43.95 13.75H42.23V18.68C42.23 18.68 42.23 18.95 42.23 19.23V21.22V21.48H40.7H38.38H38.13H37.9V17.43H36.24V21.37V21.46H16.17V17.46H13.89C13.08 17.53 12.3 17.76 11.92 18.43C11.42 19.29 11.56 20.59 11.54 21.44C11.54 21.47 11.54 21.49 11.54 21.52H7.32996V17.47H5.70996V23.08H13.08V22.88C13.08 22.88 13.07 19.72 13.08 19.49C13.08 19.43 13.08 19.38 13.08 19.33C13.1 18.91 13.3601 18.45 14.5601 18.53V23.03H34.64H34.65H34.36H34.49H43.91C44.12 23.03 44.11 23.03 44.11 23.03V21.25C44.21 20.37 44.65 19.31 45.96 19.1C46.1 19.08 46.25 19.07 46.4 19.07H46.5C46.5 19.07 46.73 19.07 46.96 19.07C47.68 19.08 48.09 19.22 48.13 19.57V21.47C48.13 21.47 46.64 21.47 46.53 21.48H44.87V23.04H46.54H46.4301H49.98H50.03V20.15C50.09 19.47 49.89 18.89 49.5 18.45M61.87 18.95V21.45H58.0699L58.02 21.48V17.55H57.92C57.92 17.55 57.18 17.55 56.53 17.55C53.65 17.45 53.3 18.73 53.28 20.62V23.01H55.38H55.4V21.44L55.38 21.43H54.6801V20.49C54.6801 20.25 54.75 20 54.86 19.79C55.01 19.5 55.2499 19.27 55.5699 19.18C55.9399 19.11 56.33 19.12 56.33 19.12V23.93H53.33V25.5C54.27 25.5 55.2 25.5 56.14 25.5C56.19 25.5 56.23 25.5 56.27 25.5C57.59 25.51 58.03 25.29 58.05 23.9C58.05 23.53 58.05 23.16 58.05 23.16V23.04H63.64V17.39H61.88V18.93L61.87 18.95ZM66.84 13.76H65.41V23.07H67.21V13.77H66.85L66.84 13.76ZM67.02 13.18L66.99 13.16L66.03 12.64C65.92 12.57 65.85 12.46 65.85 12.33C65.85 12.3 65.87 12.27 65.88 12.24V12.21C65.92 12.15 65.97 12.1 66.03 12.07C66.14 12.03 66.26 12.01 66.38 12.02C66.56 12.03 66.74 12.09 66.9 12.2H66.91L67 12.24L67.11 12.28V12.11L67.08 12.08C66.84 11.83 66.49 11.72 66.16 11.78C65.95 11.8 65.77 11.91 65.65 12.08C65.61 12.14 65.6 12.22 65.59 12.28C65.57 12.45 65.63 12.61 65.76 12.73C65.8 12.76 65.84 12.8 65.89 12.83L66.5601 13.17H65.54V13.44H67.04V13.18H67.02ZM36.9301 23.44C36.7401 23.44 36.5601 23.52 36.4301 23.66C36.2901 23.79 36.22 23.99 36.22 24.18C36.22 24.37 36.2901 24.56 36.4301 24.7C36.5701 24.84 36.7401 24.92 36.9301 24.92C37.1201 24.92 37.3099 24.84 37.4399 24.7C37.5799 24.56 37.65 24.38 37.65 24.18C37.65 23.98 37.5699 23.79 37.4399 23.66C37.3099 23.52 37.1301 23.44 36.9301 23.44ZM47.52 17.15C47.71 17.15 47.89 17.07 48.03 16.93C48.16 16.79 48.24 16.61 48.24 16.41C48.24 16.21 48.16 16.03 48.03 15.89C47.9 15.75 47.71 15.67 47.52 15.67C47.33 15.67 47.15 15.74 47.02 15.89C46.89 16.03 46.8101 16.21 46.8101 16.41C46.8101 16.61 46.88 16.79 47.02 16.93C47.15 17.07 47.33 17.15 47.52 17.15ZM10.36 23.44C10.17 23.44 9.97999 23.52 9.85999 23.65C9.72999 23.79 9.65002 23.98 9.65002 24.17C9.65002 24.36 9.72999 24.55 9.85999 24.69C9.98999 24.83 10.18 24.91 10.36 24.91C10.54 24.91 10.73 24.83 10.87 24.69C11 24.55 11.08 24.37 11.08 24.17C11.08 23.97 11.01 23.79 10.87 23.65C10.73 23.51 10.55 23.44 10.36 23.44ZM8.56995 23.44C8.37995 23.44 8.19995 23.52 8.06995 23.65C7.92995 23.79 7.85999 23.98 7.85999 24.17C7.85999 24.36 7.92995 24.55 8.06995 24.69C8.19995 24.83 8.37995 24.91 8.56995 24.91C8.75995 24.91 8.93996 24.83 9.07996 24.69C9.21996 24.55 9.29004 24.37 9.29004 24.17C9.29004 23.97 9.21996 23.79 9.07996 23.65C8.94996 23.51 8.76995 23.44 8.56995 23.44Z" fill="#282259"/>
<path d="M77.7599 16.7998H76.9199V22.8798H77.7499C77.7499 21.4498 77.7499 18.1498 77.7499 16.7998" fill="#282259"/>
<path d="M82.2899 23.3899C82.1299 23.3899 81.9699 23.4599 81.8499 23.5699C81.7399 23.6899 81.6699 23.8499 81.6699 24.0099C81.6699 24.1799 81.7299 24.3299 81.8499 24.4499C81.9699 24.5699 82.1299 24.6299 82.2899 24.6299C82.4499 24.6299 82.6099 24.5699 82.7299 24.4499C82.8499 24.3299 82.9099 24.1699 82.9099 24.0099C82.9099 23.8499 82.8399 23.6799 82.7299 23.5699C82.6099 23.4499 82.4599 23.3899 82.2899 23.3899Z" fill="#282259"/>
<path d="M73.0897 20.0398C72.9297 20.0398 72.7698 20.1098 72.6498 20.2198C72.5298 20.3398 72.4697 20.4998 72.4697 20.6598C72.4697 20.8298 72.5298 20.9898 72.6498 21.0998C72.7698 21.2198 72.9197 21.2898 73.0897 21.2798C73.2597 21.2798 73.4098 21.2198 73.5298 21.0998C73.6498 20.9798 73.7197 20.8198 73.7197 20.6598C73.7197 20.4998 73.6498 20.3298 73.5298 20.2198C73.4098 20.0998 73.2597 20.0398 73.0897 20.0398Z" fill="#282259"/>
<path d="M83.7694 23.4299C83.6094 23.4299 83.4493 23.4899 83.3293 23.6199C83.2093 23.7399 83.1494 23.8899 83.1494 24.0599C83.1494 24.2299 83.2093 24.3899 83.3293 24.4999C83.4493 24.6199 83.5994 24.6799 83.7694 24.6799C83.9394 24.6799 84.0894 24.6099 84.2094 24.4999C84.3294 24.3799 84.3894 24.2199 84.3894 24.0599C84.3894 23.8999 84.3194 23.7399 84.2094 23.6199C84.0894 23.4999 83.9394 23.4299 83.7694 23.4299Z" fill="#282259"/>
<path d="M75.7598 22.6699C75.8598 22.2999 75.7898 22.5599 75.7598 22.6499C75.7598 22.6499 75.7598 22.6699 75.7598 22.6799" fill="#282259"/>
<path d="M75.88 21.24H75C75.06 22.66 74.53 23.81 73.23 23.8C71.93 23.8 71.33 22.34 71.35 21.25H70.5C70.44 21.66 70.52 22.3 70.63 22.67C71.4 25.32 75.04 25.31 75.76 22.67C75.76 22.67 75.76 22.67 75.76 22.64C75.86 22.27 75.94 21.65 75.88 21.23" fill="#282259"/>
<path d="M95.11 21.9998H92.24C91.87 21.9998 91.64 21.9098 91.64 21.6398V21.0598C91.64 20.7698 92.0199 20.7098 92.5699 20.5698C93.4899 20.3498 94.62 20.1098 95.21 20.0098C96.04 19.8798 96.44 21.9898 95.11 21.9898M97.0601 20.8298C97.0101 20.3898 96.82 19.9898 96.52 19.6698C96.23 19.3598 95.83 19.1498 95.41 19.0798C95.19 19.0498 94.97 19.0498 94.75 19.0698C94.68 19.0698 94.6201 19.0898 94.5601 19.1098C94.4501 19.1298 94.33 19.1598 94.22 19.1898C93.6 19.3498 92.97 19.5198 92.35 19.6898L91.83 19.8398C91.83 19.8398 91.79 19.8398 91.77 19.8398C91.71 19.8398 91.65 19.8098 91.61 19.7698C91.56 19.7198 91.54 19.6598 91.54 19.5998V16.8098H90.71L90.76 21.6298V21.6698C90.76 21.7498 90.72 21.8198 90.66 21.8798C90.61 21.9298 90.53 21.9698 90.46 21.9798H84.08C83.98 21.9798 83.88 21.9798 83.78 21.9398C83.69 21.8898 83.63 21.7898 83.63 21.6898L83.58 21.2898V19.8498H82.7C82.7 19.9498 82.7001 21.2998 82.6801 21.4098C82.6801 21.5298 82.63 21.8498 82.54 21.9298C82.48 21.9798 82.4 22.0198 82.33 22.0298H80.36C80.14 22.0298 79.96 21.8898 79.97 21.6698C79.97 21.6598 79.99 19.9398 79.97 19.8498H79.13L79.11 23.3898C79.11 23.5398 79.0499 23.6898 78.9399 23.7998C78.8299 23.9098 78.69 23.9698 78.54 23.9698H77.5V24.8098H78.64C78.79 24.8098 78.93 24.7798 79.08 24.7398C79.16 24.7198 79.2401 24.6898 79.3101 24.6598C79.3801 24.6298 79.45 24.5898 79.51 24.5398C79.72 24.3798 79.85 24.1398 79.87 23.8698C79.89 23.6798 79.9 23.4798 79.9 23.2898V23.0898C79.9 23.0898 79.9 22.9998 79.9 22.9498H82.24H82.25C82.44 22.9498 82.62 22.8798 82.76 22.7598L83.09 22.3898L83.21 22.5198L83.27 22.5698L83.36 22.6598C83.5 22.7698 83.58 22.9698 84.14 22.9398C84.31 22.9398 84.65 22.9398 84.65 22.9398H95.37H95.58H95.73C96.18 22.8198 96.5701 22.5398 96.8101 22.1498C97.0601 21.7598 97.1499 21.2898 97.0699 20.8298" fill="#282259"/>
<path d="M10.6698 52.7798L8.69971 57.7998H12.6298L10.6798 52.7798H10.6698ZM0.769775 65.5398L8.64978 46.5698H12.6698L20.5498 65.5398H15.6598L14.0897 61.4698H7.24976L5.65979 65.5398H0.759766H0.769775Z" fill="#282259"/>
<path d="M26.1597 55.3698V62.1498H29.2196C30.7196 62.1498 31.9696 61.1998 31.9696 58.7598C31.9696 56.3198 30.7196 55.3698 29.2196 55.3698H26.1597ZM22.1396 65.5398V46.5698H26.1597V51.9798H29.7797C33.7797 51.9798 36.1896 54.3698 36.1896 58.7598C36.1896 63.1498 33.7797 65.5398 29.7797 65.5398H22.1396Z" fill="#282259"/>
<path d="M42.4194 60.7397C42.4194 61.0797 42.5194 61.5197 42.8594 61.8097C43.1494 62.0497 43.4593 62.1497 43.8193 62.1497H46.8994V51.9797H50.8994V65.5297H43.1494C41.6594 65.5297 40.5194 65.2897 39.5294 64.2097C38.7394 63.3597 38.3994 62.5797 38.3994 61.4097V51.9697H42.4194V60.7197V60.7397Z" fill="#282259"/>
<path d="M61.5796 61.4698H65.5597C68.2297 61.4698 69.4396 59.4698 69.4396 56.0498C69.4396 52.6298 68.2297 50.6398 65.5597 50.6398H61.5796V61.4698ZM57.0996 46.5698H66.8596C71.8696 46.5698 74.4496 49.9598 74.4496 56.0498C74.4496 62.1398 71.8696 65.5398 66.8596 65.5398H57.0996V46.5698Z" fill="#282259"/>
<path d="M80.03 55.3698V65.5398H76V46.5698H80.03V51.9798H84.17C85.66 51.9798 86.8 52.2498 87.79 53.3198C88.58 54.1698 88.9301 54.9498 88.9301 56.1298V65.5398H84.9V56.8098C84.9 56.4698 84.81 56.0298 84.47 55.7098C84.18 55.4698 83.86 55.3698 83.5 55.3698H80.03Z" fill="#282259"/>
<path d="M100.699 62.3397V60.2897H96.5994C95.9794 60.2897 95.3494 60.4297 95.3494 61.3097C95.3494 62.1397 95.9494 62.3298 96.5994 62.3298H100.699V62.3397ZM92.2594 55.1797V51.9897H99.5094C101.049 51.9897 102.139 52.2098 103.319 53.2598C104.519 54.3598 104.719 55.6497 104.719 57.2897V65.5498H95.5594C92.7894 65.5498 91.3193 63.8698 91.3193 61.3997C91.3193 58.9297 92.7894 57.2598 95.5594 57.2598H100.689V57.1097C100.689 56.7997 100.689 56.2997 100.309 55.8397C99.7994 55.2097 99.2694 55.1797 98.5294 55.1797H92.2594Z" fill="#282259"/>
<path d="M111.41 55.3698V62.1498H114.47C115.97 62.1498 117.22 61.1998 117.22 58.7598C117.22 56.3198 115.97 55.3698 114.47 55.3698H111.41ZM107.38 65.5398V46.5698H111.4V51.9798H115.01C119.01 51.9798 121.42 54.3698 121.42 58.7598C121.42 63.1498 119.01 65.5398 115.01 65.5398H107.37H107.38Z" fill="#282259"/>
<path d="M127.48 65.5399H123.46V51.9799H127.48V65.5399ZM127.48 50.6399H123.46V47.3999H127.48V50.6399Z" fill="#282259"/>
<path d="M135.28 62.2401C136.3 62.2401 137.43 62.2701 138.48 62.2101C137.97 60.8801 137.45 59.5301 136.87 58.2401C136.33 59.5801 135.68 60.9101 135.28 62.2501M137.75 57.1401C138.99 59.8601 140.1 62.6901 141.32 65.4001H140.04C140.04 65.4001 139.34 63.8901 138.91 63.2301H134.83L133.98 65.4001H132.67L136.06 57.1401H137.75Z" fill="#282259"/>
<path d="M141.83 57.1499L144.83 64.1499H144.88L147.75 57.1499L149.07 57.1399L145.66 65.3999H144.07L140.42 57.1299L141.83 57.1499Z" fill="#282259"/>
<path d="M151.789 57.1401H150.529V65.4001H151.789V57.1401Z" fill="#282259"/>
<path d="M155.81 62.2401C156.82 62.2401 157.96 62.2701 159.01 62.2101C158.5 60.8801 157.98 59.5301 157.4 58.2401C156.86 59.5801 156.21 60.9101 155.81 62.2501M158.27 57.1401C159.51 59.8601 160.62 62.6901 161.85 65.4001H160.56C160.56 65.4001 159.86 63.8901 159.42 63.2301H155.35L154.49 65.4001H153.18L156.57 57.1401H158.26H158.27Z" fill="#282259"/>
<path d="M168.45 57.0601L168.44 58.0901L165.63 58.0801L165.61 65.4201H164.3V58.0501H161.33V57.0601H168.45Z" fill="#282259"/>
<path d="M171.149 57.1401H169.899V65.4001H171.149V57.1401Z" fill="#282259"/>
<path d="M173.669 61.3101C173.699 63.2201 175.019 64.5601 176.689 64.5001C178.079 64.4901 179.329 63.0101 179.329 61.3501C179.309 59.7201 178.119 58.0101 176.519 58.0101C174.749 58.0201 173.619 59.7101 173.669 61.3101ZM176.629 65.4101C174.119 65.4101 172.529 63.6501 172.419 61.2801C172.309 59.1401 174.279 57.0901 176.469 57.1001C178.759 57.1001 180.469 58.9701 180.509 61.3501C180.509 63.7401 178.679 65.4101 176.639 65.4101" fill="#282259"/>
<path d="M187.779 63.6699V57.1399H188.999L188.989 65.3999H187.599L182.989 58.8899V65.3999H181.799L181.779 57.1299H183.159L187.779 63.6699Z" fill="#282259"/>
<path d="M176.1 22.8999L107.06 5.3299L102.29 4.1699L98.5599 3.2499L98.2098 3.1199L93.4598 0.909903L93.0299 0.709902L92.3799 0.399902L98.6898 1.7199L176.9 19.0799L179.69 19.7199L180.24 19.8299C180.37 19.8599 180.49 19.8799 180.6 19.9099C181.17 19.9299 181.64 20.1199 182.11 20.4899C182.16 20.5299 182.2 20.5699 182.24 20.6199C182.63 21.0699 183.06 21.3599 183.58 21.5199C183.79 21.5399 183.96 21.6199 184.13 21.7499C184.74 22.1599 185.16 22.7799 185.35 23.5699C185.41 23.8099 185.5 24.0399 185.62 24.2599C185.67 24.3099 185.7 24.3699 185.74 24.4299C186.14 25.1199 186.18 25.9299 185.85 26.6699C185.5 27.0899 185.38 27.6299 185.5 28.1899C185.5 28.1899 185.5 28.1999 185.5 28.2099C185.21 28.8299 184.81 29.2699 184.25 29.5599C184.25 29.5499 184.27 29.5399 184.28 29.5299C184.64 29.0499 184.72 28.4199 184.48 27.8699C184.48 27.7499 184.42 27.6499 184.34 27.5599C184.16 27.3799 183.88 27.3899 183.71 27.5999C183.65 27.8199 183.45 27.9399 183.26 27.8799C183.24 27.7899 183.19 27.7199 183.12 27.6699C182.96 27.5399 182.73 27.5899 182.62 27.7799C182.58 27.7999 182.53 27.8199 182.49 27.8199C182.46 27.8199 182.44 27.7999 182.42 27.7899C182.4 27.7699 182.38 27.7599 182.36 27.7399C182.36 27.6299 182.3 27.5499 182.2 27.5099C182.15 27.4899 182.08 27.4699 182.02 27.4799C181.61 27.8199 181.26 28.0999 180.82 28.3899C180.82 28.3899 180.66 28.4399 180.65 28.4399C180.59 27.5299 180.47 26.7899 180.11 25.9799C179.86 25.4799 179.62 25.0299 179.22 24.7299C179.06 24.5999 178.9 24.4899 178.74 24.3999C178.32 24.2499 177.97 24.0999 177.57 23.9099C177.5 23.8599 177.44 23.7899 177.37 23.6999C177.11 23.4599 176.43 23.0699 176.11 22.9199" fill="#282259"/>
<path d="M170.54 27.0899L104.219 7.8899L94.5295 5.0799H94.4995L90.2795 3.0299L89.5195 2.6499L136.099 14.3899L174.79 24.3099C175.07 24.4699 175.309 24.6099 175.579 24.7899C175.729 24.9299 175.87 25.0599 176.01 25.1899C176.3 25.3599 176.539 25.4999 176.849 25.6299C177.299 25.7899 177.69 26.0499 178.06 26.4099C178.17 26.5599 178.27 26.7299 178.359 26.9199C178.809 27.6899 179.02 28.5799 178.99 29.5699C178.99 29.6899 178.95 30.1599 178.89 30.5099C178.77 31.2499 178.41 31.7099 177.92 32.2999C177.83 32.4099 177.81 32.4199 177.76 32.4199H177.729C177.779 32.3299 177.809 32.2199 177.839 32.1299C177.939 31.7799 177.9 31.4199 177.74 31.1199C177.7 30.9399 177.55 30.8199 177.39 30.8299C177.29 30.8299 177.2 30.8899 177.15 30.9699V31.0499C177.06 31.3099 176.809 31.4499 176.579 31.3499C176.549 31.3399 176.54 31.3299 176.51 31.3199C176.49 31.3199 176.479 31.3099 176.449 31.2999C176.159 31.1399 175.86 31.1299 175.56 31.2699C175.18 31.3499 174.57 31.8099 174.24 32.1199C174.21 31.5799 174.119 31.0399 173.949 30.5599C173.559 29.5299 172.92 28.8099 172.01 28.3599C171.96 28.3199 171.92 28.2899 171.87 28.2499C171.86 28.2499 171.849 28.2499 171.849 28.2399C171.699 28.0699 171.56 27.9199 171.43 27.7599C171.16 27.4699 170.89 27.2699 170.54 27.1199" fill="#282259"/>
<path d="M131.239 24.3799L126.849 22.5099L123.129 20.9199L113.149 16.3299L112.739 16.1399L90.7694 7.23994L86.5693 4.68994L87.8094 5.16994L89.4894 5.62994L111.549 11.9399L169.679 28.9199C169.949 29.0299 170.179 29.2199 170.359 29.4699C170.659 29.8399 170.959 30.1199 171.339 30.3799C172.479 30.9799 173.179 32.2299 173.169 33.6799C173.199 34.6699 172.729 35.5699 171.929 36.0199C171.919 36.0199 171.899 36.0199 171.899 36.0199C172.039 35.9099 172.139 35.7599 172.189 35.5699C172.249 35.3299 172.209 35.0799 172.089 34.8899C172.069 34.8399 172.049 34.7999 172.029 34.7599C172.009 34.7499 171.989 34.7299 171.969 34.7199C171.749 34.5499 171.439 34.6299 171.289 34.8799C170.899 35.0699 170.479 35.0699 170.069 34.8799C170.029 34.8099 169.969 34.7699 169.909 34.7299C169.759 34.6299 169.579 34.6299 169.439 34.6999C169.299 34.9299 169.079 35.0499 168.839 35.0199C168.799 35.0199 165.789 36.1099 165.539 36.1099L132.759 36.0599C132.489 36.0599 134.529 32.7599 134.529 32.7599L141.259 28.8199L136.049 26.5299L131.239 24.3699V24.3799Z" fill="#282259"/>
<path d="M138.23 35.7798H5V36.1798H138.23V35.7798Z" fill="#282259"/>
</svg>
