<svg width="212" height="34" viewBox="0 0 212 34" fill="none" xmlns="http://www.w3.org/2000/svg">
<path d="M180.82 32.8301C182.96 32.7801 184.83 31.8201 186.18 30.4801C186.2 30.4601 187.13 29.5301 188.3 28.3501C188.98 27.6701 189.89 27.2001 190.9 27.0801C191.08 27.0601 191.56 27.0501 191.62 27.0501C191.98 27.0501 192.33 27.0801 192.68 27.1201C193.79 27.2501 194.84 27.5701 195.81 28.0101L204.96 31.8101C204.96 31.8101 207.18 32.8401 209.04 32.8401H210.39C210.8 32.8401 211.12 32.4701 211.12 32.0501V28.6801C211.12 26.3501 209.75 24.1401 207.46 23.1901L205.47 22.3701C203.8 21.7501 201.98 20.5401 201.05 19.6501C201.05 19.6501 199.21 17.4601 201.35 15.3301L209.48 7.1701C210.55 6.0501 211.09 4.6101 211.12 3.1701C211.12 3.1701 211.12 2.5501 210.95 1.9601C210.82 1.5201 210.54 1.1301 210.32 0.910099C209.8 0.380099 209.08 0.110098 208.18 0.100098H206.9C204.76 0.150098 202.9 1.0701 201.55 2.4201C201.49 2.4701 196.18 7.8001 194.78 9.2101L187.34 16.7001V4.9101C187.34 2.2501 185.18 0.100098 182.52 0.100098H180.44C179.89 0.100098 179.11 0.110098 178.74 0.300098C178.43 0.470098 178.43 0.8101 178.43 1.1101V32.1301C178.43 32.5201 178.75 32.8401 179.14 32.8401H180.82V32.8301Z" fill="#282259"/>
<path d="M142.16 28.8201C142.16 28.8201 140.43 28.3401 137.03 25.6501C135.26 24.2601 133.96 23.2301 133.4 22.7901C134.03 22.3901 136.1 21.5601 137.97 19.4201C139.13 18.0901 139.76 16.4201 139.76 14.3201C139.76 12.3501 139.19 10.5001 138.06 8.77008C136.93 7.04008 135.46 5.53008 133.66 4.25008C131.86 2.96008 129.83 1.95008 127.59 1.20008C125.34 0.450077 123.17 0.0800781 120.99 0.0800781C120.99 0.0800781 107.79 0.0800781 107.77 0.0800781C107.38 0.0800781 107.06 0.400077 107.06 0.790077V31.7601C107.06 32.0701 107.06 32.4101 107.37 32.5801C107.78 32.8001 108.7 32.8301 109.22 32.8301C109.97 32.8301 110.77 32.7501 111.5 32.5201C112.63 32.1501 113.59 31.3701 114.31 30.4201C115.56 28.7701 115.87 26.9001 115.87 24.8901V11.4801C115.87 11.3001 115.9 10.8701 115.98 10.5901C116.07 10.2901 116.23 10.0101 116.23 10.0001C117.24 8.15008 120.68 7.43008 124.38 8.36008C129.32 9.61008 130.78 13.0201 130.26 14.4801C129.7 16.0701 127.92 17.0601 125.69 17.0601C124.63 17.0601 123.53 16.8701 122.41 16.5101C122.37 16.5101 121.67 16.3101 121.12 16.1101C120.86 16.0301 120.35 15.7801 119.97 15.7801C119.59 15.7801 119.4 16.0801 119.4 16.6801V20.1801C119.4 21.3901 119.88 22.4501 120.61 23.1001C120.64 23.1301 131.42 31.6201 131.42 31.6201C132.47 32.3901 133.6 32.8101 134.82 32.8101H141.94C142.45 32.8201 142.69 32.4901 142.69 31.8901V29.6201C142.69 29.2701 142.42 28.9101 142.18 28.8101" fill="#282259"/>
<path d="M99.0601 24.3201H89.5601C88.2101 24.3201 86.9801 23.9601 85.7801 23.4501C84.7601 23.0201 83.2001 21.6601 82.7301 21.1401C81.8601 20.1801 81.1801 19.0701 80.7001 17.8101C80.2101 16.5501 79.9701 15.2601 79.9701 13.9301C79.9701 12.2201 80.4601 10.8901 81.4301 9.95007C81.5501 9.84007 81.9601 9.49007 82.4501 9.20007C82.9401 8.91007 83.4701 8.77007 83.8201 8.69007C84.3901 8.56007 85.0101 8.48007 85.6701 8.48007C86.3301 8.48007 86.9501 8.55007 87.5201 8.69007C88.5901 8.90007 89.6401 9.33007 90.6701 9.98007C92.1501 10.9201 93.7201 12.3501 94.7701 13.7201H84.8901C84.3001 13.7201 84.0001 13.9801 84.0001 14.4901C84.0001 15.5101 84.1501 16.1701 84.5601 17.0001C84.9601 17.8301 86.8701 20.7401 90.7501 20.7401H99.9501C101.56 20.7401 102.67 20.3201 103.29 19.4601C103.9 18.6101 104.08 17.8701 104.08 16.7101C104.08 14.8301 103.58 12.9901 102.59 11.0001C101.6 9.01007 100.25 7.21007 98.5601 5.58007C96.8701 3.95007 94.9001 2.63007 92.6501 1.61007C90.4001 0.580069 88.0501 0.0700684 85.6001 0.0700684H72.0801C71.6901 0.0700684 71.3701 0.390067 71.3701 0.780067V14.2401C71.3701 16.7601 71.8601 19.1501 72.8301 21.3901C73.8001 23.6301 75.1301 25.6001 76.8001 27.2901C78.4701 28.9801 80.4201 30.3101 82.6501 31.3001C84.8701 32.2901 87.2601 32.8101 89.8001 32.8101H103.37C103.76 32.8101 104.08 32.4901 104.08 32.1001V29.3701C104.08 27.7801 103.63 26.5501 102.74 25.6501C101.85 24.7501 100.62 24.3001 99.0601 24.3001" fill="#282259"/>
<path d="M68.39 4.89007C68.39 2.23007 66.23 0.0700684 63.58 0.0700684H58.48C58.23 0.0700684 57.99 0.17007 57.82 0.33007L47.6 9.93007C44.1 13.2201 39.39 15.0701 34.2 15.0701C29.01 15.0701 23.91 13.0501 20.37 9.52007C20.37 9.52007 12.85 2.46007 12.79 2.39007C11.35 1.05007 9.36 0.120068 7.08 0.0700684H0.96C0.43 0.0700684 0 0.500067 0 1.03007V28.0001C0 30.6601 2.15 32.8201 4.81 32.8201H7.93C8.46 32.8201 8.9 32.3801 8.9 31.8501V22.2501C8.9 19.7401 10.95 17.6701 13.42 17.6701C18.01 17.6701 21.31 21.6101 24.28 24.2301C27.93 27.4501 30.73 30.5501 34.19 30.5501C37.65 30.5501 40.45 27.4501 44.1 24.2301C47.08 21.6001 50.37 17.6701 54.96 17.6701C57.42 17.6701 59.45 19.7201 59.48 22.2101V28.0001C59.48 30.6601 61.64 32.8101 64.3 32.8101H66.38C66.92 32.8101 67.43 32.8101 67.43 32.8101C67.96 32.8101 68.4 32.3701 68.4 31.8401V4.88007" fill="#282259"/>
<path d="M174.75 19.12H169.79C167.97 19.12 166.78 19.9101 166.24 21.4801C165.9 22.5101 165.34 23.3201 164.56 23.9401C163.77 24.5601 162.77 24.8701 161.54 24.8701C160.4 24.8701 159.23 24.5401 158.05 23.8701C156.86 23.2101 155.79 22.3601 154.84 21.32C153.89 20.28 153.11 19.1 152.52 17.8C151.93 16.5 151.63 15.21 151.63 13.93C151.63 12.3101 152.11 11 153.09 10C154.07 9.00005 155.29 8.50005 156.77 8.50005C158.46 8.50005 160.14 9.12005 161.79 10.3601C162.47 10.8701 163.19 11.12 163.95 11.12C164.71 11.12 165.52 10.7 166.36 9.84005L169.73 6.52005C169.94 6.31005 170.01 6.12005 169.95 5.94005C169.89 5.77005 169.75 5.58005 169.54 5.36005C167.72 3.70005 165.73 2.40005 163.57 1.46005C161.41 0.520049 159.15 0.0500488 156.77 0.0500488H143.5C142.99 0.0500488 142.74 0.350048 142.74 0.940048V14.17C142.74 16.73 143.26 19.16 144.3 21.45C145.33 23.75 146.73 25.78 148.49 27.53C150.24 29.27 152.25 30.67 154.52 31.71C156.79 32.75 159.13 33.28 161.54 33.28C163.49 33.28 165.29 32.9501 166.94 32.2901C168.59 31.6301 170.03 30.7201 171.26 29.5501C172.49 28.3801 173.46 26.9701 174.18 25.3301C174.9 23.6901 175.32 21.91 175.45 20C175.49 19.4 175.26 19.1 174.75 19.1" fill="#282259"/>
</svg>
