<svg width="186" height="41" viewBox="0 0 186 41" fill="none" xmlns="http://www.w3.org/2000/svg">
<path d="M0.580078 23.8398V1.2998H7.60004C11.46 1.2998 13.4601 3.5898 13.4601 6.5498C13.4601 8.6098 12.4901 9.92981 11.0101 10.7698C13.8801 11.7398 15.6801 13.8898 15.6801 16.8898C15.6801 20.8198 13.1401 23.8398 7.18005 23.8398H0.580078ZM6.95007 9.37982C9.62007 9.37982 10.1701 4.5798 6.95007 4.5798H5.15009V9.37982H6.95007ZM7.76007 20.0698C12.3001 20.0698 12.07 13.5298 7.79004 13.5298H5.15009V20.0698H7.76007Z" fill="#282259"/>
<path d="M18.5703 23.8398V1.2998H23.1403V19.6498H31.0903V23.8398H18.5703Z" fill="#282259"/>
<path d="M45.9399 18.4895H39.1799L37.5999 23.8295H32.71L39.9899 1.28955H45.1099L52.39 23.8295H47.4999L45.95 18.4895H45.9399ZM40.2399 14.8896H44.8799L44.2 12.4796C43.59 10.2596 42.8199 7.61956 42.5599 6.16956C42.2699 7.93956 41.59 10.2896 40.95 12.4796L40.2399 14.8896Z" fill="#282259"/>
<path d="M63.5801 24.1598C57.1401 24.1598 52.1201 18.9798 52.1201 12.5698C52.1201 6.15976 57.2101 1.00977 63.5801 1.00977C67.1901 1.00977 70.0201 2.45976 72.2101 4.99976L68.8001 7.95975C67.3801 6.47975 65.6501 5.41977 63.5501 5.41977C59.7201 5.41977 56.7601 8.53976 56.7601 12.5698C56.7601 16.5998 59.7201 19.7498 63.5501 19.7498C65.6701 19.7498 67.4501 18.6597 68.8901 17.0797L72.4301 19.9098C70.2701 22.4898 67.4401 24.1598 63.5801 24.1598Z" fill="#282259"/>
<path d="M75 23.8395V1.29953H79.57V8.53955C79.57 9.21955 79.51 9.91953 79.51 10.0195C79.54 9.91953 79.86 9.27955 80.22 8.75955L85.37 1.28955H90.55L84.59 9.88956L91.74 23.8295H86.33L82.02 14.7795C81.73 14.1995 81.51 13.5895 81.51 13.5895C81.48 13.5895 81.16 14.2295 80.8 14.7195L79.58 16.3595V23.8295H75.01L75 23.8395Z" fill="#282259"/>
<path d="M93.1899 19.3297L95.3499 18.6197C95.9299 20.8397 97.5399 22.1897 99.4099 22.1897C102.11 22.1897 103.47 20.2897 103.47 17.7097C103.47 13.0097 94.7499 10.7597 94.7499 5.60971C94.7499 2.83971 96.94 0.969727 99.45 0.969727C101 0.969727 102.6 1.64972 103.51 3.08972L101.64 4.40973C101.12 3.59973 100.42 2.95972 99.45 2.95972C97.97 2.95972 96.9699 4.11973 96.9699 5.59973C96.9699 9.16973 105.73 11.7797 105.73 17.6997C105.73 21.3697 102.86 24.1397 99.39 24.1397C96.75 24.1397 94.01 22.4997 93.21 19.3097L93.1899 19.3297Z" fill="#282259"/>
<path d="M121.97 16.8198V1.2998H124.26V16.0098C124.26 21.8398 120.98 24.1598 117.21 24.1598C113.44 24.1598 110.16 21.8398 110.16 16.0098V1.2998H112.45V16.8198C112.45 20.0398 114.67 22.0998 117.21 22.0998C119.75 22.0998 121.97 20.0398 121.97 16.8198Z" fill="#282259"/>
<path d="M140.29 24.1595C133.88 24.1595 128.7 18.9795 128.7 12.5695C128.7 6.15949 133.88 0.979492 140.29 0.979492C143.48 0.979492 146.37 2.26947 148.47 4.35947L146.89 5.96948C145.22 4.29948 142.87 3.09949 140.29 3.09949C135.11 3.09949 130.95 7.40949 130.95 12.5695C130.95 17.7295 135.1 22.0395 140.29 22.0395C142.83 22.0395 144.67 21.3995 146.28 19.9795V13.8995H140.26V11.7695H148.53V20.7195C146.44 22.8395 143.51 24.1595 140.29 24.1595Z" fill="#282259"/>
<path d="M163.66 16.6598H156.22L154.03 23.8398H151.58L158.86 1.2998H161.02L168.3 23.8398H165.89L163.67 16.6598H163.66ZM156.8 14.7298H163.08L160.5 6.3298C160.21 5.4598 159.95 4.29981 159.95 4.20981C159.92 4.30981 159.63 5.4698 159.37 6.3298L156.79 14.7298H156.8Z" fill="#282259"/>
<path d="M172 23.8398V1.2998H178.54C183.18 1.2998 185.56 4.32982 185.56 7.99982C185.56 10.7998 184.11 13.0898 181.66 14.0798L185.91 23.8398H183.46L179.44 14.6298C179.15 14.6598 178.83 14.6598 178.54 14.6598H174.26V23.8398H172.01H172ZM178.53 12.5398C181.91 12.5398 183.3 10.6098 183.3 7.99982C183.3 5.38982 181.75 3.42981 178.53 3.42981H174.25V12.5398H178.53Z" fill="#282259"/>
<path d="M59.3099 30.6997L58.7399 31.2697C57.7899 30.3697 56.7199 29.9297 55.5399 29.9597C54.5899 29.9697 53.7599 30.2297 53.0399 30.7397C52.3199 31.2497 51.7899 31.8796 51.4599 32.6096C51.1199 33.3496 50.9499 34.1297 50.9499 34.9497C50.9499 35.7697 51.1199 36.5297 51.4599 37.2697C51.7999 38.0097 52.3299 38.6297 53.0499 39.1297C53.7699 39.6297 54.5999 39.8797 55.5399 39.8797C56.1599 39.8797 56.7899 39.7397 57.4199 39.4497C58.0499 39.1597 58.5899 38.7897 59.0299 38.3297L59.6299 38.8197C59.0999 39.3797 58.4799 39.8197 57.7699 40.1497C57.0599 40.4797 56.3099 40.6497 55.5299 40.6497C54.6799 40.6497 53.8899 40.4797 53.1899 40.1497C52.4799 39.8197 51.9098 39.3797 51.4698 38.8397C51.0298 38.2997 50.6899 37.6897 50.4599 37.0297C50.2299 36.3597 50.1099 35.6697 50.1099 34.9397C50.1099 34.2097 50.2299 33.5197 50.4599 32.8397C50.6899 32.1597 51.0298 31.5497 51.4698 30.9997C51.9098 30.4497 52.4899 30.0097 53.1899 29.6697C53.8999 29.3297 54.6799 29.1597 55.5299 29.1597C56.9899 29.1597 58.2399 29.6597 59.2999 30.6697L59.3099 30.6997Z" fill="#282259"/>
<path d="M69.28 30.0097C70.12 30.5397 70.77 31.2397 71.23 32.1197C71.69 32.9897 71.92 33.9297 71.92 34.9497C71.92 35.8597 71.76 36.6797 71.45 37.4197C71.14 38.1597 70.73 38.7497 70.21 39.2097C69.69 39.6597 69.11 40.0097 68.46 40.2597C67.81 40.5097 67.14 40.6297 66.45 40.6297C65.76 40.6297 65.09 40.5097 64.44 40.2597C63.79 40.0097 63.2 39.6597 62.69 39.2097C62.17 38.7597 61.76 38.1597 61.45 37.4197C61.14 36.6797 60.98 35.8597 60.98 34.9497C60.98 33.3797 61.49 32.0297 62.51 30.9097C63.53 29.7897 64.84 29.2197 66.45 29.2197C67.49 29.2197 68.44 29.4897 69.28 30.0197V30.0097ZM63.27 38.6197C63.7 39.0097 64.2 39.3197 64.75 39.5297C65.3 39.7397 65.87 39.8497 66.45 39.8497C67.03 39.8497 67.6 39.7397 68.15 39.5297C68.7 39.3197 69.2 39.0197 69.63 38.6297C70.06 38.2397 70.41 37.7297 70.68 37.0797C70.94 36.4397 71.08 35.7197 71.08 34.9397C71.08 34.1597 70.95 33.4197 70.68 32.7797C70.41 32.1397 70.07 31.6197 69.63 31.2197C69.2 30.8197 68.7 30.5197 68.15 30.2997C67.59 30.0897 67.03 29.9797 66.45 29.9897C65.87 29.9897 65.3 30.0997 64.75 30.3197C64.19 30.5297 63.7 30.8397 63.27 31.2397C62.84 31.6397 62.49 32.1597 62.22 32.7997C61.95 33.4397 61.82 34.1597 61.82 34.9397C61.82 35.7197 61.95 36.4397 62.22 37.0697C62.48 37.7097 62.83 38.2197 63.27 38.6197Z" fill="#282259"/>
<path d="M80.1198 29.3799V30.1599H75.4298V34.5899H80.0498V35.3699H75.4298V40.4699H74.5898V29.3899H80.1098L80.1198 29.3799Z" fill="#282259"/>
<path d="M88.1599 29.3799V30.1599H83.4698V34.5899H88.0899V35.3699H83.4698V40.4699H82.6299V29.3899H88.1499L88.1599 29.3799Z" fill="#282259"/>
<path d="M96.1399 29.3696V30.1496H91.4698V34.5296H96.0799V35.3096H91.4599V39.6796H96.1499V40.4596H90.6299V29.3796H96.1499L96.1399 29.3696Z" fill="#282259"/>
<path d="M104.32 29.3696V30.1496H99.6498V34.5296H104.26V35.3096H99.6398V39.6796H104.32V40.4596H98.7998V29.3796H104.32V29.3696Z" fill="#282259"/>
<path d="M119.53 30.6997L118.96 31.2697C118.01 30.3697 116.94 29.9297 115.76 29.9597C114.81 29.9697 113.98 30.2297 113.26 30.7397C112.54 31.2497 112.01 31.8796 111.68 32.6096C111.35 33.3396 111.17 34.1297 111.17 34.9497C111.17 35.7697 111.34 36.5297 111.68 37.2697C112.02 38.0097 112.55 38.6297 113.27 39.1297C113.99 39.6297 114.82 39.8797 115.75 39.8797C116.37 39.8797 117 39.7397 117.63 39.4497C118.26 39.1597 118.8 38.7897 119.24 38.3297L119.84 38.8197C119.31 39.3797 118.69 39.8197 117.98 40.1497C117.27 40.4797 116.52 40.6497 115.74 40.6497C114.89 40.6497 114.1 40.4797 113.4 40.1497C112.69 39.8197 112.12 39.3797 111.68 38.8397C111.24 38.2997 110.9 37.6897 110.67 37.0297C110.44 36.3597 110.32 35.6697 110.32 34.9397C110.32 34.2097 110.44 33.5197 110.67 32.8397C110.9 32.1597 111.24 31.5497 111.68 30.9997C112.12 30.4497 112.7 30.0097 113.4 29.6697C114.1 29.3297 114.89 29.1597 115.74 29.1597C117.2 29.1597 118.45 29.6597 119.51 30.6697L119.53 30.6997Z" fill="#282259"/>
<path d="M129.51 30.0097C130.35 30.5397 131 31.2397 131.46 32.1197C131.92 32.9897 132.15 33.9297 132.15 34.9497C132.15 35.8597 131.99 36.6797 131.68 37.4197C131.37 38.1597 130.96 38.7497 130.44 39.2097C129.92 39.6597 129.34 40.0097 128.69 40.2597C128.04 40.5097 127.37 40.6297 126.68 40.6297C125.99 40.6297 125.32 40.5097 124.67 40.2597C124.02 40.0097 123.43 39.6597 122.92 39.2097C122.4 38.7597 121.99 38.1597 121.68 37.4197C121.37 36.6797 121.21 35.8597 121.21 34.9497C121.21 33.3797 121.72 32.0297 122.74 30.9097C123.76 29.7897 125.07 29.2197 126.68 29.2197C127.72 29.2197 128.67 29.4897 129.51 30.0197V30.0097ZM123.49 38.6197C123.92 39.0097 124.42 39.3197 124.97 39.5297C125.53 39.7397 126.09 39.8497 126.67 39.8497C127.25 39.8497 127.82 39.7397 128.37 39.5297C128.93 39.3197 129.42 39.0197 129.85 38.6297C130.28 38.2397 130.63 37.7297 130.9 37.0797C131.17 36.4297 131.3 35.7197 131.3 34.9397C131.3 34.1597 131.17 33.4197 130.9 32.7797C130.63 32.1397 130.29 31.6197 129.85 31.2197C129.42 30.8197 128.92 30.5197 128.37 30.2997C127.82 30.0897 127.25 29.9797 126.67 29.9897C126.09 29.9897 125.52 30.0997 124.97 30.3197C124.42 30.5297 123.92 30.8397 123.49 31.2397C123.06 31.6397 122.71 32.1597 122.44 32.7997C122.18 33.4397 122.04 34.1597 122.04 34.9397C122.04 35.7197 122.17 36.4397 122.44 37.0697C122.7 37.7097 123.05 38.2197 123.49 38.6197Z" fill="#282259"/>
<path d="M135.06 40.4795H134.06V39.2495H135.06V40.4795Z" fill="#282259"/>
</svg>
