<svg width="464" height="323" viewBox="0 0 464 323" fill="none" xmlns="http://www.w3.org/2000/svg">
<path d="M303.53 276.13C309.42 273.17 315.39 270.52 320.91 266.93C325.39 263.88 329.61 260.5 333.64 256.89C339.01 252.08 344.039 246.86 348.849 241.48C359.909 228.97 369.04 214.96 378.55 201.28C400.14 171.21 418.8 139.01 434.52 105.51C439.86 94.3202 446.03 83.7102 450.56 72.1902C453.9 63.3702 456.52 54.6002 459.28 45.6302C458.69 45.4502 458.09 45.3002 457.49 45.1602C458.41 45.2202 459.319 45.3102 460.229 45.4202C460.209 45.4202 460.19 45.4202 460.18 45.4202C460.91 45.5202 461.629 45.6102 462.339 45.7702C462.549 45.8202 462.769 45.8702 462.979 45.9202C462.959 46.0802 462.93 46.2402 462.89 46.4102C458.64 59.1802 454.94 72.1402 448.79 84.1102C440.86 99.1702 433.46 114.49 425.8 129.68C419.1 142.32 411.709 154.58 404.439 166.9C394.979 182.97 383.759 197.89 373.209 213.24C362.579 228.89 351 244.09 337.02 256.9C336.15 257.7 335.27 258.49 334.369 259.28C328.649 264.32 322.529 269.01 315.709 272.46C311.589 274.74 306.949 275.78 302.599 277.48C303.519 278.11 304.729 278.57 305.609 279.14C304.019 278.29 299.72 278 303.5 276.15L303.53 276.13Z" fill="white"/>
<path d="M198.03 137.59C198.74 137.04 199.45 136.49 200.17 135.94C200.22 135.93 200.27 135.92 200.32 135.91C199.52 136.5 198.72 137.09 197.93 137.67C197.97 137.64 198 137.61 198.04 137.58L198.03 137.59Z" fill="white"/>
<path d="M241.7 105.81C241.16 106.15 240.63 106.5 240.1 106.84C240.63 106.48 241.16 106.14 241.7 105.81Z" fill="white"/>
<path d="M48.3199 300.02C38.9699 286.26 28.93 272.58 23.14 256.89C22.67 255.62 22.2299 254.35 21.8199 253.06C16.5199 237.36 13.35 221.1 10.42 204.83C8.53 195.13 5.65992 185.65 4.08992 175.88C-1.45008 146.83 -0.370061 117.11 2.97994 87.8698C5.93994 57.0798 13.7599 41.1798 37.9499 21.5098C44.6899 16.0598 51.84 11.1397 59.15 6.48975C62.23 4.45975 66.9999 1.54973 71.1899 0.969727C71.3599 1.58973 71.53 2.21978 71.68 2.83978C71.78 3.24978 71.89 3.65976 71.99 4.06976C64.66 4.94976 48.36 17.6098 43.62 20.8898C29.75 31.5098 16.3899 44.4598 10.9799 61.5098C7.70994 71.7798 6.45995 82.5497 5.36995 93.2297C3.86995 107.83 2.92992 122.5 3.08992 137.18C3.27992 158.68 7.30992 179.87 12.7099 200.61C16.3399 219.59 19.65 238.76 26.55 256.89C26.67 257.21 26.79 257.52 26.91 257.83C32.84 272.73 42.42 285.81 51.43 298.92C55.81 306.03 58.23 314.27 60.52 322.17C55.81 315.13 52.45 307.36 48.3 300.02H48.3199Z" fill="white"/>
<path d="M167.95 151.81C167.64 152.06 167.32 152.28 167 152.48C166.92 152.48 166.83 152.48 166.75 152.48C167.16 152.31 167.56 152.08 167.95 151.8V151.81Z" fill="white"/>
<path d="M340.32 227.92C345.89 220.87 352.11 214.36 357.69 207.32C363.24 200.34 368.2 192.92 373.36 185.65C380.41 176 387.35 166.41 393.22 155.99C397.32 148.66 401.61 141.42 405.81 134.15C410.29 125.67 414.31 116.95 418.92 108.53C422.45 101.88 426.6 95.4602 430.06 88.8202C433.97 81.2702 437.29 73.4202 440.84 65.7002C443.83 59.6402 446.8 51.9602 448.84 45.2502C449.28 45.2302 449.73 45.2102 450.17 45.2002C448.61 54.3102 444.54 62.8702 440.71 71.2802C437.31 78.9602 433.94 86.9102 429.85 94.2302C427.28 98.9002 424.51 103.43 421.95 108.11C417.02 117.03 412.75 126.28 408.04 135.3C401.39 146.51 395.22 158.01 388.09 168.92C383.7 175.69 378.93 181.82 374.26 188.29C366.67 199.17 358.82 209.86 349.84 219.64C338.02 232.62 328.65 247.93 315.51 259.6C323.9 249.14 332.08 238.51 340.31 227.93L340.32 227.92Z" fill="white"/>
<path d="M450.83 38.2403H450.7C450.71 38.1803 450.72 38.1303 450.74 38.0703C450.78 38.0703 450.81 38.0703 450.85 38.0703C450.85 38.1303 450.85 38.1803 450.85 38.2403H450.83Z" fill="white"/>
<path d="M302.79 260.03C308.01 252.94 313.13 245.439 318.38 238.469C324.84 229.809 331.74 221.49 338.09 212.76C343.66 204.97 348.83 196.91 354.75 189.38C361.86 180.3 369.85 171.9 376.05 162.13C382.94 150.89 389.98 139.74 397.17 128.69C408.06 110.67 419.02 92.6495 427.96 73.5695C431.04 67.4795 434.51 61.4795 437.8 55.5295C439.1 53.2095 440.29 51.0695 441.46 48.7295C441.9 47.6795 442.51 46.6295 442.95 45.5495C443.09 45.5495 443.24 45.5295 443.38 45.5195C443.32 45.7795 443.25 46.0395 443.18 46.2995C440.93 54.6395 436.36 62.0295 432.41 69.6195C428.65 76.8095 425.37 84.2395 421.65 91.4495C417.89 98.7695 413.58 105.779 409.5 112.919C402.91 124.529 395.77 135.78 388.5 146.96C383.86 154.35 379.66 162.009 374.54 169.079C367.23 179.199 358.42 188.209 351.29 198.469C341.12 213.699 329.76 228.19 318.71 242.76C306.81 259.02 295.59 276.1 281.03 290.05C287.52 279.51 295.48 269.96 302.82 260.05L302.79 260.03Z" fill="white"/>
<path d="M307.421 227.39C312.071 221.55 317.331 216.24 322.021 210.43C327.491 203.68 332.32 196.71 337.36 189.7C343.27 181.48 350.09 173.64 355.95 165.45C370.36 145.48 384.531 125.34 397.661 104.5C403.921 95.0204 409.051 84.8803 414.561 74.9803C417.861 69.0003 421.64 63.3104 425.11 57.4304C427.03 53.8804 428.92 50.2303 430.48 46.4703C430.95 46.4303 431.421 46.4004 431.891 46.3604C430.921 49.9804 429.52 53.5204 427.84 56.8004C424.32 63.4204 420.111 69.6604 416.551 76.2504C411.871 84.7004 407.63 93.4003 402.5 101.6C385.67 128.5 367.71 154.86 348.32 179.96C336.98 194.09 327.46 209.62 314.99 222.84C308.48 230.2 302.791 238.24 296.521 245.81C291.751 251.9 286.2 257.47 280.98 263.06C288.21 250.09 298.601 239.27 307.411 227.39H307.421Z" fill="white"/>
<path d="M271.44 254.14C278.42 246.89 284.69 239.01 290.83 231.05C300.95 218.14 311.03 205.15 320.55 191.8C328.77 180.64 337.46 169.85 345.25 158.38C352.38 147.83 360.77 138.25 368.81 128.41C374.66 120.93 380.01 113.27 385.44 105.53C396.74 90.0397 405.36 72.8197 414.9 56.2697C416.54 53.3097 418.13 50.3096 419.67 47.2996C420.04 47.2696 420.4 47.2397 420.77 47.2097C421.07 47.1897 421.36 47.1596 421.66 47.1396C421.03 48.7196 420.34 50.2896 419.59 51.8196C413.2 64.0496 406.43 76.0697 399.67 88.0897C394.42 97.1097 388.34 105.61 382.34 114.13C375.53 123.96 368.17 133.33 360.38 142.39C354.46 149.5 349.14 157.07 343.86 164.67C336.19 175.63 327.69 186.1 319.81 196.87C313.04 206.3 306.07 215.51 298.84 224.58C286.42 240.2 274.61 257.19 258.25 268.87C262.6 264 266.9 258.78 271.45 254.13L271.44 254.14Z" fill="white"/>
<path d="M263.11 243.33C267.01 237.75 270.79 232.06 274.86 226.61C281.1 218.21 287.99 210.2 294.11 201.73C312.68 175.04 334.11 150.45 353.54 124.42C360.68 114.56 367.99 104.81 374.5 94.5297C383.3 79.7097 391.59 64.5996 400.95 50.1096C401.21 49.6696 401.47 49.2196 401.74 48.7896C401.98 48.7496 402.22 48.7196 402.46 48.6796C402.78 48.6496 403.1 48.6296 403.42 48.5996C402.12 51.0296 400.7 53.4096 399.39 55.7596C389.51 71.3696 381.47 88.0696 371.24 103.43C353.92 128.98 334.36 152.85 315.13 176.95C307.08 186.94 299.97 197.73 292.24 207.93C287.06 214.82 281.43 221.41 276.35 228.36C267.74 240.07 260.32 253 249.58 262.92C253.69 256.13 258.51 249.8 263.09 243.33H263.11Z" fill="white"/>
<path d="M407.75 37.7305C407.6 38.4405 407.42 39.1505 407.21 39.8505C407.14 39.8705 407.07 39.8805 407 39.9005C407.29 39.1905 407.55 38.4705 407.75 37.7305Z" fill="white"/>
<path d="M225.94 269.45C225.94 269.45 225.921 269.44 225.931 269.43C230.381 259.89 238.05 252.52 244.73 244.57C251.66 236.28 257.991 227.42 264.411 218.78C264.411 218.78 264.411 218.78 264.411 218.79C264.391 218.81 264.37 218.84 264.36 218.86C276.72 202.29 288.401 185.21 301.161 168.94C306.841 161.53 312.451 154.07 318.311 146.81C324.921 138.73 331.611 130.67 337.291 121.88C345.431 108.72 353.401 95.3702 360.561 81.6802C365.521 71.9302 370.15 61.9802 375.35 52.3602C375.54 52.3202 375.741 52.2802 375.931 52.2402C365.311 79.3902 350.91 105.07 334.83 129.35C328.4 138.17 321.251 146.44 314.531 155.05C308.721 162.61 302.961 170.2 297.161 177.77C280.481 199.82 265.08 222.77 248 244.47C241 253.09 233.32 261.15 225.94 269.45Z" fill="white"/>
<path d="M226.32 262.3C231.94 254.27 237.72 246.35 242.71 237.9C258.09 211.44 278.03 188.1 295.85 163.33C305.57 149 313.97 133.83 322.58 118.82C330.41 105.6 337.12 91.7798 344.19 78.1398C347.05 71.5598 349.92 64.9798 352.71 58.3698C352.83 58.3298 352.94 58.2998 353.06 58.2598C347.92 72.1798 341.28 85.7397 334.47 98.9797C325.36 117.03 315.08 134.49 305.05 152.04C292.57 173.33 276.31 191.7 262.26 212.08C250.58 227.87 241.72 245.49 230.19 261.38C226.23 267.05 222.37 273.1 217.55 277.98C220.45 272.72 222.91 267.23 226.31 262.28L226.32 262.3Z" fill="white"/>
<path d="M204.54 273.79C219.9 249.69 235.24 225.58 250.56 201.46C269.17 172.2 287.71 142.91 306.28 113.63C315.02 99.4298 325.299 86.0098 332.319 70.8498C333.139 68.5598 333.98 66.2898 334.9 64.0398C335.28 63.8898 335.67 63.7398 336.05 63.5898C335.43 65.9098 334.869 68.2598 334.219 70.5698C329.269 83.1298 321.01 94.0898 313.81 105.43C297.51 131.01 281.429 156.72 265.199 182.35C248.309 209.1 231.43 235.86 214.53 262.59C207.33 273.97 200.13 285.35 192.91 296.71C188.94 303.16 184.44 309.43 179.52 315.09C186.5 300.54 196.05 287.46 204.53 273.78L204.54 273.79Z" fill="white"/>
<path d="M196.23 258.901C202.79 248.981 209.36 239.06 215.92 229.13C235.78 199.06 255.76 169.061 275.33 138.781C283.87 125.471 292.05 111.94 300.77 98.7405C305.96 91.0605 311.12 83.3505 315.87 75.3805C316.82 73.8405 317.77 72.2905 318.69 70.7305C319.06 70.5605 319.43 70.4005 319.8 70.2305C314.88 81.2005 307.82 91.0705 301.36 101.16C293.97 112.79 286.65 124.47 279.39 136.19C258.81 168.07 237.83 199.67 216.94 231.34C210.56 241 204.19 250.67 197.82 260.33C191.8 269.45 185.91 278.82 178.84 287.09C183.84 277.21 190.12 268.09 196.23 258.891V258.901Z" fill="white"/>
<path d="M87.7102 213.12C89.2802 210.85 90.9602 208.58 92.8702 206.54C93.5402 206.54 94.2102 206.51 94.8802 206.46C94.8802 206.46 94.8702 206.46 94.8602 206.46C94.8602 206.46 94.8702 206.46 94.8802 206.46C90.8402 211.74 86.3702 219.28 85.2002 221.37C81.9602 227.41 78.9703 233.69 76.9003 240.17C74.5703 248.91 72.8502 257.91 70.2002 266.5C70.2302 247.41 77.0802 228.82 87.7002 213.11L87.7102 213.12Z" fill="white"/>
<path d="M103.2 223.81C105.71 217.33 108.19 210.89 111.86 205.01C112.59 203.88 113.35 202.77 114.14 201.68C114.71 201.51 115.28 201.33 115.84 201.15C115.84 201.15 115.91 201.119 115.95 201.109C115.91 201.119 115.88 201.14 115.84 201.15C115.9 201.13 115.96 201.109 116.02 201.089C116.01 201.089 116 201.089 115.98 201.099C115.99 201.099 116 201.099 116.02 201.089C116.04 201.089 116.06 201.079 116.09 201.069H116.07C116.57 200.899 117.07 200.72 117.55 200.52C115.96 202.74 114.44 205.009 113.02 207.349C104.64 222.869 100.99 240.47 93.71 256.38C95.27 245.15 99.2901 234.4 103.18 223.8L103.2 223.81Z" fill="white"/>
<path d="M127.63 217.92C131.42 206.1 136.07 194.55 142.02 183.65C142.64 183.19 143.25 182.73 143.88 182.28C143.75 182.54 143.67 182.84 143.63 183.12C143.58 183.49 143.6 183.88 143.68 184.26C141.82 187.81 140.04 191.4 138.35 195.04C133.36 205.95 130.16 217.52 126.19 228.81C123.91 235.91 120.64 242.76 118.55 249.84C118.76 238.64 124.48 228.47 127.62 217.91L127.63 217.92Z" fill="white"/>
<path d="M144.17 182.97C144.15 182.81 144.13 182.66 144.12 182.51C144.12 182.44 144.12 182.36 144.12 182.29C144.12 182.26 144.13 182.22 144.14 182.18V182.16C144.14 182.16 144.14 182.15 144.14 182.14C144.14 182.14 144.14 182.14 144.14 182.13C144.14 182.13 144.14 182.13 144.14 182.12C144.14 182.12 144.14 182.12 144.15 182.12C144.24 182.09 144.4 182.04 144.45 181.95C144.45 181.94 144.44 181.92 144.43 181.94C144.43 181.94 144.42 181.94 144.41 181.95C144.38 181.97 144.35 181.99 144.32 182H144.3C144.3 182 144.27 182 144.26 182H144.24H144.22C144.22 182 144.19 182 144.18 182C144.51 181.76 144.85 181.52 145.18 181.28C144.84 181.92 144.5 182.56 144.16 183.2C144.14 183.12 144.12 183.04 144.1 182.96L144.17 182.97Z" fill="white"/>
<path d="M140.921 244.71C143.541 237.71 146.151 230.72 148.911 223.78C156.541 204.91 165.57 186.61 175.45 168.83C175.45 168.83 175.45 168.81 175.46 168.81C175.46 168.8 175.47 168.79 175.48 168.77C180.42 160.43 185.06 151.87 190.24 143.67C190.78 143.24 191.31 142.82 191.85 142.4C192.4 141.97 192.94 141.55 193.49 141.12C186.71 152.01 180.561 163.37 174.291 174.51C174.291 174.51 174.291 174.53 174.281 174.54C166.631 189.16 159.31 203.98 153 219.23C147.47 232.65 143.191 246.76 137.061 259.82C137.631 254.59 139.021 249.6 140.931 244.7L140.921 244.71Z" fill="white"/>
<path d="M204.91 123.72C204.91 123.72 204.9 123.7 204.89 123.69C204.88 123.68 204.86 123.68 204.84 123.69C204.82 123.69 204.8 123.69 204.82 123.67C205.01 123.6 204.93 123.96 204.91 124.03C204.84 124.28 204.71 124.51 204.59 124.74C204.47 124.83 204.36 124.92 204.24 125.01C204.49 124.59 204.72 124.16 204.91 123.72Z" fill="white"/>
<path d="M155.7 244.34C160.1 232.16 164.73 220.09 169.69 208.14C173.02 200.14 175.74 192.09 179.66 184.39C184.21 174.94 189.84 166.09 194.94 156.94C199.29 149.59 203.75 142.27 209.07 135.58C211.34 132.54 213.46 129.18 215.82 126.07C216.94 125.21 218.07 124.35 219.18 123.49C217.94 125.43 216.8 127.46 215.56 129.36C212.9 133.94 209.63 138.21 206.48 142.42C200.55 151.02 195.49 160.17 190.33 169.24C186.74 175.15 183.38 181.12 180.5 187.37C177.1 194.45 174.6 201.83 171.56 209.03C167.5 218.96 163.37 228.87 159.91 239C154.68 252.2 151.23 266.51 144.71 279.05C147.4 267.18 151.51 255.76 155.69 244.35L155.7 244.34Z" fill="white"/>
<path d="M160.9 259.27C164.48 251.48 168.47 243.8 171.5 235.8C174.4 227.98 177.53 220.31 181.14 212.8C185.85 203.53 191.26 194.71 196.18 185.62C202.94 172.44 210.37 159.67 217.74 146.86C220.47 142.08 223.69 137.6 226.6 132.93C229.38 128.25 231.87 123.41 234.52 118.65C236.97 114.17 239.41 109.64 242.31 105.43C242.62 105.25 242.93 105.08 243.24 104.9C242.53 106.16 241.86 107.46 241.16 108.71C236.8 117.03 232.5 125.39 227.86 133.55C222.5 141.76 217.4 150.15 212.63 158.71C208.01 167.23 203.03 175.54 198.75 184.25C193.59 194.21 187.72 203.54 182.64 213.49C178.5 221.97 175.15 230.8 171.84 239.62C168.75 247.2 165.1 254.52 161.72 261.97C157.04 272.97 152.7 284.36 145.91 294.19C150.77 282.5 155.87 270.87 160.91 259.24L160.9 259.27Z" fill="white"/>
<path d="M169.29 271.3C174.5 260.27 179.52 249.14 185.28 238.37C189.78 229.43 193.74 220.23 197.89 211.12C201.3 204.09 205.07 197.24 208.78 190.36C214.49 179.37 220.56 168.59 227.04 158.03C232.11 149.68 236.36 140.87 241.32 132.46C246.15 124.16 250.78 115.78 254.83 107.07C256.95 102.83 259.63 98.7598 262.19 94.7498C262.4 94.6698 262.61 94.5898 262.81 94.5098C258.93 102.08 254.96 109.59 251.45 117.33C247.27 125.54 242.44 133.53 238.03 141.6C232.11 153.22 225.18 164.28 218.64 175.55C215.51 181.25 212.61 187.06 209.47 192.75C205.2 200.8 200.73 208.76 197.12 217.14C192.52 227.89 187.38 238.37 181.96 248.72C177.12 258.62 172.7 268.75 167.61 278.52C164.72 283.52 161.41 288.44 158.7 293.45C161.01 285.49 165.88 278.75 169.27 271.3H169.29Z" fill="white"/>
<path d="M191.45 253.77C200.31 240.04 208.11 225.69 215.31 211.03C219.68 202.96 224.07 194.95 228.86 187.21C231.14 183.12 233 178.8 235.2 174.66C240.55 164.53 247.09 155.07 251.99 144.7C258.67 132.88 266.03 121.43 271.95 109.19C276.37 101.36 280.6 93.3904 284.74 85.4104C284.82 85.3804 284.9 85.3504 284.98 85.3204C284.92 85.3404 284.86 85.3604 284.8 85.3904C285.19 85.2404 285.59 85.0904 285.98 84.9404C282.44 93.7004 277.96 102.06 273.37 110.32C268.82 119.52 263.92 128.52 258.57 137.26C254.63 143.3 251.75 149.9 248.2 156.16C242.62 165.48 236.97 174.77 232.42 184.65C230.44 188.69 227.92 192.42 225.63 196.29C222.91 200.94 220.33 205.8 217.68 210.45C213.16 219.13 208.79 227.97 203.93 236.45C197.29 248.15 189.82 259.35 181.84 270.16C176.62 277.84 171.59 285.85 165.83 293.05C173.17 279.2 182.65 266.69 191.45 253.78V253.77Z" fill="white"/>
<path d="M119.32 287.08L119.34 286.99C121.72 277.51 123.78 268.001 126.63 258.661C133.39 238.961 142.09 219.98 149.62 200.59C149.62 200.59 149.62 200.61 149.62 200.62C150.03 199.57 150.46 198.48 150.85 197.49C155.38 186.64 159.61 175.611 164.82 165.061C165.48 164.521 166.14 163.99 166.81 163.47C166.91 163.39 167.01 163.31 167.12 163.23C161.97 174.75 157.13 186.4 152.34 198.08C152.34 198.07 152.34 198.061 152.35 198.051C152.35 198.031 152.36 198.02 152.37 197.98C144.76 217.77 135.89 237.061 128.88 257.051C125.11 268.671 123.68 281.23 117.92 292.08C118.44 290.41 118.92 288.72 119.33 287.08H119.32Z" fill="white"/>
<path d="M116.22 223.54C119.76 213.85 122.51 203.82 126.74 194.4C127.2 193.99 127.66 193.59 128.13 193.18H128.12C128.12 193.18 128.141 193.17 128.151 193.16C128.161 193.16 128.171 193.14 128.181 193.13C128.181 193.13 128.181 193.14 128.171 193.15C128.181 193.15 128.19 193.13 128.2 193.12C123.28 209.18 118.06 225.34 111.37 240.81C106.68 252.47 103.551 264.9 98.8105 276.45C101.561 257.96 109.52 240.82 116.24 223.53L116.22 223.54Z" fill="white"/>
<path d="M75.1502 259.45C77.9402 253.41 80.5401 247.3 83.3501 241.27C88.2301 231.41 92.1001 221.03 97.8401 211.63C99.2901 209.37 101.04 207.35 102.79 205.34C103.26 205.2 103.72 205.07 104.2 204.95C104.31 204.92 104.42 204.89 104.53 204.87C102.33 208.15 99.9502 211.32 98.0502 214.79C93.8902 222.47 90.4901 230.51 86.8301 238.43C80.9501 251.36 74.8601 264.44 71.3801 278.18C71.3601 271.77 72.5102 265.34 75.1502 259.47V259.45Z" fill="white"/>
<path d="M63.3503 242.63C67.4703 230.14 72.3903 216.929 82.0903 207.839C82.6303 207.729 83.1603 207.62 83.7003 207.52C82.6803 208.72 81.6904 209.949 80.7404 211.199C73.6704 220.999 68.8804 232.23 65.2704 243.68C62.8604 252.66 59.0104 261.46 57.8604 270.66C56.2904 260.99 60.9303 251.78 63.3503 242.63Z" fill="white"/>
<path d="M147.079 190.55C145.119 189.72 143.449 187.77 143.119 185.65C143.059 184.34 143.659 183.04 143.989 181.8C143.989 181.78 143.989 181.7 144.029 181.73C144.029 181.81 144.009 181.89 144.009 181.96C144.239 183.28 144.049 184.84 144.969 185.92C145.939 186.78 147.059 187.97 148.409 187.71C148.369 187.71 148.339 187.72 148.299 187.73C150.129 187.32 152.099 187.14 153.599 185.98C154.959 184.67 156.579 183.96 157.609 182.35C157.429 184.23 156.019 185.67 155.169 187.3C153.549 189.42 149.739 191.08 147.089 190.55H147.079Z" fill="white"/>
<path d="M170.781 170.53C167.611 170.56 164.411 167.54 165.801 164.29C165.821 164.24 165.981 163.88 166.081 164.04C166.101 164.08 166.031 164.04 166.041 164.04H166.021C166.011 164.04 166.001 164.05 165.991 164.06C165.981 164.09 165.951 164.13 165.941 164.18C165.691 165.83 166.791 167.41 168.421 167.72C170.711 168.42 172.761 167.09 174.451 165.68C176.371 164.34 178.421 163.1 180.231 161.64C180.941 161.09 181.551 160.33 182.161 159.76C181.251 162.88 178.971 165.29 176.641 167.45C175.091 169.07 173.141 170.58 170.781 170.53Z" fill="white"/>
<path d="M191.82 148.89C189.14 147.73 190.51 144.52 191.73 142.73C192.1 142.25 192.32 141.47 192.84 141.19C192.88 141.21 192.82 141.22 192.8 141.22C191.88 142.68 190.23 149.13 193.84 145.83C196.65 143.31 199.75 141.11 202.52 138.54C204.25 136.89 205.87 135.14 207.76 133.67C211.67 130.09 215.65 126.57 219.94 123.47C218.96 125.03 217.52 126.52 216.45 128.03C211.64 134.89 205.66 140.96 198.76 145.72C196.64 146.99 194.47 149.42 191.79 148.88L191.82 148.89Z" fill="white"/>
<path d="M218.2 131.28C216.97 130.93 216 129.82 216.81 128.58C217.54 127.11 218.4 124.83 219.28 123.87C219.28 123.87 219.28 123.85 219.28 123.84C218.7 125.55 218.2 127.34 218.04 129.14C221.55 129.8 224.4 124.36 226.7 122.26C229.25 119.55 230.96 116.7 233.32 113.99C236.08 111.68 238.56 109.11 241.12 106.58C241.65 106.14 242.28 105.61 242.82 105.29C242.24 105.86 241.66 106.48 241.18 107.11C239.35 109.94 237.82 112.97 235.54 115.49C232.66 119.96 224.2 133.04 218.2 131.28Z" fill="white"/>
<path d="M242.89 110.71C241.44 110.33 241.04 108.8 241.53 107.52C241.78 106.75 241.85 105.79 242.35 105.16C242.39 105.14 242.67 105.16 242.62 105.2C242.54 105.2 242.46 105.2 242.38 105.2C241.99 106.07 242.04 107.35 242.09 108.31C242.27 109.63 243.8 109.2 244.56 108.63C248.48 106.37 250.94 102.34 254.72 99.9103C257.2 98.0703 259.78 96.3703 262.44 94.8203C262.18 95.2403 261.67 95.7103 261.3 96.1203C258.75 98.8403 256.17 101.63 253.68 104.37C251.62 107.27 246.59 111.23 242.88 110.7L242.89 110.71Z" fill="white"/>
<path d="M262.95 101.53C261.88 101.43 260.92 100.59 260.74 99.5301C260.73 98.7701 261.07 98.0501 261.23 97.3101C261.46 96.5901 261.79 94.4601 262.78 94.6801C262.81 94.7401 262.53 94.68 262.48 94.72C262.42 94.73 262.36 94.8101 262.33 94.8701C261.8 96.1701 261.94 97.7001 262.04 99.0801C264.19 101.04 268.291 95.2501 270.301 94.2101C274.421 91.1601 278.56 88.0201 283.08 85.5901C283.55 85.4001 284.11 85.12 284.54 85.04C284.14 85.31 283.69 85.6201 283.33 85.9001C278.65 89.9201 269.18 101.93 262.94 101.53H262.95Z" fill="white"/>
<path d="M285.31 95.0198C281.45 92.6098 284.26 86.7798 286.08 84.1398C285.32 85.6598 285 87.6698 284.96 89.3898C285.23 98.6098 297.37 86.9697 300.39 84.8497C302.92 83.1897 305.04 81.0397 307.39 79.1697C311.07 76.3797 314.68 73.5497 318.57 71.2197C312.94 76.7797 307.88 83.0197 301.43 87.6797C297.42 90.7997 290.7 98.0098 285.32 95.0198H285.31Z" fill="white"/>
<path d="M277.46 90.65C278.53 89.07 280.23 87.87 281.58 86.49C282.93 85.35 284.29 83.97 285.96 83.33C286.99 83.26 287.25 84.5 286.57 85.09C285.63 86.72 284.8 88.54 283.78 90.07C283.99 88.78 284.2 87.4999 284.45 86.2199C281.96 87.3299 279.29 88.72 277.46 90.65Z" fill="white"/>
<path d="M317.66 80.8503C314.99 78.2203 317.88 74.0403 318.73 71.1403C318.84 71.1403 318.82 71.4303 318.87 71.5103C318.87 71.5303 318.85 71.5303 318.85 71.5103C318.82 71.4103 318.79 71.3003 318.75 71.2003C316.15 82.8703 321.12 79.8203 326.36 73.0403C328.18 71.2203 330.06 69.7203 331.48 67.6103C332.81 66.1303 334.43 64.8603 335.67 63.3203C335.05 64.9703 333.74 66.7303 332.79 68.3503C331.76 70.7403 330.1 72.7203 328.48 74.7203C326.64 77.8103 321.49 83.7403 317.66 80.8303V80.8503Z" fill="white"/>
<path d="M333.65 73.2801C332.76 72.5001 332.83 71.2901 333.19 70.2701C333.74 68.2001 334.75 66.2101 335.11 64.1201C335.11 66.2701 334.41 68.6501 334.53 70.8901C334.48 71.3901 334.79 71.7601 335.26 71.8901C337.89 72.7901 339.74 69.9301 341.43 68.3801C343.83 65.7001 346.6 63.4201 349.08 60.8201C350.16 59.4101 351.23 58.0501 352.48 56.7801C352.95 55.9701 354.24 55.7 354.66 56.72C354.89 57.32 354.53 57.87 354.23 58.36C353.15 59.74 352.91 61.4301 352.72 63.0701C352.39 65.1901 352.92 66.66 355.33 66.47C359.1 66.1 362.13 63.2101 364.91 60.8901C366.61 59.5501 368.68 58.74 370.31 57.29C372.27 55.85 373.87 54.1 375.69 52.54C375.6 52.74 375.37 52.94 375.23 53.17C373.26 56.78 370.31 59.72 366.95 62.05C364.93 63.91 363.06 65.96 360.57 67.22C356.98 69.93 349.17 70.0501 350.38 63.8101C348.61 65.6101 346.59 67.3501 344.79 69.0801C342.17 72.1401 337.71 76.8501 333.65 73.2801Z" fill="white"/>
<path d="M378.151 60.9998C375.711 60.8098 373.621 59.1298 374.601 56.5298C374.881 55.4598 374.991 53.8598 375.431 53.0798C375.331 53.1598 375.351 53.3497 375.321 53.4797C375.261 55.0697 374.871 56.7697 375.371 58.2897C376.891 60.1697 379.601 59.0997 381.371 58.2297C385.051 56.1597 388.681 54.0398 392.561 52.3398C395.671 50.9698 400.321 49.0097 402.901 48.7197C397.541 51.2097 392.621 54.6298 387.381 57.3798C384.531 59.0398 381.541 60.9598 378.151 61.0098V60.9998Z" fill="white"/>
<path d="M400.59 58.11C398.66 55.79 401.35 52.26 402.05 49.83C402.22 49.48 402.28 48.94 402.71 48.87C402.81 48.89 402.53 48.94 402.51 48.99C401.98 50.8 401.66 53.02 401.61 54.95C401.47 57.22 403.05 56.57 404.46 55.92C409.66 53.85 414.27 50.62 419.53 48.73C419.97 48.54 420.42 48.19 420.79 48C420.73 48.07 420.67 48.14 420.6 48.2C419.72 49.26 418.44 49.88 417.4 50.73C416.13 51.81 414.87 52.79 413.51 53.76C410.72 55.76 403.78 60.83 400.57 58.12L400.59 58.11Z" fill="white"/>
<path d="M419.38 56.8801C416.31 55.3801 419.3 51.4101 420.06 49.2501C420.22 49.0101 421.24 46.1901 421.16 47.3301C421.16 47.3501 421.14 47.3501 421.14 47.3301C421.14 47.2701 421.14 47.2001 421.14 47.1401V47.1301C421.14 47.1301 421.14 47.12 421.14 47.11C420.81 49.55 419.84 52.05 420.14 54.54C420.79 54.64 421.34 54.2501 421.88 53.9501C424.94 51.8201 427.91 49.4801 430.52 46.8301C429.15 49.9701 423.43 58.3901 419.39 56.8801H419.38Z" fill="white"/>
<path d="M431.74 53.9001C429.05 52.7601 430.49 49.2401 430.65 47.1301C430.84 48.7401 430.47 50.8301 431.55 52.1601C431.53 52.1401 431.5 52.1301 431.48 52.1101C434.03 53.5101 436.48 49.9601 438.28 48.5401C439.6 47.4001 441.02 46.3701 442.37 45.2601C442.52 45.1801 442.68 44.9001 442.8 44.8701C442.68 45.0901 442.58 45.3101 442.44 45.5201C440.04 48.5401 436.34 55.7201 431.73 53.9001H431.74Z" fill="white"/>
<path d="M443.33 53.51C440.3 51.81 442.56 47.79 442.99 45.25C443.26 47.24 442.43 49.77 443.79 51.54C446.16 50.33 447.73 47.96 449.9 46.4C449.86 46.41 449.77 46.35 449.84 46.36C449.84 46.36 449.85 46.36 449.86 46.36C449.86 46.36 449.87 46.36 449.88 46.36C452.82 43.81 447.5 51.05 447.04 51.51C446.18 52.58 444.76 53.79 443.33 53.51Z" fill="white"/>
<path d="M441.83 51.1501C441.56 49.0801 441.82 46.9501 442.35 44.9501C442.42 44.8901 442.6 44.9601 442.41 44.9601C442.52 46.9501 442.45 49.2201 441.84 51.1501H441.83Z" fill="white"/>
<path d="M450.48 52.8802C447.18 52.2702 449.4 47.6103 449.47 45.3903C449.79 47.0403 449.58 49.1002 450.36 50.7202C453.49 50.6702 455.83 48.1802 458.37 46.7302C459.86 45.8502 461.69 45.5003 463.19 44.7803C462 46.3303 460.18 47.2502 458.88 48.6802C456.77 51.0202 453.86 53.5303 450.48 52.8903V52.8802Z" fill="white"/>
<path d="M85.5003 210.79C83.9603 210.94 82.0403 210.15 82.1103 208.36C82.1103 208.03 82.2702 207.7 82.6002 207.65C82.6602 207.62 82.7103 207.55 82.7403 207.5C82.7803 207.46 82.8102 207.26 82.8502 207.3C82.8102 207.57 82.6003 207.7 82.5103 207.92C82.4503 208.28 82.7202 208.66 82.9702 208.9C84.4602 209.85 86.5903 208.68 88.1103 208.21C89.9403 207.72 91.3703 206.58 93.2603 206.39C93.3503 206.39 93.4903 206.33 93.5103 206.38C93.1003 206.63 92.7503 206.93 92.3603 207.22C90.5403 208.99 88.1803 210.82 85.4903 210.79H85.5003Z" fill="white"/>
<path d="M93.6795 213.55C89.4895 212.22 92.2395 208.32 94.0195 206.13C94.1095 206.11 94.0794 206.21 94.0794 206.26C94.0794 206.29 94.0795 206.53 94.0295 206.47C94.0295 206.43 94.0295 206.35 94.0295 206.29C90.4895 215.19 97.7394 209.89 101.449 207.57C101.889 207.26 102.359 206.82 102.809 206.64C102.609 206.92 102.429 207.21 102.269 207.48C100.479 210.22 97.3195 214.13 93.6695 213.56L93.6795 213.55Z" fill="white"/>
<path d="M101.24 212.42C98.7296 210.42 102.22 207.16 103.13 205.08C103.31 204.83 103.62 204.05 103.9 204.59C103.9 204.65 103.75 204.48 103.73 204.47C103.71 204.47 103.7 204.46 103.7 204.45C103.7 204.45 103.7 204.45 103.69 204.45C103.69 204.45 103.69 204.45 103.68 204.45C102.93 206.02 102.44 207.79 102.13 209.52C102.13 209.83 101.99 210.35 102.38 210.43C104.55 210.16 106.06 208.07 107.66 206.74C108.56 205.8 109.62 204.99 110.64 204.24C112.41 202.47 114.42 201.14 116.68 200.12C113.25 203.32 106.79 215.42 101.25 212.41L101.24 212.42Z" fill="white"/>
<path d="M114.63 209.93C110.66 207.03 115.93 202.37 117.42 199.5C116.98 201.04 115.99 202.62 115.64 204.28C115.49 205.24 114.86 206.57 115.75 207.31C120.74 203.96 123.4 198.23 127.38 193.9C125.57 198.52 123.98 203.74 120.43 207.48C118.99 208.97 116.83 211.06 114.63 209.93Z" fill="white"/>
<path d="M127.49 202.81C123.78 201.01 126.75 195.98 128.09 193.52C128.09 193.52 128.09 193.52 128.09 193.51C128.09 193.51 128.09 193.51 128.09 193.5C128.09 193.5 128.05 193.46 128.04 193.47C128.02 193.47 127.97 193.44 128.01 193.43C128.27 193.48 128.09 193.78 128.01 193.92C127.16 195.83 126.5 198.15 127.23 200.19C129.07 202.69 132.67 194.85 133.7 193.6C135.47 191.05 136.9 188.24 139.02 185.95C140.51 184.48 142.03 183.06 143.36 181.43C143.04 182.08 142.57 182.86 142.21 183.57C141.14 185.42 139.77 187.09 138.99 189.09C137.13 193.32 133.27 203.92 127.51 202.8L127.49 202.81Z" fill="white"/>
<path d="M136.391 194.14C137.891 189.11 140.771 184.32 144.471 180.64C143.271 182.6 142.331 184.91 141.341 187.06C140.041 189.63 138.051 191.9 136.391 194.14Z" fill="white"/>
<path d="M10.0899 176.69C9.57994 165.51 9.34992 154.25 10.5699 143.11C12.2199 129.75 13.69 116.35 16.11 103.09C17.73 93.5698 19.84 84.4398 22.62 75.2298C24.19 69.0098 26.1699 62.9198 29.3299 57.2998C31.2599 53.4398 33.6999 49.8998 36.2199 46.4098C38.5099 43.0098 40.49 39.3898 43.05 36.2198C46.76 31.8898 50.9399 27.9698 54.4399 23.4398C59.7399 17.1398 66.09 11.6398 72.75 6.7998C72.79 6.9398 72.83 7.07979 72.87 7.21979C72.94 7.44979 73.0099 7.66984 73.0799 7.89984C65.9999 14.9798 58.46 21.7098 52.4 29.7298C50.43 32.1598 48.11 34.2798 46.05 36.6198C43.42 39.6198 41.41 43.0598 39.26 46.3898C35.9 51.3198 32.6199 56.1498 30.0899 61.5398C23.1399 78.0798 19.8199 95.9998 16.8199 113.61C14.4999 130.37 11.68 147.23 12 164.17C12.06 175.05 13.05 186.01 13.43 196.87C14.24 203.92 13.7099 211.18 14.5999 218.14C10.8899 204.68 11.3999 190.46 10.0799 176.66L10.0899 176.69Z" fill="white"/>
<path d="M11.8805 163.719C12.5305 158.199 14.1805 152.689 15.2705 147.349C17.7605 134.289 21.3606 121.47 25.0406 108.71C27.5806 101.45 29.6305 94.1895 32.2205 86.9895C34.1305 82.2995 36.3105 77.7095 38.2005 73.0195C41.9905 65.1995 47.0606 58.0295 52.0506 50.9395C58.1806 42.2395 63.8905 33.2395 71.3305 25.5995C73.3005 23.6495 75.5505 22.0295 77.8705 20.5195C77.9005 20.5895 77.9305 20.6695 77.9605 20.7395C78.0005 20.8395 78.0405 20.9395 78.0805 21.0295C76.9305 22.0295 75.8005 23.0395 74.7105 24.1295C68.6205 30.5695 63.6505 37.9195 58.5205 45.1095C52.7205 53.9395 46.3805 62.3995 41.4605 71.7395C38.7405 77.9395 36.0005 84.1695 33.5905 90.4895C27.2005 109.81 20.8205 129.2 16.8205 149.19C14.1805 159.11 12.2705 169.35 11.8305 179.54C11.5105 174.27 11.1305 168.979 11.8605 163.719H11.8805Z" fill="white"/>
<path d="M19.3804 177.42C21.7904 165.03 23.6804 152.42 28.1404 140.57C30.9104 133.64 33.4604 126.63 36.2504 119.71C38.3704 114.3 40.0604 108.72 42.7504 103.55C46.1004 96.6702 48.3603 89.2702 52.5903 82.8202C56.9403 75.1202 62.3504 68.0302 67.1304 60.6502C71.7604 54.0402 76.2204 47.2402 81.9004 41.4702C82.3304 40.8902 84.6303 39.0102 86.5803 37.6602C86.7003 37.8802 86.8203 38.1002 86.9403 38.3202C84.0603 40.8602 81.7203 44.0702 79.3303 47.0502C74.9003 52.9102 70.7204 58.9602 66.6804 65.0702C61.2404 73.1402 55.6004 81.3202 51.2804 90.0002C46.6104 100.64 42.0003 111.29 37.9603 122.18C34.2403 131.98 29.8104 141.54 27.0404 151.68C24.8104 160.59 23.1803 169.68 21.4803 178.69C19.7303 192.06 14.9704 205.15 14.4304 218.58C12.2004 204.66 17.8804 191.1 19.3804 177.41V177.42Z" fill="white"/>
<path d="M25.03 167.38C26.3 164.87 27.7 162.43 28.89 160.05C31.4 154.83 33.28 149.28 35.91 144.13C37.71 140.43 40.1099 137.06 42.1899 133.52C44.9399 128.75 47.33 123.77 50.3 119.13C55.47 110.65 60.69 101.92 66.09 93.6398C69.28 88.9998 73.16 84.8898 76.37 80.2498C78.77 76.7598 81.5099 73.5398 84.1899 70.2598C88.0199 65.1098 92.34 60.3198 97.59 56.5898C97.75 56.8898 97.92 57.1898 98.08 57.4898C97.53 58.0698 96.97 58.6398 96.4 59.1498C87.76 67.8598 81.04 78.2198 73.47 87.8298C67.49 94.6398 63.26 102.67 58.47 110.31C53.29 118.45 48.5501 126.83 43.9301 135.3C41.8401 138.76 39.4101 142.29 37.6801 145.91C35.3701 150.55 33.57 155.7 31.29 160.27C27.15 167.99 22.82 175.77 19.5 183.82C20.94 178.21 22.35 172.54 25.04 167.38H25.03Z" fill="white"/>
<path d="M28.6802 184.43C30.9602 180.44 32.9701 176.29 35.3801 172.38C37.0201 169.75 38.7801 167.2 40.1301 164.4C44.5101 154.6 50.1001 145.4 55.6301 136.2C60.7501 126.74 67.5901 118.46 74.1901 110.01C79.1901 104.21 82.8502 97.3103 88.5302 92.1003C94.5901 86.5803 100.36 80.5704 107.42 76.3604C107.5 76.5604 107.59 76.7604 107.67 76.9604C100.42 82.7904 94.0301 89.6103 87.3901 96.1003C83.3601 100.78 80.3801 106.22 76.3701 110.92C72.0301 116.54 67.3301 122.24 63.3401 128.02C57.0201 138.07 50.9201 148.29 45.2101 158.7C41.7101 167.22 36.1601 174.5 31.9801 182.66C25.1401 194.06 19.4602 206.21 13.9102 218.18C16.6402 206.08 22.3702 195 28.6802 184.41V184.43Z" fill="white"/>
<path d="M25.9001 196.54C32.3801 186.56 39.5001 177.04 46.6901 167.56C49.3701 164.08 51.4901 160.37 54.2701 157.01C57.7201 152.95 60.5901 148.44 64.0101 144.34C68.2401 139.47 73.0301 135.12 77.4701 130.43C87.6601 120.61 97.8901 110.7 109.45 102.5C111.64 101.01 113.88 99.5504 116.27 98.4004C116.37 98.6604 116.47 98.9204 116.58 99.1904C114.36 100.73 112.3 102.45 110.21 104.16C94.3701 116.59 79.7901 130.61 66.1501 145.41C63.6001 148.44 61.3902 151.73 59.0502 154.92C56.3502 158.41 53.5502 161.96 51.1702 165.65C45.7102 173.32 39.8201 180.68 34.4701 188.44C30.7301 193.62 27.3401 199.03 23.8201 204.35C22.3401 206.64 20.4301 208.62 18.8901 210.87C17.3701 213.12 15.9302 215.57 14.4102 217.73C17.1202 210.07 21.4501 203.28 25.9001 196.54Z" fill="white"/>
<path d="M27.9801 207.81C33.7801 201.63 38.5601 194.8 44.2401 188.56C46.0201 186.45 47.8502 184.35 49.2902 181.99C49.6102 180.46 51.0101 179.51 52.0201 178.42C62.7901 168.1 73.6001 157.85 84.7401 147.94C92.6401 140.66 100.99 133.92 109.16 126.95C114.02 122.81 118.93 118.52 124.65 115.68C124.82 115.95 125 116.22 125.18 116.49C120.87 119.41 117.01 123.06 112.96 126.31C112.97 126.3 112.98 126.29 113 126.27C91.9001 143.93 71.3801 162.3 51.9601 181.81C50.6901 184.86 48.1501 187.58 46.0701 190.07C43.6001 192.85 41.2802 195.51 39.0402 198.44C35.1302 203.69 30.5901 208.39 26.4401 213.44C22.8001 217.94 19.3801 222.13 15.0801 225.95C19.2701 219.82 22.9701 213.33 27.9801 207.81Z" fill="white"/>
<path d="M33.4205 213.9C38.2905 209.06 44.5105 205.73 49.4805 201.04C56.1605 194.46 63.4205 188.89 70.1805 182.6C72.3405 180.53 74.5205 178.44 76.9105 176.66C84.9205 170.89 92.0904 164.07 100.45 158.77C106.76 154.24 112.77 149.27 119.45 145.28C124.36 142.14 128.881 138.42 134.021 135.73C134.851 135.31 135.891 134.82 136.921 134.33C136.941 134.37 136.97 134.41 136.99 134.44C137.07 134.57 137.15 134.7 137.24 134.82C130.03 139.69 123.48 145.53 115.95 149.96C108.62 155.14 101.541 160.67 94.1505 165.76C88.1505 170.57 82.2305 175.49 76.1305 180.17C73.2505 182.71 70.5705 185.53 67.6705 188.02C62.5305 192.41 57.3505 196.64 52.5405 201.34C47.8605 205.97 42.0304 209.36 37.0704 213.62C34.1504 216.21 31.3705 219.28 28.5305 221.85C24.5805 224.99 20.5505 228.25 17.3105 232.06C21.0805 224.68 27.7505 219.69 33.4205 213.89V213.9Z" fill="white"/>
<path d="M26.8495 250.07C28.9395 245.5 31.9195 241.28 35.2395 237.52C41.8495 229.97 49.2495 223.2 56.0995 215.88C62.2295 210.19 68.1996 204.32 74.2896 198.59C80.0295 193.87 85.9496 189.38 91.5496 184.48C96.9096 180.12 102.59 176.16 107.89 171.73C115.08 165.95 123.519 161.99 130.829 156.37C130.809 156.37 130.81 156.38 130.8 156.39C136.02 152.55 141.95 149.93 147.5 146.64C147.58 146.72 147.67 146.8 147.76 146.87C141.09 151.78 133.77 155.8 127.18 160.82C121.54 164.91 115.19 167.92 109.77 172.33C101.25 179.21 92.4296 185.69 84.1796 192.89C79.1696 196.79 74.1495 200.69 69.8195 205.37C66.0795 209.31 61.9695 212.86 58.1095 216.67C54.3095 220.54 50.7196 224.61 46.8096 228.37C41.1096 233.96 35.9495 240.06 30.9695 246.28C28.6695 248.69 27.2295 251.78 25.4395 254.46C26.0695 253.04 26.4595 251.56 26.8595 250.06L26.8495 250.07Z" fill="white"/>
<path d="M91.9897 197.72C94.8297 195.2 98.2197 193.43 101.24 191.15C103.88 189.35 106.35 187.3 108.84 185.3C111.93 182.9 115.53 181.14 118.75 178.95C122.36 176.5 125.77 173.75 129.34 171.23C132.66 168.89 136.3 166.81 139.6 164.52C142.71 162.34 145.56 159.8 148.82 157.82C151.46 156.14 154.38 155.01 157.22 153.74C157.37 153.8 157.52 153.86 157.67 153.92C155.9 155.03 153.75 156.22 152.15 157.37C148.6 159.78 145.47 162.75 142.04 165.32C136.51 169.33 130.52 172.68 125.2 177C121.14 180.21 116.74 182.91 112.35 185.63C108.84 188.09 105.69 191.02 102.1 193.37C98.3797 196.13 94.2397 198.26 90.7097 201.26C88.3897 203.19 86.1598 205.29 83.7998 207C86.4998 203.94 88.9398 200.45 92.0098 197.7L91.9897 197.72Z" fill="white"/>
<path d="M27.3301 260.45C29.3301 257.5 30.8901 254.3 33.2701 251.66C36.8101 247.53 41.2101 244.13 45.2401 240.53C50.9701 234.93 57.0302 229.74 63.4202 224.91C67.1002 222.13 69.9301 218.34 73.6001 215.59C73.9001 215.44 74.3202 215.46 74.5402 215.57C73.8802 215.41 73.3701 215.88 72.9601 216.35C70.2101 219.68 67.7601 223.27 64.5201 226.17C61.7101 228.7 58.5301 230.95 55.7101 233.42C49.8601 238.75 44.2701 244.28 38.3501 249.54C34.4201 252.89 31.0901 257 27.3301 260.44V260.45Z" fill="white"/>
<path d="M114.48 201.99C118.79 198.14 122.61 193.86 126.38 189.57C129.26 186.57 132.66 184.24 135.88 181.64C141.96 176.44 148.05 171.38 154.2 166.28C157.86 163.26 161.961 159.78 165.921 157.66C161.121 161.65 156.911 166.38 152.271 170.53C148.031 174.17 143.83 177.81 139.74 181.53C136.4 184.58 132.69 187.13 129.45 190.25C125.1 194.91 120.18 199.17 114.48 201.98V201.99Z" fill="white"/>
<path d="M39.2305 266.01C42.4505 261.68 46.0305 257.33 49.4105 253.13C53.2005 248.62 57.7704 244.92 62.2004 241.1C63.2104 240.29 64.0505 239.14 65.2405 238.61C65.4105 238.6 65.5705 238.64 65.7205 238.67C65.7705 238.7 65.6505 238.7 65.6305 238.69C65.4105 238.66 65.1605 238.69 64.9905 238.87C63.4005 240.59 62.0505 242.53 60.4205 244.22C53.3205 251.44 47.0205 259.47 39.2905 266C39.4305 265.97 39.2405 266.09 39.2405 266.02L39.2305 266.01Z" fill="white"/>
<path d="M163.681 170.17C161.791 169.08 161.411 166.64 162.041 164.69C162.581 163.14 163.64 161.71 163.24 160.01C160.19 159.22 153.82 161.94 155.59 156.21C151.5 155.81 143.261 155.69 145.271 149.48C144.191 149.35 143.28 148.56 142.24 148.35C140.91 148.14 139.55 148.18 138.21 147.97C136.03 147.71 134.181 146.07 133.531 143.99C132.591 141.13 133.9 138.28 134.34 135.47C132.2 135.2 130.021 135.67 127.901 135.14C124.121 134.29 122.05 130.29 121.58 126.73C121.29 123.11 123.33 119.57 122.37 115.96C120.14 114.07 116.831 114.57 114.561 112.84C111.201 109.23 112.43 103.86 114.09 99.7501C114.57 98.7301 115.02 97.6901 114.48 96.6101C114.43 95.4901 113.52 95.0602 112.61 94.6502C108.96 92.7202 105.711 89.7301 104.181 85.9401C103.211 81.2402 104.901 75.8102 108.171 72.3202C99.6905 70.0602 94.9405 63.9702 96.7605 55.0902C87.3605 54.9602 81.7305 48.3201 84.6105 39.1001C73.2205 39.9501 72.0805 29.9401 75.7205 21.4901C71.9205 21.6001 68.4105 18.2202 69.0605 14.3302C69.6705 11.1402 71.4605 8.30012 73.3705 5.72012C73.4305 5.68012 73.4905 5.88017 73.5605 5.90017C73.5605 5.96017 73.4405 5.82013 73.4105 5.80013C71.3205 10.8501 69.1405 18.8402 77.5105 17.8302C78.4405 17.9102 79.4305 17.9302 80.3105 18.2102C81.4305 18.7802 80.9904 20.5401 79.8204 20.7201C77.9604 22.6001 77.8404 25.4701 77.3204 27.9101C76.4704 32.1501 78.2205 35.7902 82.8705 35.9602C85.0605 36.3702 86.8005 34.2302 88.9205 34.7702C89.4405 34.9702 89.8404 35.4901 89.8304 36.0601C89.8204 37.2101 88.4905 37.6302 88.0105 38.5802C86.7905 40.7502 86.6805 43.5001 87.0605 45.8701C87.7905 49.5001 91.4505 51.5001 94.8505 51.8101C96.6005 52.2101 98.9605 51.5801 100.311 52.9701C100.861 53.7101 100.641 54.7201 99.9105 55.2501C99.2905 56.1701 99.5105 57.5701 99.3705 58.6701C99.2305 62.7101 101.75 66.3802 105.46 67.8902C106.41 68.3002 107.38 68.6501 108.35 68.9401C109.89 69.3801 112.12 69.7802 112.45 71.6502C112.45 73.6302 110.02 74.4002 109.25 76.0702C106.25 81.7001 105.91 85.8201 111.23 89.9801C112.8 91.4401 115.08 91.7801 116.59 93.3001C117.59 94.5801 117.921 96.3301 118.041 97.9201C117.341 101.92 113.701 106.73 116.901 110.48C120.101 111.62 125.55 111.65 125.82 116.04C126.53 119.75 124.541 123.29 125.011 126.99C125.551 129.18 126.63 131.62 129.09 131.96C131.22 132.2 133.381 131.89 135.531 132C136.271 132 137.03 132.23 137.47 132.87C139.15 136.21 135.34 140.02 137.01 143.4C138.09 145.34 140.78 144.44 142.6 144.92C143.74 145.03 144.771 145.53 145.811 145.97C146.751 146.16 147.7 146.45 148.33 147.26C149.28 148.48 148.541 149.99 148.391 151.36C150.951 153.72 161.341 150.66 159.061 156.49C161.131 156.29 163.38 156.52 165.25 157.46C166.64 158.58 165.951 160.92 165.521 162.39C164.921 163.79 163.71 164.69 163.11 166.01C162.78 166.8 162.701 167.7 162.801 168.54C162.951 169.16 163.371 169.71 163.671 170.18L163.681 170.17Z" fill="white"/>
<path d="M70.2501 12.54C70.7301 9.39 71.6701 6.18003 72.9601 3.26003C72.9301 3.23003 72.9101 3.19999 72.8801 3.15999C70.5801 3.68999 68.1602 4.44999 65.9102 4.96999C67.8302 3.34999 69.9702 1.8 72.2802 0.789999C73.8202 0.219999 75.7101 1.49999 75.6401 3.15999C75.6401 4.45999 74.7402 5.47001 73.7802 6.24001C72.3702 8.13001 71.2201 10.31 70.3301 12.47C70.3301 12.45 70.3501 12.43 70.3501 12.41C70.3501 12.41 70.3501 12.4 70.3501 12.39C70.4101 12.33 70.3501 12.64 70.2501 12.5301V12.54Z" fill="white"/>
<path d="M301.31 275.06C306.24 270.19 310.94 265.04 316.51 260.88C320.9 257.22 324.74 252.96 328.89 249.04C332.18 245.67 335.49 242.31 339 239.15C342.29 236.11 344.84 232.59 348.02 229.5C351.46 226.25 355.4 223.37 358.12 219.48C365.54 210.11 371.39 199.52 378.44 189.91C383.22 182.54 388.09 175.26 392.51 167.68C397.11 161.16 401.68 154.73 405.69 147.87C413.79 134.39 419.25 119.55 426.85 105.82C428.84 101.8 430.18 97.4904 432.15 93.4604C434.21 89.2004 436.96 85.3305 439.05 81.0905C444.15 71.2105 451.2 60.3704 454.09 50.4604C454.12 50.5204 454.05 50.4804 454.04 50.4404C453.54 59.4704 449.29 67.6804 445.14 75.5204C441.89 82.1104 438.48 88.5304 434.97 94.9704C433.45 98.1804 432.47 101.61 430.96 104.82C427.8 111.08 424.56 117.45 421.61 123.77C418.48 129.83 415.92 136.18 412.69 142.19C407.64 151.42 401.55 160.42 395.48 168.9C387.75 182.17 378.59 194.48 370.33 207.4C366.98 213.4 362.77 218.86 358.35 224.1C354.75 228.04 350.26 231.03 346.81 235.13C342.3 240.52 336.82 244.95 332 250.04C322.76 259.48 312.98 268.82 301.3 275.07L301.31 275.06Z" fill="white"/>
<path d="M285.19 273.7C290.94 271.42 296.24 267.94 300.67 263.74C304.31 260.52 307.79 257.18 310.61 253.26C312.62 250.66 314.77 248.25 316.96 245.84C319.44 242.96 321.59 239.8 324.26 237.08C328.23 233.48 331.91 229.91 335.5 225.97C339.46 222.44 343.2 218.88 346.27 214.58C354.02 205.58 360.63 195.71 367.1 185.81C374.25 175.83 380.28 165.29 387.01 155.05C395.17 144.17 403.31 133.22 410.96 121.98C415.22 115.36 418.84 108 422.32 101.04C426.23 93.6897 428.79 85.8298 432.29 78.3098C437 68.9098 441.4 59.3797 446.52 50.2197C446.59 50.1197 446.69 50.0098 446.81 50.0098C447.02 50.0098 447.1 50.2497 447.1 50.4197C447.04 51.3597 446.75 52.2797 446.72 53.2397C446.58 52.5297 446.84 51.4597 446.8 50.6697C443.27 61.3497 438.14 71.3697 433.55 81.6097C431.66 85.6597 430.46 89.9897 428.57 94.0397C423.79 103.91 419.15 113.9 413.24 123.15C405.33 134.31 397.34 145.41 389.08 156.3C384.92 163.26 380.25 169.84 376.29 176.86C366.99 190.26 358.36 204.07 347.76 216.49C345.12 219.96 342.28 223.25 338.92 226.03C336.35 228.34 334.14 231.01 331.72 233.47C329.37 235.83 326.67 237.91 324.5 240.4C320.71 245.12 316.87 249.8 312.92 254.39C305.97 263.4 296.87 272.21 285.18 273.69L285.19 273.7Z" fill="white"/>
<path d="M2.51001 127.65C2.53001 117.84 3.16 108.02 5.25 98.4202C7.6 89.5302 9.88995 80.5602 13.7 72.1602C16.41 66.0902 18.76 59.8703 21.79 53.9503C24.17 49.1803 27.19 44.7902 30.04 40.3102C33.73 34.7302 38.43 29.9502 43.34 25.4402C45.12 23.6002 46.88 21.7502 48.84 20.1102C51.04 18.3102 53.3 17.1702 55.4 15.3802C57.64 13.5302 59.47 11.6703 61.75 9.96027C64.73 7.73027 68.32 6.39026 71.58 4.70026C72.42 4.34026 74.6001 2.91022 73.8101 4.04022C73.8101 4.05022 73.78 4.04027 73.79 4.03027C73.83 3.92027 73.89 3.81026 73.9 3.70026C70.66 6.25026 67.16 8.47025 63.95 11.0703C60.76 13.9803 57.65 17.1602 54.11 19.6102C50.44 21.9302 47.4799 25.1002 44.45 28.1602C40.01 32.1402 36.0499 36.6102 32.7 41.5402C26.41 50.5402 21.7 60.4403 17.59 70.5903C13.73 78.6403 11.1299 87.1602 8.68994 95.7302C5.88994 106.19 5.27 117.23 2.5 127.66L2.51001 127.65Z" fill="white"/>
<path d="M12.6304 203.98C7.45042 190.63 5.52047 176.37 5.06047 162.12C3.84047 144.77 6.67047 127.51 9.81047 110.5C11.2705 102.07 13.3904 93.7899 15.4904 85.4999C18.3104 76.8899 21.8004 68.4999 25.5304 60.2499C27.0904 57.2499 28.4404 54.1299 30.2204 51.2499C32.7004 47.8399 35.0104 44.3099 37.2104 40.7299C43.0004 32.2599 48.8004 23.68 56.8804 17.21C49.9804 24.13 44.4605 32.6699 38.9305 40.7299C36.2705 45.3799 33.0005 49.7099 30.2905 54.2999C25.7205 63.2799 21.7905 72.4899 18.5505 81.9999C14.7705 95.0799 12.6704 108.58 10.3604 121.96C7.1104 139.46 7.42035 157.24 8.94035 174.88C10.0204 184.57 11.7104 194.33 12.6404 203.97L12.6304 203.98Z" fill="white"/>
<path d="M4.06055 92.0203C5.35055 82.3203 9.0905 73.2602 13.1405 64.4202C17.3605 54.9902 22.6105 45.8603 28.8805 37.6503C30.2205 36.0503 31.3705 34.3002 32.6105 32.6202C35.0605 29.3502 38.1505 26.6102 40.8405 23.5502C41.8705 22.3902 42.8205 21.1803 43.8605 20.0303C42.9705 21.4303 41.9405 22.9502 40.9305 24.3502C33.5205 33.7902 26.1704 43.3603 20.5704 54.0103C16.4204 61.2903 13.3105 68.9802 10.2605 76.7402C7.9105 81.7302 5.84055 86.8803 4.06055 92.0203Z" fill="white"/>
<path d="M18.7297 128.53C19.7797 122.65 20.3198 116.67 21.6598 110.85C23.3398 104.27 24.9698 97.6697 27.1398 91.2297C29.9098 84.5297 33.0998 77.8997 36.2998 71.4097C39.6198 65.0097 43.3498 58.7598 47.4298 52.8198C49.7698 49.0098 52.2997 45.3698 55.0997 41.8798C56.5397 39.5498 57.9398 37.2298 59.7798 35.2098C62.9198 31.8898 65.5998 28.2998 68.8898 25.2098C71.0498 23.2498 73.3297 21.4198 75.4797 19.4498C75.8997 19.1398 76.2798 18.5998 76.7698 18.5098C76.8098 18.5598 76.7097 18.5098 76.6897 18.5298C72.0597 23.1098 67.9598 28.2798 63.9098 33.3798C60.6598 36.8298 58.3397 40.5997 55.7097 44.4697C51.7397 49.2197 48.4797 54.5597 45.0997 59.7397C41.6097 65.2597 38.0497 70.8597 35.3197 76.7897C27.4097 93.1597 23.3697 111.11 18.7197 128.52L18.7297 128.53Z" fill="white"/>
<path d="M21.7297 153.94C25.3897 136.18 32.0498 119.32 40.4098 103.26C41.9898 100.05 43.0397 96.6098 44.4397 93.3298C48.2397 85.5598 52.8097 78.1598 57.3497 70.8098C59.8197 66.5998 61.7598 62.0197 65.0398 58.3497C67.9798 55.0697 70.3498 51.3098 73.4098 48.1498C75.6698 45.9098 77.3897 43.3398 79.5897 41.0698C80.8397 39.6898 82.4697 38.7098 83.8397 37.5098C82.5997 39.0098 80.9598 40.5297 79.9298 42.2997C75.7598 49.7097 69.9298 56.0598 64.7598 62.7498C62.6498 65.7398 61.0797 69.1798 59.0997 72.1998C55.6597 77.2898 52.4198 82.3598 49.4298 87.6998C46.5198 92.5098 44.6297 97.7398 42.4597 102.89C40.0597 107.55 37.4898 112.18 35.2998 116.91C29.2598 128.65 25.5597 141.48 21.7197 153.96L21.7297 153.94Z" fill="white"/>
<path d="M50.8496 74.8398C55.5496 67.1598 60.1497 59.3998 65.7997 52.3698C70.0197 47.2198 75.0896 42.7398 79.7096 37.9998C79.7096 37.9798 79.7096 37.9797 79.7096 37.9697C76.4596 42.8097 72.5296 47.3397 68.6896 51.7197C62.5696 59.2597 57.2096 67.5897 50.8596 74.8497L50.8496 74.8398Z" fill="white"/>
<path d="M56.0198 62.8298C60.2198 56.2098 64.2398 49.4198 69.2498 43.3698C72.0798 39.9098 75.4197 36.9598 78.6097 33.8698C78.6797 33.8298 78.7697 33.8198 78.8497 33.7998C78.8597 33.7998 78.8697 33.8198 78.8497 33.8198C78.7397 33.8598 78.6398 33.8898 78.5598 33.9598C70.4298 43.0498 63.6098 53.3798 56.0098 62.8398L56.0198 62.8298Z" fill="white"/>
<path d="M48.71 45.88C49.57 44.58 50.4599 43.24 51.3199 41.96C54.7499 36.62 58.6 31.49 63.29 27.16C66.52 23.7 70.81 21.31 73.88 17.77C73.94 17.63 74 17.41 74.05 17.25C74.08 17.43 73.96 17.8 73.85 18.02C72.34 20.26 70.17 21.97 68.28 23.89C65.26 26.86 62.32 29.91 59.45 33.02C55.74 37.17 52.37 41.78 48.71 45.89V45.88Z" fill="white"/>
<path d="M47.8105 121.94C49.1805 117.45 50.2905 112.8 52.4305 108.63C55.0405 103.96 58.3004 99.81 61.0704 95.27C62.8604 92.61 64.3505 89.77 65.9905 87.02C69.5405 82.08 73.1505 77.04 77.2605 72.56C82.2805 67.63 87.3505 62.74 92.5105 57.95C93.8505 56.71 95.2104 55.49 96.5704 54.25C96.5804 54.25 96.6005 54.25 96.6005 54.25C96.6205 54.3 96.6505 54.37 96.6705 54.43C96.6705 54.46 96.6405 54.44 96.6405 54.42C96.6205 54.38 96.5904 54.34 96.5704 54.3C90.1004 61.44 83.1905 68.23 76.9705 75.58C73.9505 79.67 71.0305 83.81 67.9105 87.81C65.7005 91.47 63.5704 95.18 61.1904 98.74C59.1404 101.99 56.8805 105.07 54.7505 108.22C51.8805 112.47 50.0104 117.4 47.8204 121.93L47.8105 121.94Z" fill="white"/>
<path d="M64.5996 87.0399C73.2796 75.5699 82.5796 64.36 91.8396 53.46C82.9796 64.78 74.0396 76.2799 64.5996 87.0399Z" fill="white"/>
<path d="M62.5002 82.2195C66.2302 75.1295 70.5903 68.3396 76.3903 62.7596C80.3203 59.0196 84.3103 55.2896 88.5503 51.9196C88.9403 51.6396 89.2902 51.2896 89.7102 51.0596C89.8202 51.0596 89.7502 51.2096 89.7302 51.2696C89.7102 51.3196 89.6702 51.5496 89.6302 51.4996C89.6502 51.3796 89.6802 51.2596 89.7002 51.1496C85.2302 56.0896 80.9802 61.1796 76.1202 65.7496C71.2302 70.9096 66.7702 76.6295 62.4902 82.2195H62.5002Z" fill="white"/>
<path d="M54.5498 135.61C58.1898 127.67 63.4898 120.73 68.0198 113.34C71.1798 108.83 74.0097 104.07 77.4597 99.7996C80.4097 96.7796 83.0398 93.5096 85.7698 90.3096C88.0898 88.0396 90.3598 85.6296 92.7798 83.5096C97.9698 79.1896 103.55 75.2796 109.08 71.4096C109.91 70.9196 109.57 71.8696 109.14 72.1496C109.28 71.9296 109.49 71.7096 109.48 71.4696C109.48 71.4696 109.48 71.4596 109.48 71.4496C109.48 71.4496 109.48 71.4496 109.48 71.4396C104.75 76.2796 100.03 81.2596 94.6897 85.4396C90.4797 89.2496 86.6797 93.3896 83.0897 97.7696C77.0197 103.72 72.4898 110.7 67.5398 117.53C63.2698 123.57 58.3697 129.38 54.5697 135.62L54.5498 135.61Z" fill="white"/>
<path d="M72.0801 104.52C74.6101 100.18 77.0601 95.7295 80.2201 91.7895C82.8101 88.6695 86.0901 86.2496 89.0001 83.4596C94.2501 78.5296 99.7702 73.3895 106.68 70.9695C106.76 70.9495 106.86 70.8995 106.94 70.9095C106.96 70.9095 106.96 70.9395 106.94 70.9395C106.72 70.9995 106.5 71.1295 106.28 71.2295C98.1802 75.8295 92.2401 83.2895 85.1201 89.1795C85.1401 89.1595 85.1602 89.1495 85.1702 89.1295C80.0502 93.5395 76.2501 99.3396 72.1001 104.52H72.0801Z" fill="white"/>
<path d="M84.4395 83.5696C85.1295 82.7496 85.8696 81.9096 86.5496 81.1296C86.5496 81.1296 86.5295 81.1496 86.5195 81.1596C89.9995 77.1496 93.8195 73.3697 98.2695 70.4597C99.6295 69.6697 101.11 68.5396 102.68 68.3496C102.68 68.3596 102.68 68.3696 102.66 68.3696C102.66 68.3696 102.65 68.3696 102.65 68.3596C99.8895 69.7496 97.7295 72.2497 95.4095 74.2097C91.8395 77.4497 88.1595 80.6296 84.4395 83.5696Z" fill="white"/>
<path d="M64.54 142.88C66.8 139.04 69.3101 135.36 72.5601 132.28C78.1801 126.08 84.27 120.25 90.38 114.57C92.76 112.5 95.08 110.15 97.37 108.04C100.57 105.18 104.31 103.15 107.52 100.33C108.06 99.6898 117.08 93.5498 113.94 96.2798C113.94 96.2798 113.94 96.2998 113.94 96.3098C113.94 96.3198 113.92 96.3198 113.92 96.3098C110.28 99.2798 107.46 103.12 103.8 106.06C101.17 107.94 98.76 110.09 96.48 112.38C92.9 115.79 89.2 118.99 85.61 122.24C81.85 125.53 78.15 129 74.58 132.43C70.75 135.43 67.36 139 64.55 142.89L64.54 142.88Z" fill="white"/>
<path d="M81.7095 119.34C86.3195 113.58 91.4795 108.24 97.0795 103.45C100.869 99.9999 104.79 96.7699 109.56 94.8399C110.61 94.4199 111.629 93.9199 112.709 93.5899C112.789 93.5699 112.94 93.5199 112.99 93.6199C113.03 93.7299 112.99 93.8498 113 93.9698C113 93.9698 113.02 94.0499 113 94.0899C113 94.1099 112.969 94.0899 112.969 94.0899C112.959 93.9799 112.93 93.8799 112.93 93.7799C112.93 93.7799 112.93 93.6998 112.89 93.6698C106.52 96.5998 101.529 101.81 96.3395 106.34C96.3795 106.31 96.3896 106.29 96.4196 106.27C95.0096 107.53 93.6195 108.78 92.1895 110C92.2095 109.98 92.2295 109.97 92.2495 109.95C88.6795 113.01 85.0995 116.23 81.6895 119.36L81.7095 119.34Z" fill="white"/>
<path d="M95.3496 101.75C98.8396 97.6798 102.65 92.9998 107.82 91.2598C107.88 91.2598 107.74 91.6298 107.72 91.5698C107.73 91.4898 107.75 91.4098 107.76 91.3198C107.76 91.3198 107.76 91.3198 107.75 91.3198C103.34 94.3998 99.7296 98.7098 95.3596 101.76L95.3496 101.75Z" fill="white"/>
<path d="M78.8105 147.67C83.3605 143.07 88.7805 139.36 93.7205 135.25C96.3005 133.02 98.5704 130.48 101.44 128.61C104.18 126.69 106.61 124.35 109.51 122.65C113.81 120.23 117.231 115.97 122.281 115.29C122.371 115.4 122.221 115.5 122.141 115.56C121.821 115.76 121.45 115.99 121.08 116.05C118 117.65 115.801 120.34 113.271 122.63C111.451 124.15 109.331 125.12 107.421 126.48C105.431 127.9 103.34 129.48 101.34 130.76C97.4705 133.47 94.2305 136.95 90.2205 139.48C86.2305 141.94 82.3904 144.73 78.8204 147.66L78.8105 147.67Z" fill="white"/>
<path d="M88.9202 134.41C95.3802 128.94 101.91 123.46 109.05 118.92C112.26 116.65 115.79 114.88 119.22 112.98C119.65 112.76 120.29 112.421 120.66 112.781C120.22 112.541 119.81 112.86 119.44 113.1C114.76 116.5 110.15 120.04 105.37 123.3C105.39 123.29 105.42 123.26 105.44 123.25C99.9801 127 94.4602 130.931 88.9102 134.391L88.9202 134.41Z" fill="white"/>
<path d="M98.6602 123.29C103.78 118.65 109.53 113.86 115.84 111.29C115.69 111.62 115.3 111.85 115.13 112.2C115.09 112.08 115.33 111.81 115.41 111.65C110 115.74 104.36 119.76 98.6602 123.29Z" fill="white"/>
<path d="M69.7998 179.79C75.0698 174.2 80.9997 169.33 87.3397 164.99C91.0397 161.7 95.3998 159.29 99.1698 156.12C109.89 147.82 121.18 140.12 133.28 133.98C133.43 133.91 133.62 133.79 133.8 133.82C133.84 133.82 133.85 133.87 133.84 133.91C133.74 134.11 133.49 134.29 133.4 134.48C133.4 134.48 133.34 134.59 133.33 134.53C133.42 134.33 133.55 134.16 133.67 133.98C126.99 139.01 120.26 144.02 113.21 148.54C113.25 148.51 113.28 148.49 113.32 148.46C106.37 152.94 100.13 158.47 93.0797 162.76C85.4297 168.57 77.0698 173.6 69.7998 179.78V179.79Z" fill="white"/>
<path d="M96.7795 154.28C103.72 147.98 110.85 141.86 119.18 137.46C122.3 135.6 125.51 134.18 128.88 132.92C129.1 132.84 129.46 132.77 129.37 133.14C129.33 133.18 129.339 133.1 129.339 133.09C129.339 133.03 129.32 132.98 129.28 132.93C124.64 135.15 120.499 138.43 116.109 141.08C109.439 145.11 103.11 149.9 96.7695 154.28H96.7795Z" fill="white"/>
<path d="M106.88 142.7C110.43 139.6 114.03 136.46 118.01 133.96C120.14 132.63 122.38 131.45 124.51 130.11C124.59 130.05 124.91 129.85 124.82 130.04C124.73 130.27 124.75 130.09 124.8 130C119.02 134.41 113.01 138.88 106.88 142.69V142.7Z" fill="white"/>
<path d="M83.76 187.98C88.29 184.67 92.07 180.51 96.46 177.05C101.42 173.04 106.86 169.69 111.86 165.75C118.57 160.54 125.23 155.1 132.98 151.51C136.19 149.93 139.23 148.2 142.61 147.01C143.01 146.86 143.61 146.69 143.94 146.93C143.5 146.79 143.09 147.03 142.7 147.23C138.14 149.94 134.13 153.39 129.41 155.84C123.5 159.36 117.97 163.44 112.45 167.54C107.32 171.32 101.99 174.42 96.54 178.42C92.31 181.62 88.22 185.21 83.75 187.97L83.76 187.98Z" fill="white"/>
<path d="M112.83 161.26C120.53 155.73 128.03 149.1 137.02 145.85C137.56 145.8 137.44 146.42 137.28 146.66C137.3 146.47 137.35 146.21 137.28 146.07C137.02 145.93 136.69 146.18 136.45 146.26C133.95 147.64 131.75 149.52 129.35 151.07C124.04 154.7 118.44 158.2 112.83 161.26Z" fill="white"/>
<path d="M99.4204 188.72C106.38 183.72 112.94 178.18 119.97 173.29C124.57 169.92 129.53 167.32 134.25 164.16C139.79 160.53 145.63 157.43 151.48 154.37C151.86 154.15 152.41 153.9 152.65 154.44C152.65 154.5 152.57 154.39 152.57 154.38C152.47 154.28 152.37 154.19 152.22 154.2C148.24 157.05 144.11 159.95 140.05 162.75C134.45 166.49 128.48 169.58 122.75 173.1C114.9 178.19 107.39 184 99.4004 188.73L99.4204 188.72Z" fill="white"/>
<path d="M124.58 168.44C129.46 164.77 134.36 161.13 139.51 157.87C141.65 156.51 143.83 155.19 146.19 154.24C146.48 154.11 147 154 147.2 154.24C146.88 154.08 146.56 154.22 146.26 154.37C144.11 155.56 142.14 157.04 140.15 158.47C135.17 162.07 129.79 165.34 124.58 168.44Z" fill="white"/>
<path d="M119.29 194.58C126.64 188.16 133.26 180.86 140.95 174.84C140.95 174.84 140.96 174.83 140.97 174.82C140.97 174.82 140.95 174.84 140.94 174.85C140.94 174.85 140.94 174.85 140.93 174.86C141.26 174.57 141.59 174.28 141.93 173.99C141.93 173.99 141.91 174.01 141.9 174.01C141.9 174.01 141.89 174.02 141.88 174.03C148.51 168.49 155.26 162.77 162.76 158.51C162.9 158.61 162.66 158.93 162.66 159.1C162.6 159.02 162.75 158.72 162.74 158.6C157.73 162.48 153.51 167.32 148.4 171.12C144.1 174.75 139.85 178.43 135.35 181.8C130.21 186.29 124.86 190.74 119.3 194.57L119.29 194.58Z" fill="white"/>
<path d="M124.3 183.65C131.7 176.88 139.87 171.08 147.57 164.67C151.27 161.65 155.48 159.22 158.96 155.96C155.5 159.94 150.61 163.56 146.55 167.11C139.61 173.21 131.74 178.34 124.29 183.65H124.3Z" fill="white"/>
<path d="M149.61 186.57C151.25 184.55 153.33 182.86 155.47 181.45C155.84 181.29 157.91 179.51 157.67 180.59C157.63 180.63 157.67 180.4 157.59 180.33C157.59 180.33 157.57 180.33 157.57 180.32C155.11 182.61 152.42 184.83 149.61 186.58V186.57Z" fill="white"/>
<path d="M145.03 187.51C149.43 182.39 155.99 178.04 160.94 174.47C156.5 179.7 150.74 183.9 145.03 187.51Z" fill="white"/>
<path d="M149.03 180.86C153.26 176.54 158.019 172.68 163.199 169.56C163.389 169.45 164.009 169.13 163.709 169.58C163.639 169.59 163.75 169.44 163.74 169.4C161.76 170.77 160.229 172.74 158.359 174.27C155.449 176.71 152.17 178.88 149.02 180.85L149.03 180.86Z" fill="white"/>
<path d="M148.57 188.03C151.11 184.86 155.14 183.13 158.14 180.55C158.35 180.73 157.98 181.06 157.89 181.24C155.51 184.29 152.07 186.57 148.57 188.03Z" fill="white"/>
<path d="M20.0002 246.15C22.8702 235.96 28.6803 226.849 35.0403 218.479C37.6403 215.109 39.8502 211.47 42.6902 208.3C45.3902 205.21 48.8003 202.97 51.7803 200.24C55.9603 196.12 59.7503 191.569 64.4203 187.969C66.0603 186.649 67.8103 185.259 69.5403 184.189C68.4903 184.959 67.4502 185.769 66.4602 186.599C61.4702 190.619 57.2103 195.389 52.7803 199.969C50.0803 202.659 46.9802 204.989 44.4402 207.819C41.0302 211.629 38.5702 216.249 35.5802 220.329C29.8802 228.589 24.8602 237.46 19.9902 246.14L20.0002 246.15Z" fill="white"/>
<path d="M65.8 195.61C69.56 190.86 73.77 186.52 78.36 182.56C79.66 181.41 81.02 180.27 82.49 179.34C82.81 179.17 83.2701 179.1 83.5601 179.35C83.8201 179.65 83.95 180.04 84.08 180.41C83.92 180.21 83.79 179.74 83.58 179.5C82.69 178.78 81.51 180.4 80.79 180.87C75.51 185.47 70.5 190.55 65.79 195.6L65.8 195.61Z" fill="white"/>
<path d="M24.2903 255.439C25.1103 251.979 25.7102 248.479 27.5002 245.359C29.3102 241.369 31.0302 237.33 33.4602 233.67C35.2702 230.99 36.9002 228.17 38.7002 225.49C41.1602 221.86 44.1502 218.659 46.9902 215.329C49.7802 211.959 52.4303 208.48 55.2803 205.16C56.6903 203.6 58.0602 201.81 59.9902 200.88C60.5502 200.67 61.2303 200.479 61.7603 200.439C60.4103 200.679 59.2302 201.39 58.3302 202.42C54.9902 206.26 52.3602 210.64 49.2302 214.65C46.0102 218.92 42.3003 222.839 39.5503 227.439C37.6003 230.869 35.4103 234.28 33.5403 237.74C31.6103 241.63 29.8503 245.569 27.5503 249.199C26.6703 251.439 25.5203 253.43 24.2803 255.43L24.2903 255.439Z" fill="white"/>
<path d="M26.9697 257.76C29.9297 251.93 33.8997 246.69 38.5797 242.16C45.2297 234.97 50.8197 225.94 59.8497 221.53C60.3697 221.35 61.0198 221.14 61.4998 221.12C61.0298 221.25 60.5598 221.43 60.1298 221.62C56.9398 223.28 54.5598 226.18 52.1298 228.69C48.7598 232.3 45.6297 236.11 42.5897 240C40.3897 242.89 37.9498 245.6 35.4098 248.2C32.5898 251.35 30.0797 254.93 26.9697 257.75V257.76Z" fill="white"/>
<path d="M34.8105 261.18C36.0005 259.28 37.6404 257.689 39.0704 255.959C42.8104 251.509 46.0805 246.6 50.0505 242.37C53.9605 238.56 57.9105 233.449 63.2705 231.939C59.0105 233.759 56.5404 238.17 53.4504 241.43C47.5104 248.26 42.2605 255.95 34.8105 261.18Z" fill="white"/>
<path d="M52.6895 259.24C54.0095 255.16 58.1595 247.89 62.6195 247.2C61.4195 247.5 60.8095 248.72 60.1195 249.61C57.9095 253.07 55.4195 256.29 52.6895 259.24Z" fill="white"/>
</svg>
